%TF.GenerationSoftware,KiCad,Pcbnew,(6.0.1)*%
%TF.CreationDate,2023-01-11T14:02:27+03:00*%
%TF.ProjectId,Driver_SKiM459GD12E4 V2,44726976-6572-45f5-934b-694d34353947,rev?*%
%TF.SameCoordinates,Original*%
%TF.FileFunction,Soldermask,Bot*%
%TF.FilePolarity,Negative*%
%FSLAX46Y46*%
G04 Gerber Fmt 4.6, Leading zero omitted, Abs format (unit mm)*
G04 Created by KiCad (PCBNEW (6.0.1)) date 2023-01-11 14:02:27*
%MOMM*%
%LPD*%
G01*
G04 APERTURE LIST*
G04 Aperture macros list*
%AMRoundRect*
0 Rectangle with rounded corners*
0 $1 Rounding radius*
0 $2 $3 $4 $5 $6 $7 $8 $9 X,Y pos of 4 corners*
0 Add a 4 corners polygon primitive as box body*
4,1,4,$2,$3,$4,$5,$6,$7,$8,$9,$2,$3,0*
0 Add four circle primitives for the rounded corners*
1,1,$1+$1,$2,$3*
1,1,$1+$1,$4,$5*
1,1,$1+$1,$6,$7*
1,1,$1+$1,$8,$9*
0 Add four rect primitives between the rounded corners*
20,1,$1+$1,$2,$3,$4,$5,0*
20,1,$1+$1,$4,$5,$6,$7,0*
20,1,$1+$1,$6,$7,$8,$9,0*
20,1,$1+$1,$8,$9,$2,$3,0*%
G04 Aperture macros list end*
%ADD10C,1.500000*%
%ADD11C,3.200000*%
%ADD12C,4.300000*%
%ADD13R,2.300000X1.500000*%
%ADD14O,2.300000X1.500000*%
%ADD15RoundRect,0.250000X0.450000X-0.350000X0.450000X0.350000X-0.450000X0.350000X-0.450000X-0.350000X0*%
%ADD16C,4.000000*%
%ADD17RoundRect,0.250000X-0.350000X-0.450000X0.350000X-0.450000X0.350000X0.450000X-0.350000X0.450000X0*%
%ADD18RoundRect,0.250000X-0.337500X-0.475000X0.337500X-0.475000X0.337500X0.475000X-0.337500X0.475000X0*%
%ADD19RoundRect,0.250000X0.350000X0.450000X-0.350000X0.450000X-0.350000X-0.450000X0.350000X-0.450000X0*%
%ADD20RoundRect,0.250000X0.337500X0.475000X-0.337500X0.475000X-0.337500X-0.475000X0.337500X-0.475000X0*%
%ADD21RoundRect,0.250000X0.475000X-0.337500X0.475000X0.337500X-0.475000X0.337500X-0.475000X-0.337500X0*%
%ADD22RoundRect,0.250000X-0.475000X0.337500X-0.475000X-0.337500X0.475000X-0.337500X0.475000X0.337500X0*%
%ADD23RoundRect,0.250000X-0.450000X0.350000X-0.450000X-0.350000X0.450000X-0.350000X0.450000X0.350000X0*%
%ADD24R,2.500000X3.300000*%
%ADD25RoundRect,0.250000X0.400000X1.075000X-0.400000X1.075000X-0.400000X-1.075000X0.400000X-1.075000X0*%
%ADD26RoundRect,0.250000X-0.400000X-1.075000X0.400000X-1.075000X0.400000X1.075000X-0.400000X1.075000X0*%
%ADD27RoundRect,0.150000X-0.150000X0.850000X-0.150000X-0.850000X0.150000X-0.850000X0.150000X0.850000X0*%
%ADD28RoundRect,0.150000X-0.150000X0.825000X-0.150000X-0.825000X0.150000X-0.825000X0.150000X0.825000X0*%
G04 APERTURE END LIST*
D10*
%TO.C,D16*%
X90754000Y-114808000D03*
X90754000Y-112268000D03*
X90754000Y-109728000D03*
X90754000Y-102108000D03*
X90754000Y-99568000D03*
X90754000Y-97028000D03*
%TD*%
D11*
%TO.C,H5*%
X216862000Y-43214000D03*
%TD*%
%TO.C,H6*%
X164862000Y-135464000D03*
%TD*%
D10*
%TO.C,D15*%
X80086000Y-114808000D03*
X80086000Y-112268000D03*
X80086000Y-109728000D03*
X80086000Y-102108000D03*
X80086000Y-99568000D03*
X80086000Y-97028000D03*
%TD*%
D11*
%TO.C,H1*%
X164862000Y-50964000D03*
%TD*%
%TO.C,H2*%
X114862000Y-93214000D03*
%TD*%
%TO.C,H10*%
X216862000Y-93214000D03*
%TD*%
D12*
%TO.C,H11*%
X216862000Y-143214000D03*
%TD*%
D11*
%TO.C,H4*%
X62862000Y-93214000D03*
%TD*%
%TO.C,H8*%
X114862000Y-135464000D03*
%TD*%
%TO.C,H7*%
X114862000Y-50964000D03*
%TD*%
D10*
%TO.C,D31*%
X190782000Y-114808000D03*
X190782000Y-112268000D03*
X190782000Y-109728000D03*
X190782000Y-102108000D03*
X190782000Y-99568000D03*
X190782000Y-97028000D03*
%TD*%
%TO.C,D32*%
X180162000Y-114808000D03*
X180162000Y-112268000D03*
X180162000Y-109728000D03*
X180162000Y-102108000D03*
X180162000Y-99568000D03*
X180162000Y-97028000D03*
%TD*%
%TO.C,D29*%
X130048000Y-114730000D03*
X130048000Y-112190000D03*
X130048000Y-109650000D03*
X130048000Y-102030000D03*
X130048000Y-99490000D03*
X130048000Y-96950000D03*
%TD*%
D12*
%TO.C,H12*%
X62862000Y-143214000D03*
%TD*%
D10*
%TO.C,D30*%
X140668000Y-114730000D03*
X140668000Y-112190000D03*
X140668000Y-109650000D03*
X140668000Y-102030000D03*
X140668000Y-99490000D03*
X140668000Y-96950000D03*
%TD*%
D11*
%TO.C,H9*%
X62862000Y-43214000D03*
%TD*%
D13*
%TO.C,U2*%
X224965500Y-108365000D03*
D14*
X224965500Y-105825000D03*
X224965500Y-103285000D03*
%TD*%
D11*
%TO.C,H3*%
X164862000Y-93214000D03*
%TD*%
D15*
%TO.C,R117*%
X206502000Y-45450000D03*
X206502000Y-43450000D03*
%TD*%
D16*
%TO.C,J27*%
X172812000Y-99722000D03*
%TD*%
D17*
%TO.C,R67*%
X122952000Y-120396000D03*
X124952000Y-120396000D03*
%TD*%
D16*
%TO.C,J23*%
X156912000Y-99722000D03*
%TD*%
D18*
%TO.C,C69*%
X172952500Y-117856000D03*
X175027500Y-117856000D03*
%TD*%
D19*
%TO.C,R109*%
X202676000Y-51054000D03*
X200676000Y-51054000D03*
%TD*%
D20*
%TO.C,C1*%
X74951500Y-115570000D03*
X72876500Y-115570000D03*
%TD*%
D21*
%TO.C,C71*%
X214122000Y-119037500D03*
X214122000Y-116962500D03*
%TD*%
D16*
%TO.C,J26*%
X156912000Y-63722000D03*
%TD*%
D21*
%TO.C,C9*%
X70612000Y-134133500D03*
X70612000Y-132058500D03*
%TD*%
%TO.C,C35*%
X152400000Y-100605500D03*
X152400000Y-98530500D03*
%TD*%
D19*
%TO.C,R137*%
X101203000Y-135001000D03*
X99203000Y-135001000D03*
%TD*%
D16*
%TO.C,J19*%
X106912000Y-63722000D03*
%TD*%
D15*
%TO.C,R111*%
X199898000Y-48752000D03*
X199898000Y-46752000D03*
%TD*%
%TO.C,R127*%
X62992000Y-132064000D03*
X62992000Y-130064000D03*
%TD*%
D17*
%TO.C,R132*%
X165800000Y-128000000D03*
X167800000Y-128000000D03*
%TD*%
D22*
%TO.C,C28*%
X65786000Y-99546500D03*
X65786000Y-101621500D03*
%TD*%
D16*
%TO.C,J17*%
X106912000Y-87722000D03*
%TD*%
D17*
%TO.C,R17*%
X77232000Y-123952000D03*
X79232000Y-123952000D03*
%TD*%
D23*
%TO.C,R69*%
X164000000Y-121000000D03*
X164000000Y-123000000D03*
%TD*%
D15*
%TO.C,R94*%
X115824000Y-132064000D03*
X115824000Y-130064000D03*
%TD*%
D21*
%TO.C,C70*%
X166200000Y-119037500D03*
X166200000Y-116962500D03*
%TD*%
D17*
%TO.C,R97*%
X211598000Y-60325000D03*
X213598000Y-60325000D03*
%TD*%
D18*
%TO.C,C11*%
X72876500Y-117856000D03*
X74951500Y-117856000D03*
%TD*%
D21*
%TO.C,C10*%
X93472000Y-133117500D03*
X93472000Y-131042500D03*
%TD*%
%TO.C,C62*%
X116332000Y-119037500D03*
X116332000Y-116962500D03*
%TD*%
D15*
%TO.C,R112*%
X159766000Y-54594000D03*
X159766000Y-52594000D03*
%TD*%
D21*
%TO.C,C83*%
X171196000Y-134133500D03*
X171196000Y-132058500D03*
%TD*%
D24*
%TO.C,D2*%
X100936000Y-68326000D03*
X94136000Y-68326000D03*
%TD*%
D16*
%TO.C,J25*%
X156912000Y-75722000D03*
%TD*%
D20*
%TO.C,C30*%
X124989500Y-115570000D03*
X122914500Y-115570000D03*
%TD*%
D19*
%TO.C,R120*%
X163814000Y-45212000D03*
X161814000Y-45212000D03*
%TD*%
D15*
%TO.C,R104*%
X164600000Y-87344000D03*
X164600000Y-85344000D03*
%TD*%
D22*
%TO.C,C46*%
X199898000Y-98530500D03*
X199898000Y-100605500D03*
%TD*%
D15*
%TO.C,R93*%
X118364000Y-132064000D03*
X118364000Y-130064000D03*
%TD*%
D16*
%TO.C,J33*%
X206912000Y-63722000D03*
%TD*%
D23*
%TO.C,R101*%
X164592000Y-69104000D03*
X164592000Y-71104000D03*
%TD*%
D15*
%TO.C,R13*%
X68072000Y-132064000D03*
X68072000Y-130064000D03*
%TD*%
D16*
%TO.C,J28*%
X172812000Y-87722000D03*
%TD*%
%TO.C,J21*%
X122812000Y-87722000D03*
%TD*%
D19*
%TO.C,R83*%
X210042000Y-124968000D03*
X208042000Y-124968000D03*
%TD*%
D18*
%TO.C,C61*%
X122914500Y-117856000D03*
X124989500Y-117856000D03*
%TD*%
D17*
%TO.C,R19*%
X72914000Y-120396000D03*
X74914000Y-120396000D03*
%TD*%
D25*
%TO.C,R48*%
X124486000Y-93726000D03*
X121386000Y-93726000D03*
%TD*%
D18*
%TO.C,C7*%
X79226500Y-127508000D03*
X81301500Y-127508000D03*
%TD*%
D21*
%TO.C,C79*%
X120904000Y-134133500D03*
X120904000Y-132058500D03*
%TD*%
D18*
%TO.C,C77*%
X129264500Y-127508000D03*
X131339500Y-127508000D03*
%TD*%
D17*
%TO.C,R95*%
X123714000Y-128524000D03*
X125714000Y-128524000D03*
%TD*%
D21*
%TO.C,C45*%
X202692000Y-100605500D03*
X202692000Y-98530500D03*
%TD*%
D23*
%TO.C,R81*%
X214122000Y-121000000D03*
X214122000Y-123000000D03*
%TD*%
D18*
%TO.C,C94*%
X91545500Y-147955000D03*
X93620500Y-147955000D03*
%TD*%
D24*
%TO.C,D28*%
X199996000Y-75692000D03*
X193196000Y-75692000D03*
%TD*%
D21*
%TO.C,C80*%
X143510000Y-133117500D03*
X143510000Y-131042500D03*
%TD*%
D24*
%TO.C,D27*%
X200000000Y-68400000D03*
X193200000Y-68400000D03*
%TD*%
D19*
%TO.C,R82*%
X210000000Y-127200000D03*
X208000000Y-127200000D03*
%TD*%
D16*
%TO.C,J18*%
X106912000Y-75722000D03*
%TD*%
D20*
%TO.C,C72*%
X203637500Y-117856000D03*
X201562500Y-117856000D03*
%TD*%
D19*
%TO.C,R66*%
X124952000Y-124968000D03*
X122952000Y-124968000D03*
%TD*%
D22*
%TO.C,C38*%
X115570000Y-99546500D03*
X115570000Y-101621500D03*
%TD*%
%TO.C,C98*%
X138684000Y-80242500D03*
X138684000Y-82317500D03*
%TD*%
%TO.C,C36*%
X149606000Y-98530500D03*
X149606000Y-100605500D03*
%TD*%
D19*
%TO.C,R107*%
X206994000Y-51054000D03*
X204994000Y-51054000D03*
%TD*%
D23*
%TO.C,R102*%
X164600000Y-76200000D03*
X164600000Y-78200000D03*
%TD*%
D15*
%TO.C,R113*%
X192024000Y-41894000D03*
X192024000Y-39894000D03*
%TD*%
D21*
%TO.C,C84*%
X193675000Y-133117500D03*
X193675000Y-131042500D03*
%TD*%
D25*
%TO.C,R64*%
X174524000Y-93980000D03*
X171424000Y-93980000D03*
%TD*%
D24*
%TO.C,D21*%
X150212000Y-68326000D03*
X143412000Y-68326000D03*
%TD*%
D21*
%TO.C,C12*%
X65000000Y-119237500D03*
X65000000Y-117162500D03*
%TD*%
%TO.C,C21*%
X102600000Y-100605500D03*
X102600000Y-98530500D03*
%TD*%
D25*
%TO.C,R32*%
X74448000Y-93726000D03*
X71348000Y-93726000D03*
%TD*%
D19*
%TO.C,R23*%
X109966000Y-124968000D03*
X107966000Y-124968000D03*
%TD*%
%TO.C,R110*%
X162200000Y-56800000D03*
X160200000Y-56800000D03*
%TD*%
D21*
%TO.C,C4*%
X107400000Y-119037500D03*
X107400000Y-116962500D03*
%TD*%
D23*
%TO.C,R21*%
X114046000Y-121000000D03*
X114046000Y-123000000D03*
%TD*%
D20*
%TO.C,C29*%
X175027500Y-115570000D03*
X172952500Y-115570000D03*
%TD*%
D18*
%TO.C,C96*%
X131042500Y-86106000D03*
X133117500Y-86106000D03*
%TD*%
D16*
%TO.C,J30*%
X206912000Y-99722000D03*
%TD*%
D17*
%TO.C,R128*%
X65600000Y-128000000D03*
X67600000Y-128000000D03*
%TD*%
D16*
%TO.C,J22*%
X156912000Y-111722000D03*
%TD*%
D17*
%TO.C,R77*%
X177054000Y-123825000D03*
X179054000Y-123825000D03*
%TD*%
D19*
%TO.C,R72*%
X153908000Y-120396000D03*
X151908000Y-120396000D03*
%TD*%
D21*
%TO.C,C47*%
X168402000Y-101367500D03*
X168402000Y-99292500D03*
%TD*%
D16*
%TO.C,J24*%
X156912000Y-87722000D03*
%TD*%
D24*
%TO.C,D22*%
X150212000Y-75692000D03*
X143412000Y-75692000D03*
%TD*%
D15*
%TO.C,R98*%
X216408000Y-60182000D03*
X216408000Y-58182000D03*
%TD*%
D17*
%TO.C,R115*%
X202200000Y-45974000D03*
X204200000Y-45974000D03*
%TD*%
D18*
%TO.C,C95*%
X101070500Y-147955000D03*
X103145500Y-147955000D03*
%TD*%
D26*
%TO.C,R31*%
X105384000Y-81534000D03*
X108484000Y-81534000D03*
%TD*%
D16*
%TO.C,J13*%
X72812000Y-99722000D03*
%TD*%
D15*
%TO.C,R133*%
X168402000Y-132064000D03*
X168402000Y-130064000D03*
%TD*%
%TO.C,R14*%
X65532000Y-132064000D03*
X65532000Y-130064000D03*
%TD*%
D16*
%TO.C,J14*%
X72812000Y-87722000D03*
%TD*%
D19*
%TO.C,R71*%
X159750000Y-124968000D03*
X157750000Y-124968000D03*
%TD*%
D15*
%TO.C,R134*%
X165862000Y-132064000D03*
X165862000Y-130064000D03*
%TD*%
D21*
%TO.C,C86*%
X194564000Y-41931500D03*
X194564000Y-39856500D03*
%TD*%
D17*
%TO.C,R79*%
X172990000Y-120396000D03*
X174990000Y-120396000D03*
%TD*%
D24*
%TO.C,D6*%
X100936000Y-75692000D03*
X94136000Y-75692000D03*
%TD*%
D19*
%TO.C,R78*%
X174990000Y-124968000D03*
X172990000Y-124968000D03*
%TD*%
D23*
%TO.C,R80*%
X166200000Y-121000000D03*
X166200000Y-123000000D03*
%TD*%
D19*
%TO.C,R24*%
X104124000Y-120396000D03*
X102124000Y-120396000D03*
%TD*%
D21*
%TO.C,C13*%
X114046000Y-119037500D03*
X114046000Y-116962500D03*
%TD*%
D16*
%TO.C,J32*%
X206912000Y-75722000D03*
%TD*%
D23*
%TO.C,R68*%
X116332000Y-121000000D03*
X116332000Y-123000000D03*
%TD*%
D18*
%TO.C,C81*%
X179556500Y-127508000D03*
X181631500Y-127508000D03*
%TD*%
D20*
%TO.C,C93*%
X101240500Y-137287000D03*
X99165500Y-137287000D03*
%TD*%
D16*
%TO.C,J20*%
X122812000Y-99722000D03*
%TD*%
D15*
%TO.C,R106*%
X164592000Y-66532000D03*
X164592000Y-64532000D03*
%TD*%
D16*
%TO.C,J31*%
X206912000Y-87722000D03*
%TD*%
D21*
%TO.C,C39*%
X207600000Y-119037500D03*
X207600000Y-116962500D03*
%TD*%
%TO.C,C37*%
X118364000Y-101621500D03*
X118364000Y-99546500D03*
%TD*%
D20*
%TO.C,C64*%
X153945500Y-117856000D03*
X151870500Y-117856000D03*
%TD*%
D19*
%TO.C,R84*%
X203600000Y-120396000D03*
X201600000Y-120396000D03*
%TD*%
D21*
%TO.C,C40*%
X157200000Y-119037500D03*
X157200000Y-116962500D03*
%TD*%
D22*
%TO.C,C48*%
X165608000Y-99292500D03*
X165608000Y-101367500D03*
%TD*%
D15*
%TO.C,R108*%
X164600000Y-59600000D03*
X164600000Y-57600000D03*
%TD*%
%TO.C,R141*%
X132842000Y-104124000D03*
X132842000Y-102124000D03*
%TD*%
D16*
%TO.C,J16*%
X106912000Y-99722000D03*
%TD*%
D23*
%TO.C,R103*%
X164600000Y-80772000D03*
X164600000Y-82772000D03*
%TD*%
D19*
%TO.C,R70*%
X159800000Y-127200000D03*
X157800000Y-127200000D03*
%TD*%
D16*
%TO.C,J29*%
X206912000Y-111722000D03*
%TD*%
D27*
%TO.C,D52*%
X101092000Y-140121000D03*
X102362000Y-140121000D03*
X103632000Y-140121000D03*
X104902000Y-140121000D03*
X106172000Y-140121000D03*
X107442000Y-140121000D03*
X108712000Y-140121000D03*
X109982000Y-140121000D03*
X109982000Y-145121000D03*
X108712000Y-145121000D03*
X107442000Y-145121000D03*
X106172000Y-145121000D03*
X104902000Y-145121000D03*
X103632000Y-145121000D03*
X102362000Y-145121000D03*
X101092000Y-145121000D03*
%TD*%
D21*
%TO.C,C27*%
X68580000Y-101621500D03*
X68580000Y-99546500D03*
%TD*%
D22*
%TO.C,C97*%
X137160000Y-85068500D03*
X137160000Y-87143500D03*
%TD*%
D15*
%TO.C,R99*%
X216408000Y-55864000D03*
X216408000Y-53864000D03*
%TD*%
D18*
%TO.C,C100*%
X153140500Y-130302000D03*
X155215500Y-130302000D03*
%TD*%
D15*
%TO.C,R131*%
X163322000Y-132064000D03*
X163322000Y-130064000D03*
%TD*%
D17*
%TO.C,R15*%
X73676000Y-128524000D03*
X75676000Y-128524000D03*
%TD*%
D26*
%TO.C,R63*%
X205460000Y-81788000D03*
X208560000Y-81788000D03*
%TD*%
D17*
%TO.C,R100*%
X213630000Y-51054000D03*
X215630000Y-51054000D03*
%TD*%
D15*
%TO.C,R116*%
X159766000Y-50022000D03*
X159766000Y-48022000D03*
%TD*%
D17*
%TO.C,R65*%
X127016000Y-123952000D03*
X129016000Y-123952000D03*
%TD*%
D28*
%TO.C,D51*%
X91567000Y-140146000D03*
X92837000Y-140146000D03*
X94107000Y-140146000D03*
X95377000Y-140146000D03*
X96647000Y-140146000D03*
X97917000Y-140146000D03*
X99187000Y-140146000D03*
X99187000Y-145096000D03*
X97917000Y-145096000D03*
X96647000Y-145096000D03*
X95377000Y-145096000D03*
X94107000Y-145096000D03*
X92837000Y-145096000D03*
X91567000Y-145096000D03*
%TD*%
D21*
%TO.C,C63*%
X164000000Y-119037500D03*
X164000000Y-116962500D03*
%TD*%
D19*
%TO.C,R105*%
X211312000Y-51054000D03*
X209312000Y-51054000D03*
%TD*%
D17*
%TO.C,R92*%
X115800000Y-128000000D03*
X117800000Y-128000000D03*
%TD*%
%TO.C,R135*%
X174514000Y-128524000D03*
X176514000Y-128524000D03*
%TD*%
D19*
%TO.C,R18*%
X74914000Y-124968000D03*
X72914000Y-124968000D03*
%TD*%
D26*
%TO.C,R47*%
X155422000Y-81534000D03*
X158522000Y-81534000D03*
%TD*%
D22*
%TO.C,C22*%
X99822000Y-98530500D03*
X99822000Y-100605500D03*
%TD*%
D19*
%TO.C,R22*%
X110000000Y-127200000D03*
X108000000Y-127200000D03*
%TD*%
D15*
%TO.C,R91*%
X113284000Y-132064000D03*
X113284000Y-130064000D03*
%TD*%
D16*
%TO.C,J15*%
X106912000Y-111722000D03*
%TD*%
D20*
%TO.C,C14*%
X104161500Y-117856000D03*
X102086500Y-117856000D03*
%TD*%
D23*
%TO.C,R114*%
X197104000Y-39894000D03*
X197104000Y-41894000D03*
%TD*%
%TO.C,R20*%
X65000000Y-121200000D03*
X65000000Y-123200000D03*
%TD*%
M02*
