%TF.GenerationSoftware,KiCad,Pcbnew,(6.0.1)*%
%TF.CreationDate,2023-02-16T13:56:36+03:00*%
%TF.ProjectId,Driver_SKiM459GD12E4 V2,44726976-6572-45f5-934b-694d34353947,rev?*%
%TF.SameCoordinates,Original*%
%TF.FileFunction,Soldermask,Top*%
%TF.FilePolarity,Negative*%
%FSLAX46Y46*%
G04 Gerber Fmt 4.6, Leading zero omitted, Abs format (unit mm)*
G04 Created by KiCad (PCBNEW (6.0.1)) date 2023-02-16 13:56:36*
%MOMM*%
%LPD*%
G01*
G04 APERTURE LIST*
G04 Aperture macros list*
%AMRoundRect*
0 Rectangle with rounded corners*
0 $1 Rounding radius*
0 $2 $3 $4 $5 $6 $7 $8 $9 X,Y pos of 4 corners*
0 Add a 4 corners polygon primitive as box body*
4,1,4,$2,$3,$4,$5,$6,$7,$8,$9,$2,$3,0*
0 Add four circle primitives for the rounded corners*
1,1,$1+$1,$2,$3*
1,1,$1+$1,$4,$5*
1,1,$1+$1,$6,$7*
1,1,$1+$1,$8,$9*
0 Add four rect primitives between the rounded corners*
20,1,$1+$1,$2,$3,$4,$5,0*
20,1,$1+$1,$4,$5,$6,$7,0*
20,1,$1+$1,$6,$7,$8,$9,0*
20,1,$1+$1,$8,$9,$2,$3,0*%
G04 Aperture macros list end*
%ADD10RoundRect,0.249999X1.425001X-0.450001X1.425001X0.450001X-1.425001X0.450001X-1.425001X-0.450001X0*%
%ADD11RoundRect,0.250000X-1.075000X0.400000X-1.075000X-0.400000X1.075000X-0.400000X1.075000X0.400000X0*%
%ADD12R,2.997200X1.300000*%
%ADD13C,7.000000*%
%ADD14C,5.000000*%
%ADD15RoundRect,0.250000X-0.337500X-0.475000X0.337500X-0.475000X0.337500X0.475000X-0.337500X0.475000X0*%
%ADD16R,1.200000X2.200000*%
%ADD17R,5.800000X6.400000*%
%ADD18RoundRect,0.250000X-0.412500X-1.100000X0.412500X-1.100000X0.412500X1.100000X-0.412500X1.100000X0*%
%ADD19RoundRect,0.150000X-0.150000X0.825000X-0.150000X-0.825000X0.150000X-0.825000X0.150000X0.825000X0*%
%ADD20RoundRect,0.250000X0.412500X1.100000X-0.412500X1.100000X-0.412500X-1.100000X0.412500X-1.100000X0*%
%ADD21RoundRect,0.250000X-0.625000X0.400000X-0.625000X-0.400000X0.625000X-0.400000X0.625000X0.400000X0*%
%ADD22RoundRect,0.250000X0.475000X-0.337500X0.475000X0.337500X-0.475000X0.337500X-0.475000X-0.337500X0*%
%ADD23R,2.500000X2.300000*%
%ADD24RoundRect,0.250000X0.450000X-0.350000X0.450000X0.350000X-0.450000X0.350000X-0.450000X-0.350000X0*%
%ADD25RoundRect,0.250000X-0.350000X-0.450000X0.350000X-0.450000X0.350000X0.450000X-0.350000X0.450000X0*%
%ADD26RoundRect,0.250000X0.337500X0.475000X-0.337500X0.475000X-0.337500X-0.475000X0.337500X-0.475000X0*%
%ADD27RoundRect,0.150000X0.150000X-0.875000X0.150000X0.875000X-0.150000X0.875000X-0.150000X-0.875000X0*%
%ADD28C,1.500000*%
%ADD29RoundRect,0.250000X-0.450000X0.350000X-0.450000X-0.350000X0.450000X-0.350000X0.450000X0.350000X0*%
%ADD30R,0.650000X1.560000*%
%ADD31RoundRect,0.250000X-0.325000X-0.450000X0.325000X-0.450000X0.325000X0.450000X-0.325000X0.450000X0*%
%ADD32RoundRect,0.250000X0.350000X0.450000X-0.350000X0.450000X-0.350000X-0.450000X0.350000X-0.450000X0*%
%ADD33RoundRect,0.150000X0.150000X-0.825000X0.150000X0.825000X-0.150000X0.825000X-0.150000X-0.825000X0*%
%ADD34R,1.200000X0.900000*%
%ADD35RoundRect,0.250000X-0.475000X0.337500X-0.475000X-0.337500X0.475000X-0.337500X0.475000X0.337500X0*%
%ADD36RoundRect,0.250000X0.412500X0.650000X-0.412500X0.650000X-0.412500X-0.650000X0.412500X-0.650000X0*%
%ADD37R,2.300000X1.500000*%
%ADD38O,2.300000X1.500000*%
%ADD39RoundRect,0.150000X0.512500X0.150000X-0.512500X0.150000X-0.512500X-0.150000X0.512500X-0.150000X0*%
%ADD40RoundRect,0.150000X0.725000X0.150000X-0.725000X0.150000X-0.725000X-0.150000X0.725000X-0.150000X0*%
G04 APERTURE END LIST*
D10*
%TO.C,R148*%
X183261000Y-75440000D03*
X183261000Y-69340000D03*
%TD*%
%TO.C,R147*%
X132969000Y-75440000D03*
X132969000Y-69340000D03*
%TD*%
%TO.C,R146*%
X82296000Y-75440000D03*
X82296000Y-69340000D03*
%TD*%
%TO.C,R145*%
X204724000Y-75440000D03*
X204724000Y-69340000D03*
%TD*%
%TO.C,R144*%
X154559000Y-75440000D03*
X154559000Y-69340000D03*
%TD*%
%TO.C,R143*%
X104013000Y-75440000D03*
X104013000Y-69340000D03*
%TD*%
D11*
%TO.C,R54*%
X194056000Y-70840000D03*
X194056000Y-73940000D03*
%TD*%
%TO.C,R53*%
X189230000Y-70840000D03*
X189230000Y-73940000D03*
%TD*%
%TO.C,R52*%
X173038000Y-70840000D03*
X173038000Y-73940000D03*
%TD*%
%TO.C,R51*%
X168148000Y-70840000D03*
X168148000Y-73940000D03*
%TD*%
%TO.C,R38*%
X143764000Y-70840000D03*
X143764000Y-73940000D03*
%TD*%
%TO.C,R37*%
X138938000Y-70840000D03*
X138938000Y-73940000D03*
%TD*%
%TO.C,R36*%
X122682000Y-70840000D03*
X122682000Y-73940000D03*
%TD*%
%TO.C,R35*%
X117856000Y-70840000D03*
X117856000Y-73940000D03*
%TD*%
%TO.C,R9*%
X72136000Y-70840000D03*
X72136000Y-73940000D03*
%TD*%
%TO.C,R8*%
X67818000Y-70840000D03*
X67818000Y-73940000D03*
%TD*%
%TO.C,R3*%
X93726000Y-70840000D03*
X93726000Y-73940000D03*
%TD*%
%TO.C,R2*%
X90170000Y-70840000D03*
X90170000Y-73940000D03*
%TD*%
D12*
%TO.C,J1*%
X222255800Y-146177000D03*
X226755801Y-144907000D03*
X222255800Y-143637000D03*
X226755801Y-142367000D03*
X222255800Y-141097000D03*
X226755801Y-139827000D03*
X222255800Y-138557000D03*
X226755801Y-137287000D03*
X222255800Y-136017000D03*
X226755801Y-134747000D03*
X222255800Y-133477000D03*
X226755801Y-132207000D03*
X222255800Y-130937000D03*
X226755801Y-129667000D03*
X222255800Y-128397000D03*
X226755801Y-127127000D03*
X222255800Y-125857000D03*
X226755801Y-124587000D03*
X222255800Y-123317000D03*
X226755801Y-122047000D03*
%TD*%
D13*
%TO.C,H12*%
X62862000Y-143214000D03*
%TD*%
%TO.C,H11*%
X216862000Y-143214000D03*
%TD*%
D14*
%TO.C,H10*%
X216862000Y-93214000D03*
%TD*%
%TO.C,H9*%
X62862000Y-43214000D03*
%TD*%
%TO.C,H8*%
X114862000Y-135464000D03*
%TD*%
%TO.C,H7*%
X114862000Y-50964000D03*
%TD*%
%TO.C,H6*%
X164862000Y-135464000D03*
%TD*%
%TO.C,H5*%
X216862000Y-43214000D03*
%TD*%
%TO.C,H4*%
X62862000Y-93214000D03*
%TD*%
%TO.C,H3*%
X164862000Y-93214000D03*
%TD*%
%TO.C,H2*%
X114862000Y-93214000D03*
%TD*%
%TO.C,H1*%
X164862000Y-50964000D03*
%TD*%
D15*
%TO.C,C43*%
X208512500Y-96012000D03*
X210587500Y-96012000D03*
%TD*%
D16*
%TO.C,Q11*%
X168154000Y-65414000D03*
D17*
X170434000Y-59114000D03*
D16*
X172714000Y-65414000D03*
%TD*%
D18*
%TO.C,C54*%
X144449000Y-92710000D03*
X147574000Y-92710000D03*
%TD*%
D19*
%TO.C,D45*%
X180848000Y-130113000D03*
X179578000Y-130113000D03*
X178308000Y-130113000D03*
X177038000Y-130113000D03*
X175768000Y-130113000D03*
X174498000Y-130113000D03*
X173228000Y-130113000D03*
X173228000Y-135063000D03*
X174498000Y-135063000D03*
X175768000Y-135063000D03*
X177038000Y-135063000D03*
X178308000Y-135063000D03*
X179578000Y-135063000D03*
X180848000Y-135063000D03*
%TD*%
D20*
%TO.C,C55*%
X194602500Y-118872000D03*
X191477500Y-118872000D03*
%TD*%
D21*
%TO.C,R43*%
X122428000Y-80238000D03*
X122428000Y-83338000D03*
%TD*%
D22*
%TO.C,C65*%
X144526000Y-126259500D03*
X144526000Y-124184500D03*
%TD*%
D23*
%TO.C,D50*%
X207654000Y-50546000D03*
X211954000Y-50546000D03*
%TD*%
D24*
%TO.C,R26*%
X92202000Y-126243500D03*
X92202000Y-124243500D03*
%TD*%
D21*
%TO.C,R41*%
X157988000Y-80238000D03*
X157988000Y-83338000D03*
%TD*%
D25*
%TO.C,R138*%
X133080000Y-88646000D03*
X131080000Y-88646000D03*
%TD*%
D26*
%TO.C,C42*%
X210079500Y-120142000D03*
X208004500Y-120142000D03*
%TD*%
D22*
%TO.C,C15*%
X94488000Y-126281000D03*
X94488000Y-124206000D03*
%TD*%
D18*
%TO.C,C53*%
X139183000Y-92710000D03*
X142308000Y-92710000D03*
%TD*%
D16*
%TO.C,Q10*%
X189236000Y-65414000D03*
D17*
X191516000Y-59114000D03*
D16*
X193796000Y-65414000D03*
%TD*%
D27*
%TO.C,D1*%
X100711000Y-113362000D03*
X101981000Y-113362000D03*
X103251000Y-113362000D03*
X104521000Y-113362000D03*
X105791000Y-113362000D03*
X107061000Y-113362000D03*
X108331000Y-113362000D03*
X109601000Y-113362000D03*
X109601000Y-104062000D03*
X108331000Y-104062000D03*
X107061000Y-104062000D03*
X105791000Y-104062000D03*
X104521000Y-104062000D03*
X103251000Y-104062000D03*
X101981000Y-104062000D03*
X100711000Y-104062000D03*
%TD*%
D28*
%TO.C,D16*%
X90754000Y-114808000D03*
X90754000Y-112268000D03*
X90754000Y-109728000D03*
X90754000Y-102108000D03*
X90754000Y-99568000D03*
X90754000Y-97028000D03*
%TD*%
D29*
%TO.C,R39*%
X122428000Y-85614000D03*
X122428000Y-87614000D03*
%TD*%
D19*
%TO.C,D14*%
X92202000Y-130048000D03*
X90932000Y-130048000D03*
X89662000Y-130048000D03*
X88392000Y-130048000D03*
X87122000Y-130048000D03*
X85852000Y-130048000D03*
X84582000Y-130048000D03*
X84582000Y-134998000D03*
X85852000Y-134998000D03*
X87122000Y-134998000D03*
X88392000Y-134998000D03*
X89662000Y-134998000D03*
X90932000Y-134998000D03*
X92202000Y-134998000D03*
%TD*%
D30*
%TO.C,D44*%
X169860000Y-131492000D03*
X168910000Y-131492000D03*
X167960000Y-131492000D03*
X167960000Y-134192000D03*
X169860000Y-134192000D03*
%TD*%
D25*
%TO.C,R122*%
X201184000Y-46990000D03*
X203184000Y-46990000D03*
%TD*%
D31*
%TO.C,D11*%
X72889000Y-124968000D03*
X74939000Y-124968000D03*
%TD*%
D18*
%TO.C,C23*%
X78193500Y-92710000D03*
X81318500Y-92710000D03*
%TD*%
D16*
%TO.C,Q1*%
X97034000Y-65482000D03*
D17*
X99314000Y-59182000D03*
D16*
X101594000Y-65482000D03*
%TD*%
D24*
%TO.C,R27*%
X87630000Y-126243500D03*
X87630000Y-124243500D03*
%TD*%
%TO.C,R88*%
X183134000Y-126200500D03*
X183134000Y-124200500D03*
%TD*%
D18*
%TO.C,C60*%
X183642000Y-92710000D03*
X186767000Y-92710000D03*
%TD*%
D20*
%TO.C,C49*%
X133858000Y-118872000D03*
X130733000Y-118872000D03*
%TD*%
D26*
%TO.C,C5*%
X74973000Y-120104500D03*
X72898000Y-120104500D03*
%TD*%
D28*
%TO.C,D15*%
X80086000Y-114808000D03*
X80086000Y-112268000D03*
X80086000Y-109728000D03*
X80086000Y-102108000D03*
X80086000Y-99568000D03*
X80086000Y-97028000D03*
%TD*%
D16*
%TO.C,Q4*%
X75874000Y-65414000D03*
D17*
X78154000Y-59114000D03*
D16*
X80434000Y-65414000D03*
%TD*%
D31*
%TO.C,D12*%
X107941000Y-122682000D03*
X109991000Y-122682000D03*
%TD*%
D32*
%TO.C,R139*%
X133080000Y-86106000D03*
X131080000Y-86106000D03*
%TD*%
D25*
%TO.C,R142*%
X151400000Y-126492000D03*
X153400000Y-126492000D03*
%TD*%
D15*
%TO.C,C88*%
X191240500Y-44196000D03*
X193315500Y-44196000D03*
%TD*%
D21*
%TO.C,R12*%
X72390000Y-80238000D03*
X72390000Y-83338000D03*
%TD*%
D22*
%TO.C,C90*%
X200914000Y-51583500D03*
X200914000Y-49508500D03*
%TD*%
D18*
%TO.C,C58*%
X194525500Y-92710000D03*
X197650500Y-92710000D03*
%TD*%
D26*
%TO.C,C6*%
X74189500Y-99568000D03*
X72114500Y-99568000D03*
%TD*%
D22*
%TO.C,C16*%
X80772000Y-126259500D03*
X80772000Y-124184500D03*
%TD*%
D24*
%TO.C,R86*%
X192278000Y-126200500D03*
X192278000Y-124200500D03*
%TD*%
D32*
%TO.C,R126*%
X97504000Y-130556000D03*
X95504000Y-130556000D03*
%TD*%
D25*
%TO.C,R89*%
X145542000Y-133096000D03*
X147542000Y-133096000D03*
%TD*%
%TO.C,R129*%
X195596000Y-133096000D03*
X197596000Y-133096000D03*
%TD*%
%TO.C,R125*%
X95504000Y-133096000D03*
X97504000Y-133096000D03*
%TD*%
D22*
%TO.C,C68*%
X135382000Y-126259500D03*
X135382000Y-124184500D03*
%TD*%
D25*
%TO.C,R60*%
X208550000Y-98298000D03*
X210550000Y-98298000D03*
%TD*%
D22*
%TO.C,C66*%
X130810000Y-126259500D03*
X130810000Y-124184500D03*
%TD*%
D32*
%TO.C,R1*%
X109966000Y-117856000D03*
X107966000Y-117856000D03*
%TD*%
D16*
%TO.C,Q7*%
X117861000Y-65585000D03*
D17*
X120141000Y-59285000D03*
D16*
X122421000Y-65585000D03*
%TD*%
D31*
%TO.C,D40*%
X208017000Y-122682000D03*
X210067000Y-122682000D03*
%TD*%
D24*
%TO.C,R118*%
X198882000Y-41894000D03*
X198882000Y-39894000D03*
%TD*%
D15*
%TO.C,C33*%
X157988000Y-96012000D03*
X160063000Y-96012000D03*
%TD*%
D21*
%TO.C,R59*%
X172212000Y-80238000D03*
X172212000Y-83338000D03*
%TD*%
D33*
%TO.C,U4*%
X152273000Y-135317000D03*
X153543000Y-135317000D03*
X154813000Y-135317000D03*
X156083000Y-135317000D03*
X156083000Y-130367000D03*
X154813000Y-130367000D03*
X153543000Y-130367000D03*
X152273000Y-130367000D03*
%TD*%
D27*
%TO.C,D18*%
X150495000Y-113362000D03*
X151765000Y-113362000D03*
X153035000Y-113362000D03*
X154305000Y-113362000D03*
X155575000Y-113362000D03*
X156845000Y-113362000D03*
X158115000Y-113362000D03*
X159385000Y-113362000D03*
X159385000Y-104062000D03*
X158115000Y-104062000D03*
X156845000Y-104062000D03*
X155575000Y-104062000D03*
X154305000Y-104062000D03*
X153035000Y-104062000D03*
X151765000Y-104062000D03*
X150495000Y-104062000D03*
%TD*%
%TO.C,D4*%
X65786000Y-113453750D03*
X67056000Y-113453750D03*
X68326000Y-113453750D03*
X69596000Y-113453750D03*
X70866000Y-113453750D03*
X72136000Y-113453750D03*
X73406000Y-113453750D03*
X74676000Y-113453750D03*
X74676000Y-104153750D03*
X73406000Y-104153750D03*
X72136000Y-104153750D03*
X70866000Y-104153750D03*
X69596000Y-104153750D03*
X68326000Y-104153750D03*
X67056000Y-104153750D03*
X65786000Y-104153750D03*
%TD*%
D20*
%TO.C,C19*%
X83858500Y-118872000D03*
X80733500Y-118872000D03*
%TD*%
D21*
%TO.C,R4*%
X108204000Y-80238000D03*
X108204000Y-83338000D03*
%TD*%
D16*
%TO.C,Q12*%
X176282000Y-65414000D03*
D17*
X178562000Y-59114000D03*
D16*
X180842000Y-65414000D03*
%TD*%
D32*
%TO.C,R33*%
X124936000Y-117856000D03*
X122936000Y-117856000D03*
%TD*%
D26*
%TO.C,C44*%
X174265500Y-99568000D03*
X172190500Y-99568000D03*
%TD*%
D31*
%TO.C,D38*%
X172965000Y-122682000D03*
X175015000Y-122682000D03*
%TD*%
D18*
%TO.C,C52*%
X133565500Y-92710000D03*
X136690500Y-92710000D03*
%TD*%
D34*
%TO.C,D3*%
X108204000Y-90298000D03*
X108204000Y-93598000D03*
%TD*%
D16*
%TO.C,Q2*%
X88906000Y-65482000D03*
D17*
X91186000Y-59182000D03*
D16*
X93466000Y-65482000D03*
%TD*%
D18*
%TO.C,C24*%
X83566000Y-92710000D03*
X86691000Y-92710000D03*
%TD*%
D10*
%TO.C,R30*%
X77978000Y-75440000D03*
X77978000Y-69340000D03*
%TD*%
D24*
%TO.C,R76*%
X133096000Y-126222000D03*
X133096000Y-124222000D03*
%TD*%
D21*
%TO.C,R57*%
X208534000Y-80238000D03*
X208534000Y-83338000D03*
%TD*%
D18*
%TO.C,C59*%
X178269500Y-92710000D03*
X181394500Y-92710000D03*
%TD*%
D24*
%TO.C,R87*%
X187706000Y-126200500D03*
X187706000Y-124200500D03*
%TD*%
D16*
%TO.C,Q8*%
X125988000Y-65550000D03*
D17*
X128268000Y-59250000D03*
D16*
X130548000Y-65550000D03*
%TD*%
D18*
%TO.C,C26*%
X94488000Y-92710000D03*
X97613000Y-92710000D03*
%TD*%
%TO.C,C92*%
X217131500Y-114300000D03*
X220256500Y-114300000D03*
%TD*%
D35*
%TO.C,C8*%
X62992000Y-125962500D03*
X62992000Y-128037500D03*
%TD*%
D25*
%TO.C,R6*%
X108220000Y-98298000D03*
X110220000Y-98298000D03*
%TD*%
D16*
%TO.C,Q5*%
X146562000Y-65379000D03*
D17*
X148842000Y-59079000D03*
D16*
X151122000Y-65379000D03*
%TD*%
D22*
%TO.C,C75*%
X189992000Y-126238000D03*
X189992000Y-124163000D03*
%TD*%
D31*
%TO.C,D13*%
X107941000Y-124968000D03*
X109991000Y-124968000D03*
%TD*%
D29*
%TO.C,R123*%
X185674000Y-49546000D03*
X185674000Y-51546000D03*
%TD*%
D34*
%TO.C,D26*%
X172212000Y-90298000D03*
X172212000Y-93598000D03*
%TD*%
D20*
%TO.C,C20*%
X94526500Y-118872000D03*
X91401500Y-118872000D03*
%TD*%
D34*
%TO.C,D5*%
X72390000Y-90298000D03*
X72390000Y-93598000D03*
%TD*%
D24*
%TO.C,R75*%
X137668000Y-126222000D03*
X137668000Y-124222000D03*
%TD*%
D10*
%TO.C,R61*%
X200406000Y-75440000D03*
X200406000Y-69340000D03*
%TD*%
%TO.C,R45*%
X150114000Y-75440000D03*
X150114000Y-69340000D03*
%TD*%
D16*
%TO.C,Q9*%
X196856000Y-65414000D03*
D17*
X199136000Y-59114000D03*
D16*
X201416000Y-65414000D03*
%TD*%
D20*
%TO.C,C50*%
X144310500Y-118872000D03*
X141185500Y-118872000D03*
%TD*%
D26*
%TO.C,C31*%
X125003500Y-120142000D03*
X122928500Y-120142000D03*
%TD*%
%TO.C,C34*%
X124227500Y-99568000D03*
X122152500Y-99568000D03*
%TD*%
D16*
%TO.C,Q3*%
X67824000Y-65414000D03*
D17*
X70104000Y-59114000D03*
D16*
X72384000Y-65414000D03*
%TD*%
D31*
%TO.C,D34*%
X122927000Y-124968000D03*
X124977000Y-124968000D03*
%TD*%
D24*
%TO.C,R25*%
X96774000Y-126243500D03*
X96774000Y-124243500D03*
%TD*%
D28*
%TO.C,D31*%
X190782000Y-114808000D03*
X190782000Y-112268000D03*
X190782000Y-109728000D03*
X190782000Y-102108000D03*
X190782000Y-99568000D03*
X190782000Y-97028000D03*
%TD*%
D32*
%TO.C,R7*%
X74935500Y-117818500D03*
X72935500Y-117818500D03*
%TD*%
D30*
%TO.C,D9*%
X119822000Y-131492000D03*
X118872000Y-131492000D03*
X117922000Y-131492000D03*
X117922000Y-134192000D03*
X119822000Y-134192000D03*
%TD*%
D28*
%TO.C,D32*%
X180162000Y-114808000D03*
X180162000Y-112268000D03*
X180162000Y-109728000D03*
X180162000Y-102108000D03*
X180162000Y-99568000D03*
X180162000Y-97028000D03*
%TD*%
D29*
%TO.C,R119*%
X190246000Y-39894000D03*
X190246000Y-41894000D03*
%TD*%
D34*
%TO.C,D25*%
X208534000Y-90298000D03*
X208534000Y-93598000D03*
%TD*%
D31*
%TO.C,D39*%
X172965000Y-124968000D03*
X175015000Y-124968000D03*
%TD*%
D32*
%TO.C,R49*%
X174990000Y-117856000D03*
X172990000Y-117856000D03*
%TD*%
D25*
%TO.C,R58*%
X174260000Y-96774000D03*
X176260000Y-96774000D03*
%TD*%
D31*
%TO.C,D41*%
X208017000Y-124968000D03*
X210067000Y-124968000D03*
%TD*%
D10*
%TO.C,R29*%
X99822000Y-75440000D03*
X99822000Y-69340000D03*
%TD*%
D25*
%TO.C,R44*%
X158004000Y-98298000D03*
X160004000Y-98298000D03*
%TD*%
D22*
%TO.C,C76*%
X185420000Y-126238000D03*
X185420000Y-124163000D03*
%TD*%
D19*
%TO.C,D37*%
X142240000Y-130113000D03*
X140970000Y-130113000D03*
X139700000Y-130113000D03*
X138430000Y-130113000D03*
X137160000Y-130113000D03*
X135890000Y-130113000D03*
X134620000Y-130113000D03*
X134620000Y-135063000D03*
X135890000Y-135063000D03*
X137160000Y-135063000D03*
X138430000Y-135063000D03*
X139700000Y-135063000D03*
X140970000Y-135063000D03*
X142240000Y-135063000D03*
%TD*%
D28*
%TO.C,D29*%
X130048000Y-114730000D03*
X130048000Y-112190000D03*
X130048000Y-109650000D03*
X130048000Y-102030000D03*
X130048000Y-99490000D03*
X130048000Y-96950000D03*
%TD*%
D29*
%TO.C,R40*%
X157988000Y-85614000D03*
X157988000Y-87614000D03*
%TD*%
D18*
%TO.C,C51*%
X128231500Y-92710000D03*
X131356500Y-92710000D03*
%TD*%
D31*
%TO.C,D33*%
X122927000Y-122682000D03*
X124977000Y-122682000D03*
%TD*%
D22*
%TO.C,C67*%
X139954000Y-126259500D03*
X139954000Y-124184500D03*
%TD*%
%TO.C,C73*%
X194564000Y-126238000D03*
X194564000Y-124163000D03*
%TD*%
D20*
%TO.C,C91*%
X226352500Y-114300000D03*
X223227500Y-114300000D03*
%TD*%
D18*
%TO.C,C25*%
X89154000Y-92710000D03*
X92279000Y-92710000D03*
%TD*%
D19*
%TO.C,D43*%
X130556000Y-130178000D03*
X129286000Y-130178000D03*
X128016000Y-130178000D03*
X126746000Y-130178000D03*
X125476000Y-130178000D03*
X124206000Y-130178000D03*
X122936000Y-130178000D03*
X122936000Y-135128000D03*
X124206000Y-135128000D03*
X125476000Y-135128000D03*
X126746000Y-135128000D03*
X128016000Y-135128000D03*
X129286000Y-135128000D03*
X130556000Y-135128000D03*
%TD*%
D24*
%TO.C,R85*%
X196850000Y-126184500D03*
X196850000Y-124184500D03*
%TD*%
D32*
%TO.C,R90*%
X147558000Y-130556000D03*
X145558000Y-130556000D03*
%TD*%
%TO.C,R34*%
X159750000Y-117856000D03*
X157750000Y-117856000D03*
%TD*%
D15*
%TO.C,C3*%
X108182500Y-96012000D03*
X110257500Y-96012000D03*
%TD*%
D26*
%TO.C,C41*%
X175027500Y-120142000D03*
X172952500Y-120142000D03*
%TD*%
D24*
%TO.C,R74*%
X142240000Y-126222000D03*
X142240000Y-124222000D03*
%TD*%
D31*
%TO.C,D36*%
X157725000Y-124968000D03*
X159775000Y-124968000D03*
%TD*%
D22*
%TO.C,C18*%
X85344000Y-126281000D03*
X85344000Y-124206000D03*
%TD*%
D18*
%TO.C,C57*%
X189191500Y-92710000D03*
X192316500Y-92710000D03*
%TD*%
D32*
%TO.C,R130*%
X197596000Y-130556000D03*
X195596000Y-130556000D03*
%TD*%
D23*
%TO.C,D49*%
X181728000Y-50292000D03*
X177428000Y-50292000D03*
%TD*%
D19*
%TO.C,D8*%
X80518000Y-130048000D03*
X79248000Y-130048000D03*
X77978000Y-130048000D03*
X76708000Y-130048000D03*
X75438000Y-130048000D03*
X74168000Y-130048000D03*
X72898000Y-130048000D03*
X72898000Y-134998000D03*
X74168000Y-134998000D03*
X75438000Y-134998000D03*
X76708000Y-134998000D03*
X77978000Y-134998000D03*
X79248000Y-134998000D03*
X80518000Y-134998000D03*
%TD*%
D31*
%TO.C,D10*%
X72889000Y-122682000D03*
X74939000Y-122682000D03*
%TD*%
D36*
%TO.C,C85*%
X196126500Y-41402000D03*
X193001500Y-41402000D03*
%TD*%
D10*
%TO.C,R62*%
X178816000Y-75440000D03*
X178816000Y-69340000D03*
%TD*%
D34*
%TO.C,D20*%
X122428000Y-90298000D03*
X122428000Y-93598000D03*
%TD*%
D24*
%TO.C,R136*%
X165862000Y-128000000D03*
X165862000Y-126000000D03*
%TD*%
D28*
%TO.C,D30*%
X140668000Y-114730000D03*
X140668000Y-112190000D03*
X140668000Y-109650000D03*
X140668000Y-102030000D03*
X140668000Y-99490000D03*
X140668000Y-96950000D03*
%TD*%
D32*
%TO.C,R121*%
X187944000Y-46990000D03*
X185944000Y-46990000D03*
%TD*%
D37*
%TO.C,U2*%
X224965500Y-108365000D03*
D38*
X224965500Y-105825000D03*
X224965500Y-103285000D03*
%TD*%
D32*
%TO.C,R50*%
X210042000Y-117856000D03*
X208042000Y-117856000D03*
%TD*%
D24*
%TO.C,R96*%
X115824000Y-128000000D03*
X115824000Y-126000000D03*
%TD*%
D15*
%TO.C,C87*%
X195812500Y-44196000D03*
X197887500Y-44196000D03*
%TD*%
D24*
%TO.C,R16*%
X65532000Y-128000000D03*
X65532000Y-126000000D03*
%TD*%
D29*
%TO.C,R55*%
X172212000Y-85614000D03*
X172212000Y-87614000D03*
%TD*%
D26*
%TO.C,C2*%
X110003500Y-120142000D03*
X107928500Y-120142000D03*
%TD*%
D30*
%TO.C,D7*%
X69022000Y-131173000D03*
X68072000Y-131173000D03*
X67122000Y-131173000D03*
X67122000Y-133873000D03*
X69022000Y-133873000D03*
%TD*%
D22*
%TO.C,C17*%
X89916000Y-126281000D03*
X89916000Y-124206000D03*
%TD*%
D10*
%TO.C,R46*%
X128524000Y-75440000D03*
X128524000Y-69340000D03*
%TD*%
D39*
%TO.C,U3*%
X134741500Y-82230000D03*
X134741500Y-81280000D03*
X134741500Y-80330000D03*
X132466500Y-80330000D03*
X132466500Y-82230000D03*
%TD*%
D22*
%TO.C,C74*%
X180848000Y-126238000D03*
X180848000Y-124163000D03*
%TD*%
D29*
%TO.C,R56*%
X208534000Y-85614000D03*
X208534000Y-87614000D03*
%TD*%
D31*
%TO.C,D35*%
X157725000Y-122682000D03*
X159775000Y-122682000D03*
%TD*%
D34*
%TO.C,D19*%
X157988000Y-90298000D03*
X157988000Y-93598000D03*
%TD*%
D24*
%TO.C,R73*%
X146812000Y-126222000D03*
X146812000Y-124222000D03*
%TD*%
D35*
%TO.C,C78*%
X113284000Y-125962500D03*
X113284000Y-128037500D03*
%TD*%
D29*
%TO.C,R10*%
X72390000Y-85614000D03*
X72390000Y-87614000D03*
%TD*%
%TO.C,R5*%
X108204000Y-85614000D03*
X108204000Y-87614000D03*
%TD*%
D25*
%TO.C,R42*%
X124222000Y-96774000D03*
X126222000Y-96774000D03*
%TD*%
D19*
%TO.C,D42*%
X192278000Y-130048000D03*
X191008000Y-130048000D03*
X189738000Y-130048000D03*
X188468000Y-130048000D03*
X187198000Y-130048000D03*
X185928000Y-130048000D03*
X184658000Y-130048000D03*
X184658000Y-134998000D03*
X185928000Y-134998000D03*
X187198000Y-134998000D03*
X188468000Y-134998000D03*
X189738000Y-134998000D03*
X191008000Y-134998000D03*
X192278000Y-134998000D03*
%TD*%
D25*
%TO.C,R11*%
X74184000Y-96774000D03*
X76184000Y-96774000D03*
%TD*%
D16*
%TO.C,Q6*%
X138942000Y-65379000D03*
D17*
X141222000Y-59079000D03*
D16*
X143502000Y-65379000D03*
%TD*%
D20*
%TO.C,C56*%
X183934500Y-118872000D03*
X180809500Y-118872000D03*
%TD*%
D40*
%TO.C,U1*%
X197139000Y-50927000D03*
X197139000Y-49657000D03*
X197139000Y-48387000D03*
X197139000Y-47117000D03*
X191989000Y-47117000D03*
X191989000Y-48387000D03*
X191989000Y-49657000D03*
X191989000Y-50927000D03*
%TD*%
D26*
%TO.C,C32*%
X159787500Y-120142000D03*
X157712500Y-120142000D03*
%TD*%
D27*
%TO.C,D23*%
X165735000Y-113362000D03*
X167005000Y-113362000D03*
X168275000Y-113362000D03*
X169545000Y-113362000D03*
X170815000Y-113362000D03*
X172085000Y-113362000D03*
X173355000Y-113362000D03*
X174625000Y-113362000D03*
X174625000Y-104062000D03*
X173355000Y-104062000D03*
X172085000Y-104062000D03*
X170815000Y-104062000D03*
X169545000Y-104062000D03*
X168275000Y-104062000D03*
X167005000Y-104062000D03*
X165735000Y-104062000D03*
%TD*%
D35*
%TO.C,C82*%
X163322000Y-125962500D03*
X163322000Y-128037500D03*
%TD*%
D27*
%TO.C,D24*%
X200787000Y-113362000D03*
X202057000Y-113362000D03*
X203327000Y-113362000D03*
X204597000Y-113362000D03*
X205867000Y-113362000D03*
X207137000Y-113362000D03*
X208407000Y-113362000D03*
X209677000Y-113362000D03*
X209677000Y-104062000D03*
X208407000Y-104062000D03*
X207137000Y-104062000D03*
X205867000Y-104062000D03*
X204597000Y-104062000D03*
X203327000Y-104062000D03*
X202057000Y-104062000D03*
X200787000Y-104062000D03*
%TD*%
D29*
%TO.C,R124*%
X203708000Y-49546000D03*
X203708000Y-51546000D03*
%TD*%
D22*
%TO.C,C89*%
X188214000Y-51583500D03*
X188214000Y-49508500D03*
%TD*%
D32*
%TO.C,R140*%
X137906000Y-86106000D03*
X135906000Y-86106000D03*
%TD*%
D24*
%TO.C,R28*%
X83058000Y-126222000D03*
X83058000Y-124222000D03*
%TD*%
D27*
%TO.C,D17*%
X115697000Y-113362000D03*
X116967000Y-113362000D03*
X118237000Y-113362000D03*
X119507000Y-113362000D03*
X120777000Y-113362000D03*
X122047000Y-113362000D03*
X123317000Y-113362000D03*
X124587000Y-113362000D03*
X124587000Y-104062000D03*
X123317000Y-104062000D03*
X122047000Y-104062000D03*
X120777000Y-104062000D03*
X119507000Y-104062000D03*
X118237000Y-104062000D03*
X116967000Y-104062000D03*
X115697000Y-104062000D03*
%TD*%
M02*
