%TF.GenerationSoftware,KiCad,Pcbnew,(6.0.1)*%
%TF.CreationDate,2023-03-27T11:36:54+03:00*%
%TF.ProjectId,Driver_SKiM459GD12E4 V2,44726976-6572-45f5-934b-694d34353947,rev?*%
%TF.SameCoordinates,Original*%
%TF.FileFunction,Legend,Bot*%
%TF.FilePolarity,Positive*%
%FSLAX46Y46*%
G04 Gerber Fmt 4.6, Leading zero omitted, Abs format (unit mm)*
G04 Created by KiCad (PCBNEW (6.0.1)) date 2023-03-27 11:36:54*
%MOMM*%
%LPD*%
G01*
G04 APERTURE LIST*
%ADD10C,0.150000*%
%ADD11C,0.120000*%
G04 APERTURE END LIST*
D10*
%TO.C,R117*%
X207621047Y-42235380D02*
X207954380Y-41759190D01*
X208192476Y-42235380D02*
X208192476Y-41235380D01*
X207811523Y-41235380D01*
X207716285Y-41283000D01*
X207668666Y-41330619D01*
X207621047Y-41425857D01*
X207621047Y-41568714D01*
X207668666Y-41663952D01*
X207716285Y-41711571D01*
X207811523Y-41759190D01*
X208192476Y-41759190D01*
X206668666Y-42235380D02*
X207240095Y-42235380D01*
X206954380Y-42235380D02*
X206954380Y-41235380D01*
X207049619Y-41378238D01*
X207144857Y-41473476D01*
X207240095Y-41521095D01*
X205716285Y-42235380D02*
X206287714Y-42235380D01*
X206002000Y-42235380D02*
X206002000Y-41235380D01*
X206097238Y-41378238D01*
X206192476Y-41473476D01*
X206287714Y-41521095D01*
X205382952Y-41235380D02*
X204716285Y-41235380D01*
X205144857Y-42235380D01*
%TO.C,R67*%
X128150857Y-120848380D02*
X128484190Y-120372190D01*
X128722285Y-120848380D02*
X128722285Y-119848380D01*
X128341333Y-119848380D01*
X128246095Y-119896000D01*
X128198476Y-119943619D01*
X128150857Y-120038857D01*
X128150857Y-120181714D01*
X128198476Y-120276952D01*
X128246095Y-120324571D01*
X128341333Y-120372190D01*
X128722285Y-120372190D01*
X127293714Y-119848380D02*
X127484190Y-119848380D01*
X127579428Y-119896000D01*
X127627047Y-119943619D01*
X127722285Y-120086476D01*
X127769904Y-120276952D01*
X127769904Y-120657904D01*
X127722285Y-120753142D01*
X127674666Y-120800761D01*
X127579428Y-120848380D01*
X127388952Y-120848380D01*
X127293714Y-120800761D01*
X127246095Y-120753142D01*
X127198476Y-120657904D01*
X127198476Y-120419809D01*
X127246095Y-120324571D01*
X127293714Y-120276952D01*
X127388952Y-120229333D01*
X127579428Y-120229333D01*
X127674666Y-120276952D01*
X127722285Y-120324571D01*
X127769904Y-120419809D01*
X126865142Y-119848380D02*
X126198476Y-119848380D01*
X126627047Y-120848380D01*
%TO.C,C69*%
X178188857Y-118213142D02*
X178236476Y-118260761D01*
X178379333Y-118308380D01*
X178474571Y-118308380D01*
X178617428Y-118260761D01*
X178712666Y-118165523D01*
X178760285Y-118070285D01*
X178807904Y-117879809D01*
X178807904Y-117736952D01*
X178760285Y-117546476D01*
X178712666Y-117451238D01*
X178617428Y-117356000D01*
X178474571Y-117308380D01*
X178379333Y-117308380D01*
X178236476Y-117356000D01*
X178188857Y-117403619D01*
X177331714Y-117308380D02*
X177522190Y-117308380D01*
X177617428Y-117356000D01*
X177665047Y-117403619D01*
X177760285Y-117546476D01*
X177807904Y-117736952D01*
X177807904Y-118117904D01*
X177760285Y-118213142D01*
X177712666Y-118260761D01*
X177617428Y-118308380D01*
X177426952Y-118308380D01*
X177331714Y-118260761D01*
X177284095Y-118213142D01*
X177236476Y-118117904D01*
X177236476Y-117879809D01*
X177284095Y-117784571D01*
X177331714Y-117736952D01*
X177426952Y-117689333D01*
X177617428Y-117689333D01*
X177712666Y-117736952D01*
X177760285Y-117784571D01*
X177807904Y-117879809D01*
X176760285Y-118308380D02*
X176569809Y-118308380D01*
X176474571Y-118260761D01*
X176426952Y-118213142D01*
X176331714Y-118070285D01*
X176284095Y-117879809D01*
X176284095Y-117498857D01*
X176331714Y-117403619D01*
X176379333Y-117356000D01*
X176474571Y-117308380D01*
X176665047Y-117308380D01*
X176760285Y-117356000D01*
X176807904Y-117403619D01*
X176855523Y-117498857D01*
X176855523Y-117736952D01*
X176807904Y-117832190D01*
X176760285Y-117879809D01*
X176665047Y-117927428D01*
X176474571Y-117927428D01*
X176379333Y-117879809D01*
X176331714Y-117832190D01*
X176284095Y-117736952D01*
%TO.C,R109*%
X202795047Y-53284380D02*
X203128380Y-52808190D01*
X203366476Y-53284380D02*
X203366476Y-52284380D01*
X202985523Y-52284380D01*
X202890285Y-52332000D01*
X202842666Y-52379619D01*
X202795047Y-52474857D01*
X202795047Y-52617714D01*
X202842666Y-52712952D01*
X202890285Y-52760571D01*
X202985523Y-52808190D01*
X203366476Y-52808190D01*
X201842666Y-53284380D02*
X202414095Y-53284380D01*
X202128380Y-53284380D02*
X202128380Y-52284380D01*
X202223619Y-52427238D01*
X202318857Y-52522476D01*
X202414095Y-52570095D01*
X201223619Y-52284380D02*
X201128380Y-52284380D01*
X201033142Y-52332000D01*
X200985523Y-52379619D01*
X200937904Y-52474857D01*
X200890285Y-52665333D01*
X200890285Y-52903428D01*
X200937904Y-53093904D01*
X200985523Y-53189142D01*
X201033142Y-53236761D01*
X201128380Y-53284380D01*
X201223619Y-53284380D01*
X201318857Y-53236761D01*
X201366476Y-53189142D01*
X201414095Y-53093904D01*
X201461714Y-52903428D01*
X201461714Y-52665333D01*
X201414095Y-52474857D01*
X201366476Y-52379619D01*
X201318857Y-52332000D01*
X201223619Y-52284380D01*
X200414095Y-53284380D02*
X200223619Y-53284380D01*
X200128380Y-53236761D01*
X200080761Y-53189142D01*
X199985523Y-53046285D01*
X199937904Y-52855809D01*
X199937904Y-52474857D01*
X199985523Y-52379619D01*
X200033142Y-52332000D01*
X200128380Y-52284380D01*
X200318857Y-52284380D01*
X200414095Y-52332000D01*
X200461714Y-52379619D01*
X200509333Y-52474857D01*
X200509333Y-52712952D01*
X200461714Y-52808190D01*
X200414095Y-52855809D01*
X200318857Y-52903428D01*
X200128380Y-52903428D01*
X200033142Y-52855809D01*
X199985523Y-52808190D01*
X199937904Y-52712952D01*
%TO.C,C1*%
X77128666Y-115927142D02*
X77176285Y-115974761D01*
X77319142Y-116022380D01*
X77414380Y-116022380D01*
X77557238Y-115974761D01*
X77652476Y-115879523D01*
X77700095Y-115784285D01*
X77747714Y-115593809D01*
X77747714Y-115450952D01*
X77700095Y-115260476D01*
X77652476Y-115165238D01*
X77557238Y-115070000D01*
X77414380Y-115022380D01*
X77319142Y-115022380D01*
X77176285Y-115070000D01*
X77128666Y-115117619D01*
X76176285Y-116022380D02*
X76747714Y-116022380D01*
X76462000Y-116022380D02*
X76462000Y-115022380D01*
X76557238Y-115165238D01*
X76652476Y-115260476D01*
X76747714Y-115308095D01*
%TO.C,C71*%
X214764857Y-110085142D02*
X214812476Y-110132761D01*
X214955333Y-110180380D01*
X215050571Y-110180380D01*
X215193428Y-110132761D01*
X215288666Y-110037523D01*
X215336285Y-109942285D01*
X215383904Y-109751809D01*
X215383904Y-109608952D01*
X215336285Y-109418476D01*
X215288666Y-109323238D01*
X215193428Y-109228000D01*
X215050571Y-109180380D01*
X214955333Y-109180380D01*
X214812476Y-109228000D01*
X214764857Y-109275619D01*
X214431523Y-109180380D02*
X213764857Y-109180380D01*
X214193428Y-110180380D01*
X212860095Y-110180380D02*
X213431523Y-110180380D01*
X213145809Y-110180380D02*
X213145809Y-109180380D01*
X213241047Y-109323238D01*
X213336285Y-109418476D01*
X213431523Y-109466095D01*
%TO.C,C9*%
X72810666Y-133453142D02*
X72858285Y-133500761D01*
X73001142Y-133548380D01*
X73096380Y-133548380D01*
X73239238Y-133500761D01*
X73334476Y-133405523D01*
X73382095Y-133310285D01*
X73429714Y-133119809D01*
X73429714Y-132976952D01*
X73382095Y-132786476D01*
X73334476Y-132691238D01*
X73239238Y-132596000D01*
X73096380Y-132548380D01*
X73001142Y-132548380D01*
X72858285Y-132596000D01*
X72810666Y-132643619D01*
X72334476Y-133548380D02*
X72144000Y-133548380D01*
X72048761Y-133500761D01*
X72001142Y-133453142D01*
X71905904Y-133310285D01*
X71858285Y-133119809D01*
X71858285Y-132738857D01*
X71905904Y-132643619D01*
X71953523Y-132596000D01*
X72048761Y-132548380D01*
X72239238Y-132548380D01*
X72334476Y-132596000D01*
X72382095Y-132643619D01*
X72429714Y-132738857D01*
X72429714Y-132976952D01*
X72382095Y-133072190D01*
X72334476Y-133119809D01*
X72239238Y-133167428D01*
X72048761Y-133167428D01*
X71953523Y-133119809D01*
X71905904Y-133072190D01*
X71858285Y-132976952D01*
%TO.C,C35*%
X153042857Y-102973142D02*
X153090476Y-103020761D01*
X153233333Y-103068380D01*
X153328571Y-103068380D01*
X153471428Y-103020761D01*
X153566666Y-102925523D01*
X153614285Y-102830285D01*
X153661904Y-102639809D01*
X153661904Y-102496952D01*
X153614285Y-102306476D01*
X153566666Y-102211238D01*
X153471428Y-102116000D01*
X153328571Y-102068380D01*
X153233333Y-102068380D01*
X153090476Y-102116000D01*
X153042857Y-102163619D01*
X152709523Y-102068380D02*
X152090476Y-102068380D01*
X152423809Y-102449333D01*
X152280952Y-102449333D01*
X152185714Y-102496952D01*
X152138095Y-102544571D01*
X152090476Y-102639809D01*
X152090476Y-102877904D01*
X152138095Y-102973142D01*
X152185714Y-103020761D01*
X152280952Y-103068380D01*
X152566666Y-103068380D01*
X152661904Y-103020761D01*
X152709523Y-102973142D01*
X151185714Y-102068380D02*
X151661904Y-102068380D01*
X151709523Y-102544571D01*
X151661904Y-102496952D01*
X151566666Y-102449333D01*
X151328571Y-102449333D01*
X151233333Y-102496952D01*
X151185714Y-102544571D01*
X151138095Y-102639809D01*
X151138095Y-102877904D01*
X151185714Y-102973142D01*
X151233333Y-103020761D01*
X151328571Y-103068380D01*
X151566666Y-103068380D01*
X151661904Y-103020761D01*
X151709523Y-102973142D01*
%TO.C,R137*%
X96496047Y-135453380D02*
X96829380Y-134977190D01*
X97067476Y-135453380D02*
X97067476Y-134453380D01*
X96686523Y-134453380D01*
X96591285Y-134501000D01*
X96543666Y-134548619D01*
X96496047Y-134643857D01*
X96496047Y-134786714D01*
X96543666Y-134881952D01*
X96591285Y-134929571D01*
X96686523Y-134977190D01*
X97067476Y-134977190D01*
X95543666Y-135453380D02*
X96115095Y-135453380D01*
X95829380Y-135453380D02*
X95829380Y-134453380D01*
X95924619Y-134596238D01*
X96019857Y-134691476D01*
X96115095Y-134739095D01*
X95210333Y-134453380D02*
X94591285Y-134453380D01*
X94924619Y-134834333D01*
X94781761Y-134834333D01*
X94686523Y-134881952D01*
X94638904Y-134929571D01*
X94591285Y-135024809D01*
X94591285Y-135262904D01*
X94638904Y-135358142D01*
X94686523Y-135405761D01*
X94781761Y-135453380D01*
X95067476Y-135453380D01*
X95162714Y-135405761D01*
X95210333Y-135358142D01*
X94257952Y-134453380D02*
X93591285Y-134453380D01*
X94019857Y-135453380D01*
%TO.C,R111*%
X198572380Y-46632952D02*
X198096190Y-46299619D01*
X198572380Y-46061523D02*
X197572380Y-46061523D01*
X197572380Y-46442476D01*
X197620000Y-46537714D01*
X197667619Y-46585333D01*
X197762857Y-46632952D01*
X197905714Y-46632952D01*
X198000952Y-46585333D01*
X198048571Y-46537714D01*
X198096190Y-46442476D01*
X198096190Y-46061523D01*
X198572380Y-47585333D02*
X198572380Y-47013904D01*
X198572380Y-47299619D02*
X197572380Y-47299619D01*
X197715238Y-47204380D01*
X197810476Y-47109142D01*
X197858095Y-47013904D01*
X198572380Y-48537714D02*
X198572380Y-47966285D01*
X198572380Y-48252000D02*
X197572380Y-48252000D01*
X197715238Y-48156761D01*
X197810476Y-48061523D01*
X197858095Y-47966285D01*
X198572380Y-49490095D02*
X198572380Y-48918666D01*
X198572380Y-49204380D02*
X197572380Y-49204380D01*
X197715238Y-49109142D01*
X197810476Y-49013904D01*
X197858095Y-48918666D01*
%TO.C,R127*%
X63444380Y-134008952D02*
X62968190Y-133675619D01*
X63444380Y-133437523D02*
X62444380Y-133437523D01*
X62444380Y-133818476D01*
X62492000Y-133913714D01*
X62539619Y-133961333D01*
X62634857Y-134008952D01*
X62777714Y-134008952D01*
X62872952Y-133961333D01*
X62920571Y-133913714D01*
X62968190Y-133818476D01*
X62968190Y-133437523D01*
X63444380Y-134961333D02*
X63444380Y-134389904D01*
X63444380Y-134675619D02*
X62444380Y-134675619D01*
X62587238Y-134580380D01*
X62682476Y-134485142D01*
X62730095Y-134389904D01*
X62539619Y-135342285D02*
X62492000Y-135389904D01*
X62444380Y-135485142D01*
X62444380Y-135723238D01*
X62492000Y-135818476D01*
X62539619Y-135866095D01*
X62634857Y-135913714D01*
X62730095Y-135913714D01*
X62872952Y-135866095D01*
X63444380Y-135294666D01*
X63444380Y-135913714D01*
X62444380Y-136247047D02*
X62444380Y-136913714D01*
X63444380Y-136485142D01*
%TO.C,R132*%
X167997047Y-126690380D02*
X168330380Y-126214190D01*
X168568476Y-126690380D02*
X168568476Y-125690380D01*
X168187523Y-125690380D01*
X168092285Y-125738000D01*
X168044666Y-125785619D01*
X167997047Y-125880857D01*
X167997047Y-126023714D01*
X168044666Y-126118952D01*
X168092285Y-126166571D01*
X168187523Y-126214190D01*
X168568476Y-126214190D01*
X167044666Y-126690380D02*
X167616095Y-126690380D01*
X167330380Y-126690380D02*
X167330380Y-125690380D01*
X167425619Y-125833238D01*
X167520857Y-125928476D01*
X167616095Y-125976095D01*
X166711333Y-125690380D02*
X166092285Y-125690380D01*
X166425619Y-126071333D01*
X166282761Y-126071333D01*
X166187523Y-126118952D01*
X166139904Y-126166571D01*
X166092285Y-126261809D01*
X166092285Y-126499904D01*
X166139904Y-126595142D01*
X166187523Y-126642761D01*
X166282761Y-126690380D01*
X166568476Y-126690380D01*
X166663714Y-126642761D01*
X166711333Y-126595142D01*
X165711333Y-125785619D02*
X165663714Y-125738000D01*
X165568476Y-125690380D01*
X165330380Y-125690380D01*
X165235142Y-125738000D01*
X165187523Y-125785619D01*
X165139904Y-125880857D01*
X165139904Y-125976095D01*
X165187523Y-126118952D01*
X165758952Y-126690380D01*
X165139904Y-126690380D01*
%TO.C,C28*%
X66428857Y-103735142D02*
X66476476Y-103782761D01*
X66619333Y-103830380D01*
X66714571Y-103830380D01*
X66857428Y-103782761D01*
X66952666Y-103687523D01*
X67000285Y-103592285D01*
X67047904Y-103401809D01*
X67047904Y-103258952D01*
X67000285Y-103068476D01*
X66952666Y-102973238D01*
X66857428Y-102878000D01*
X66714571Y-102830380D01*
X66619333Y-102830380D01*
X66476476Y-102878000D01*
X66428857Y-102925619D01*
X66047904Y-102925619D02*
X66000285Y-102878000D01*
X65905047Y-102830380D01*
X65666952Y-102830380D01*
X65571714Y-102878000D01*
X65524095Y-102925619D01*
X65476476Y-103020857D01*
X65476476Y-103116095D01*
X65524095Y-103258952D01*
X66095523Y-103830380D01*
X65476476Y-103830380D01*
X64905047Y-103258952D02*
X65000285Y-103211333D01*
X65047904Y-103163714D01*
X65095523Y-103068476D01*
X65095523Y-103020857D01*
X65047904Y-102925619D01*
X65000285Y-102878000D01*
X64905047Y-102830380D01*
X64714571Y-102830380D01*
X64619333Y-102878000D01*
X64571714Y-102925619D01*
X64524095Y-103020857D01*
X64524095Y-103068476D01*
X64571714Y-103163714D01*
X64619333Y-103211333D01*
X64714571Y-103258952D01*
X64905047Y-103258952D01*
X65000285Y-103306571D01*
X65047904Y-103354190D01*
X65095523Y-103449428D01*
X65095523Y-103639904D01*
X65047904Y-103735142D01*
X65000285Y-103782761D01*
X64905047Y-103830380D01*
X64714571Y-103830380D01*
X64619333Y-103782761D01*
X64571714Y-103735142D01*
X64524095Y-103639904D01*
X64524095Y-103449428D01*
X64571714Y-103354190D01*
X64619333Y-103306571D01*
X64714571Y-103258952D01*
%TO.C,R17*%
X78874857Y-122753380D02*
X79208190Y-122277190D01*
X79446285Y-122753380D02*
X79446285Y-121753380D01*
X79065333Y-121753380D01*
X78970095Y-121801000D01*
X78922476Y-121848619D01*
X78874857Y-121943857D01*
X78874857Y-122086714D01*
X78922476Y-122181952D01*
X78970095Y-122229571D01*
X79065333Y-122277190D01*
X79446285Y-122277190D01*
X77922476Y-122753380D02*
X78493904Y-122753380D01*
X78208190Y-122753380D02*
X78208190Y-121753380D01*
X78303428Y-121896238D01*
X78398666Y-121991476D01*
X78493904Y-122039095D01*
X77589142Y-121753380D02*
X76922476Y-121753380D01*
X77351047Y-122753380D01*
%TO.C,R69*%
X163710857Y-112720380D02*
X164044190Y-112244190D01*
X164282285Y-112720380D02*
X164282285Y-111720380D01*
X163901333Y-111720380D01*
X163806095Y-111768000D01*
X163758476Y-111815619D01*
X163710857Y-111910857D01*
X163710857Y-112053714D01*
X163758476Y-112148952D01*
X163806095Y-112196571D01*
X163901333Y-112244190D01*
X164282285Y-112244190D01*
X162853714Y-111720380D02*
X163044190Y-111720380D01*
X163139428Y-111768000D01*
X163187047Y-111815619D01*
X163282285Y-111958476D01*
X163329904Y-112148952D01*
X163329904Y-112529904D01*
X163282285Y-112625142D01*
X163234666Y-112672761D01*
X163139428Y-112720380D01*
X162948952Y-112720380D01*
X162853714Y-112672761D01*
X162806095Y-112625142D01*
X162758476Y-112529904D01*
X162758476Y-112291809D01*
X162806095Y-112196571D01*
X162853714Y-112148952D01*
X162948952Y-112101333D01*
X163139428Y-112101333D01*
X163234666Y-112148952D01*
X163282285Y-112196571D01*
X163329904Y-112291809D01*
X162282285Y-112720380D02*
X162091809Y-112720380D01*
X161996571Y-112672761D01*
X161948952Y-112625142D01*
X161853714Y-112482285D01*
X161806095Y-112291809D01*
X161806095Y-111910857D01*
X161853714Y-111815619D01*
X161901333Y-111768000D01*
X161996571Y-111720380D01*
X162187047Y-111720380D01*
X162282285Y-111768000D01*
X162329904Y-111815619D01*
X162377523Y-111910857D01*
X162377523Y-112148952D01*
X162329904Y-112244190D01*
X162282285Y-112291809D01*
X162187047Y-112339428D01*
X161996571Y-112339428D01*
X161901333Y-112291809D01*
X161853714Y-112244190D01*
X161806095Y-112148952D01*
%TO.C,R94*%
X116252380Y-139157142D02*
X115776190Y-138823809D01*
X116252380Y-138585714D02*
X115252380Y-138585714D01*
X115252380Y-138966666D01*
X115300000Y-139061904D01*
X115347619Y-139109523D01*
X115442857Y-139157142D01*
X115585714Y-139157142D01*
X115680952Y-139109523D01*
X115728571Y-139061904D01*
X115776190Y-138966666D01*
X115776190Y-138585714D01*
X116252380Y-139633333D02*
X116252380Y-139823809D01*
X116204761Y-139919047D01*
X116157142Y-139966666D01*
X116014285Y-140061904D01*
X115823809Y-140109523D01*
X115442857Y-140109523D01*
X115347619Y-140061904D01*
X115300000Y-140014285D01*
X115252380Y-139919047D01*
X115252380Y-139728571D01*
X115300000Y-139633333D01*
X115347619Y-139585714D01*
X115442857Y-139538095D01*
X115680952Y-139538095D01*
X115776190Y-139585714D01*
X115823809Y-139633333D01*
X115871428Y-139728571D01*
X115871428Y-139919047D01*
X115823809Y-140014285D01*
X115776190Y-140061904D01*
X115680952Y-140109523D01*
X115585714Y-140966666D02*
X116252380Y-140966666D01*
X115204761Y-140728571D02*
X115919047Y-140490476D01*
X115919047Y-141109523D01*
%TO.C,C70*%
X167520857Y-110085142D02*
X167568476Y-110132761D01*
X167711333Y-110180380D01*
X167806571Y-110180380D01*
X167949428Y-110132761D01*
X168044666Y-110037523D01*
X168092285Y-109942285D01*
X168139904Y-109751809D01*
X168139904Y-109608952D01*
X168092285Y-109418476D01*
X168044666Y-109323238D01*
X167949428Y-109228000D01*
X167806571Y-109180380D01*
X167711333Y-109180380D01*
X167568476Y-109228000D01*
X167520857Y-109275619D01*
X167187523Y-109180380D02*
X166520857Y-109180380D01*
X166949428Y-110180380D01*
X165949428Y-109180380D02*
X165854190Y-109180380D01*
X165758952Y-109228000D01*
X165711333Y-109275619D01*
X165663714Y-109370857D01*
X165616095Y-109561333D01*
X165616095Y-109799428D01*
X165663714Y-109989904D01*
X165711333Y-110085142D01*
X165758952Y-110132761D01*
X165854190Y-110180380D01*
X165949428Y-110180380D01*
X166044666Y-110132761D01*
X166092285Y-110085142D01*
X166139904Y-109989904D01*
X166187523Y-109799428D01*
X166187523Y-109561333D01*
X166139904Y-109370857D01*
X166092285Y-109275619D01*
X166044666Y-109228000D01*
X165949428Y-109180380D01*
%TO.C,R97*%
X213240857Y-58872380D02*
X213574190Y-58396190D01*
X213812285Y-58872380D02*
X213812285Y-57872380D01*
X213431333Y-57872380D01*
X213336095Y-57920000D01*
X213288476Y-57967619D01*
X213240857Y-58062857D01*
X213240857Y-58205714D01*
X213288476Y-58300952D01*
X213336095Y-58348571D01*
X213431333Y-58396190D01*
X213812285Y-58396190D01*
X212764666Y-58872380D02*
X212574190Y-58872380D01*
X212478952Y-58824761D01*
X212431333Y-58777142D01*
X212336095Y-58634285D01*
X212288476Y-58443809D01*
X212288476Y-58062857D01*
X212336095Y-57967619D01*
X212383714Y-57920000D01*
X212478952Y-57872380D01*
X212669428Y-57872380D01*
X212764666Y-57920000D01*
X212812285Y-57967619D01*
X212859904Y-58062857D01*
X212859904Y-58300952D01*
X212812285Y-58396190D01*
X212764666Y-58443809D01*
X212669428Y-58491428D01*
X212478952Y-58491428D01*
X212383714Y-58443809D01*
X212336095Y-58396190D01*
X212288476Y-58300952D01*
X211955142Y-57872380D02*
X211288476Y-57872380D01*
X211717047Y-58872380D01*
%TO.C,C11*%
X78112857Y-118213142D02*
X78160476Y-118260761D01*
X78303333Y-118308380D01*
X78398571Y-118308380D01*
X78541428Y-118260761D01*
X78636666Y-118165523D01*
X78684285Y-118070285D01*
X78731904Y-117879809D01*
X78731904Y-117736952D01*
X78684285Y-117546476D01*
X78636666Y-117451238D01*
X78541428Y-117356000D01*
X78398571Y-117308380D01*
X78303333Y-117308380D01*
X78160476Y-117356000D01*
X78112857Y-117403619D01*
X77160476Y-118308380D02*
X77731904Y-118308380D01*
X77446190Y-118308380D02*
X77446190Y-117308380D01*
X77541428Y-117451238D01*
X77636666Y-117546476D01*
X77731904Y-117594095D01*
X76208095Y-118308380D02*
X76779523Y-118308380D01*
X76493809Y-118308380D02*
X76493809Y-117308380D01*
X76589047Y-117451238D01*
X76684285Y-117546476D01*
X76779523Y-117594095D01*
%TO.C,C10*%
X91574857Y-132437142D02*
X91622476Y-132484761D01*
X91765333Y-132532380D01*
X91860571Y-132532380D01*
X92003428Y-132484761D01*
X92098666Y-132389523D01*
X92146285Y-132294285D01*
X92193904Y-132103809D01*
X92193904Y-131960952D01*
X92146285Y-131770476D01*
X92098666Y-131675238D01*
X92003428Y-131580000D01*
X91860571Y-131532380D01*
X91765333Y-131532380D01*
X91622476Y-131580000D01*
X91574857Y-131627619D01*
X90622476Y-132532380D02*
X91193904Y-132532380D01*
X90908190Y-132532380D02*
X90908190Y-131532380D01*
X91003428Y-131675238D01*
X91098666Y-131770476D01*
X91193904Y-131818095D01*
X90003428Y-131532380D02*
X89908190Y-131532380D01*
X89812952Y-131580000D01*
X89765333Y-131627619D01*
X89717714Y-131722857D01*
X89670095Y-131913333D01*
X89670095Y-132151428D01*
X89717714Y-132341904D01*
X89765333Y-132437142D01*
X89812952Y-132484761D01*
X89908190Y-132532380D01*
X90003428Y-132532380D01*
X90098666Y-132484761D01*
X90146285Y-132437142D01*
X90193904Y-132341904D01*
X90241523Y-132151428D01*
X90241523Y-131913333D01*
X90193904Y-131722857D01*
X90146285Y-131627619D01*
X90098666Y-131580000D01*
X90003428Y-131532380D01*
%TO.C,C62*%
X117990857Y-110085142D02*
X118038476Y-110132761D01*
X118181333Y-110180380D01*
X118276571Y-110180380D01*
X118419428Y-110132761D01*
X118514666Y-110037523D01*
X118562285Y-109942285D01*
X118609904Y-109751809D01*
X118609904Y-109608952D01*
X118562285Y-109418476D01*
X118514666Y-109323238D01*
X118419428Y-109228000D01*
X118276571Y-109180380D01*
X118181333Y-109180380D01*
X118038476Y-109228000D01*
X117990857Y-109275619D01*
X117133714Y-109180380D02*
X117324190Y-109180380D01*
X117419428Y-109228000D01*
X117467047Y-109275619D01*
X117562285Y-109418476D01*
X117609904Y-109608952D01*
X117609904Y-109989904D01*
X117562285Y-110085142D01*
X117514666Y-110132761D01*
X117419428Y-110180380D01*
X117228952Y-110180380D01*
X117133714Y-110132761D01*
X117086095Y-110085142D01*
X117038476Y-109989904D01*
X117038476Y-109751809D01*
X117086095Y-109656571D01*
X117133714Y-109608952D01*
X117228952Y-109561333D01*
X117419428Y-109561333D01*
X117514666Y-109608952D01*
X117562285Y-109656571D01*
X117609904Y-109751809D01*
X116657523Y-109275619D02*
X116609904Y-109228000D01*
X116514666Y-109180380D01*
X116276571Y-109180380D01*
X116181333Y-109228000D01*
X116133714Y-109275619D01*
X116086095Y-109370857D01*
X116086095Y-109466095D01*
X116133714Y-109608952D01*
X116705142Y-110180380D01*
X116086095Y-110180380D01*
%TO.C,R112*%
X157964047Y-54046380D02*
X158297380Y-53570190D01*
X158535476Y-54046380D02*
X158535476Y-53046380D01*
X158154523Y-53046380D01*
X158059285Y-53094000D01*
X158011666Y-53141619D01*
X157964047Y-53236857D01*
X157964047Y-53379714D01*
X158011666Y-53474952D01*
X158059285Y-53522571D01*
X158154523Y-53570190D01*
X158535476Y-53570190D01*
X157011666Y-54046380D02*
X157583095Y-54046380D01*
X157297380Y-54046380D02*
X157297380Y-53046380D01*
X157392619Y-53189238D01*
X157487857Y-53284476D01*
X157583095Y-53332095D01*
X156059285Y-54046380D02*
X156630714Y-54046380D01*
X156345000Y-54046380D02*
X156345000Y-53046380D01*
X156440238Y-53189238D01*
X156535476Y-53284476D01*
X156630714Y-53332095D01*
X155678333Y-53141619D02*
X155630714Y-53094000D01*
X155535476Y-53046380D01*
X155297380Y-53046380D01*
X155202142Y-53094000D01*
X155154523Y-53141619D01*
X155106904Y-53236857D01*
X155106904Y-53332095D01*
X155154523Y-53474952D01*
X155725952Y-54046380D01*
X155106904Y-54046380D01*
%TO.C,C83*%
X174378857Y-133453142D02*
X174426476Y-133500761D01*
X174569333Y-133548380D01*
X174664571Y-133548380D01*
X174807428Y-133500761D01*
X174902666Y-133405523D01*
X174950285Y-133310285D01*
X174997904Y-133119809D01*
X174997904Y-132976952D01*
X174950285Y-132786476D01*
X174902666Y-132691238D01*
X174807428Y-132596000D01*
X174664571Y-132548380D01*
X174569333Y-132548380D01*
X174426476Y-132596000D01*
X174378857Y-132643619D01*
X173807428Y-132976952D02*
X173902666Y-132929333D01*
X173950285Y-132881714D01*
X173997904Y-132786476D01*
X173997904Y-132738857D01*
X173950285Y-132643619D01*
X173902666Y-132596000D01*
X173807428Y-132548380D01*
X173616952Y-132548380D01*
X173521714Y-132596000D01*
X173474095Y-132643619D01*
X173426476Y-132738857D01*
X173426476Y-132786476D01*
X173474095Y-132881714D01*
X173521714Y-132929333D01*
X173616952Y-132976952D01*
X173807428Y-132976952D01*
X173902666Y-133024571D01*
X173950285Y-133072190D01*
X173997904Y-133167428D01*
X173997904Y-133357904D01*
X173950285Y-133453142D01*
X173902666Y-133500761D01*
X173807428Y-133548380D01*
X173616952Y-133548380D01*
X173521714Y-133500761D01*
X173474095Y-133453142D01*
X173426476Y-133357904D01*
X173426476Y-133167428D01*
X173474095Y-133072190D01*
X173521714Y-133024571D01*
X173616952Y-132976952D01*
X173093142Y-132548380D02*
X172474095Y-132548380D01*
X172807428Y-132929333D01*
X172664571Y-132929333D01*
X172569333Y-132976952D01*
X172521714Y-133024571D01*
X172474095Y-133119809D01*
X172474095Y-133357904D01*
X172521714Y-133453142D01*
X172569333Y-133500761D01*
X172664571Y-133548380D01*
X172950285Y-133548380D01*
X173045523Y-133500761D01*
X173093142Y-133453142D01*
%TO.C,D2*%
X98274095Y-63952380D02*
X98274095Y-62952380D01*
X98036000Y-62952380D01*
X97893142Y-63000000D01*
X97797904Y-63095238D01*
X97750285Y-63190476D01*
X97702666Y-63380952D01*
X97702666Y-63523809D01*
X97750285Y-63714285D01*
X97797904Y-63809523D01*
X97893142Y-63904761D01*
X98036000Y-63952380D01*
X98274095Y-63952380D01*
X97321714Y-63047619D02*
X97274095Y-63000000D01*
X97178857Y-62952380D01*
X96940761Y-62952380D01*
X96845523Y-63000000D01*
X96797904Y-63047619D01*
X96750285Y-63142857D01*
X96750285Y-63238095D01*
X96797904Y-63380952D01*
X97369333Y-63952380D01*
X96750285Y-63952380D01*
%TO.C,C30*%
X128023857Y-115927142D02*
X128071476Y-115974761D01*
X128214333Y-116022380D01*
X128309571Y-116022380D01*
X128452428Y-115974761D01*
X128547666Y-115879523D01*
X128595285Y-115784285D01*
X128642904Y-115593809D01*
X128642904Y-115450952D01*
X128595285Y-115260476D01*
X128547666Y-115165238D01*
X128452428Y-115070000D01*
X128309571Y-115022380D01*
X128214333Y-115022380D01*
X128071476Y-115070000D01*
X128023857Y-115117619D01*
X127690523Y-115022380D02*
X127071476Y-115022380D01*
X127404809Y-115403333D01*
X127261952Y-115403333D01*
X127166714Y-115450952D01*
X127119095Y-115498571D01*
X127071476Y-115593809D01*
X127071476Y-115831904D01*
X127119095Y-115927142D01*
X127166714Y-115974761D01*
X127261952Y-116022380D01*
X127547666Y-116022380D01*
X127642904Y-115974761D01*
X127690523Y-115927142D01*
X126452428Y-115022380D02*
X126357190Y-115022380D01*
X126261952Y-115070000D01*
X126214333Y-115117619D01*
X126166714Y-115212857D01*
X126119095Y-115403333D01*
X126119095Y-115641428D01*
X126166714Y-115831904D01*
X126214333Y-115927142D01*
X126261952Y-115974761D01*
X126357190Y-116022380D01*
X126452428Y-116022380D01*
X126547666Y-115974761D01*
X126595285Y-115927142D01*
X126642904Y-115831904D01*
X126690523Y-115641428D01*
X126690523Y-115403333D01*
X126642904Y-115212857D01*
X126595285Y-115117619D01*
X126547666Y-115070000D01*
X126452428Y-115022380D01*
%TO.C,R120*%
X163933047Y-44014380D02*
X164266380Y-43538190D01*
X164504476Y-44014380D02*
X164504476Y-43014380D01*
X164123523Y-43014380D01*
X164028285Y-43062000D01*
X163980666Y-43109619D01*
X163933047Y-43204857D01*
X163933047Y-43347714D01*
X163980666Y-43442952D01*
X164028285Y-43490571D01*
X164123523Y-43538190D01*
X164504476Y-43538190D01*
X162980666Y-44014380D02*
X163552095Y-44014380D01*
X163266380Y-44014380D02*
X163266380Y-43014380D01*
X163361619Y-43157238D01*
X163456857Y-43252476D01*
X163552095Y-43300095D01*
X162599714Y-43109619D02*
X162552095Y-43062000D01*
X162456857Y-43014380D01*
X162218761Y-43014380D01*
X162123523Y-43062000D01*
X162075904Y-43109619D01*
X162028285Y-43204857D01*
X162028285Y-43300095D01*
X162075904Y-43442952D01*
X162647333Y-44014380D01*
X162028285Y-44014380D01*
X161409238Y-43014380D02*
X161314000Y-43014380D01*
X161218761Y-43062000D01*
X161171142Y-43109619D01*
X161123523Y-43204857D01*
X161075904Y-43395333D01*
X161075904Y-43633428D01*
X161123523Y-43823904D01*
X161171142Y-43919142D01*
X161218761Y-43966761D01*
X161314000Y-44014380D01*
X161409238Y-44014380D01*
X161504476Y-43966761D01*
X161552095Y-43919142D01*
X161599714Y-43823904D01*
X161647333Y-43633428D01*
X161647333Y-43395333D01*
X161599714Y-43204857D01*
X161552095Y-43109619D01*
X161504476Y-43062000D01*
X161409238Y-43014380D01*
%TO.C,R104*%
X163266380Y-85224952D02*
X162790190Y-84891619D01*
X163266380Y-84653523D02*
X162266380Y-84653523D01*
X162266380Y-85034476D01*
X162314000Y-85129714D01*
X162361619Y-85177333D01*
X162456857Y-85224952D01*
X162599714Y-85224952D01*
X162694952Y-85177333D01*
X162742571Y-85129714D01*
X162790190Y-85034476D01*
X162790190Y-84653523D01*
X163266380Y-86177333D02*
X163266380Y-85605904D01*
X163266380Y-85891619D02*
X162266380Y-85891619D01*
X162409238Y-85796380D01*
X162504476Y-85701142D01*
X162552095Y-85605904D01*
X162266380Y-86796380D02*
X162266380Y-86891619D01*
X162314000Y-86986857D01*
X162361619Y-87034476D01*
X162456857Y-87082095D01*
X162647333Y-87129714D01*
X162885428Y-87129714D01*
X163075904Y-87082095D01*
X163171142Y-87034476D01*
X163218761Y-86986857D01*
X163266380Y-86891619D01*
X163266380Y-86796380D01*
X163218761Y-86701142D01*
X163171142Y-86653523D01*
X163075904Y-86605904D01*
X162885428Y-86558285D01*
X162647333Y-86558285D01*
X162456857Y-86605904D01*
X162361619Y-86653523D01*
X162314000Y-86701142D01*
X162266380Y-86796380D01*
X162599714Y-87986857D02*
X163266380Y-87986857D01*
X162218761Y-87748761D02*
X162933047Y-87510666D01*
X162933047Y-88129714D01*
%TO.C,C46*%
X200540857Y-102973142D02*
X200588476Y-103020761D01*
X200731333Y-103068380D01*
X200826571Y-103068380D01*
X200969428Y-103020761D01*
X201064666Y-102925523D01*
X201112285Y-102830285D01*
X201159904Y-102639809D01*
X201159904Y-102496952D01*
X201112285Y-102306476D01*
X201064666Y-102211238D01*
X200969428Y-102116000D01*
X200826571Y-102068380D01*
X200731333Y-102068380D01*
X200588476Y-102116000D01*
X200540857Y-102163619D01*
X199683714Y-102401714D02*
X199683714Y-103068380D01*
X199921809Y-102020761D02*
X200159904Y-102735047D01*
X199540857Y-102735047D01*
X198731333Y-102068380D02*
X198921809Y-102068380D01*
X199017047Y-102116000D01*
X199064666Y-102163619D01*
X199159904Y-102306476D01*
X199207523Y-102496952D01*
X199207523Y-102877904D01*
X199159904Y-102973142D01*
X199112285Y-103020761D01*
X199017047Y-103068380D01*
X198826571Y-103068380D01*
X198731333Y-103020761D01*
X198683714Y-102973142D01*
X198636095Y-102877904D01*
X198636095Y-102639809D01*
X198683714Y-102544571D01*
X198731333Y-102496952D01*
X198826571Y-102449333D01*
X199017047Y-102449333D01*
X199112285Y-102496952D01*
X199159904Y-102544571D01*
X199207523Y-102639809D01*
%TO.C,R93*%
X118816380Y-138041142D02*
X118340190Y-137707809D01*
X118816380Y-137469714D02*
X117816380Y-137469714D01*
X117816380Y-137850666D01*
X117864000Y-137945904D01*
X117911619Y-137993523D01*
X118006857Y-138041142D01*
X118149714Y-138041142D01*
X118244952Y-137993523D01*
X118292571Y-137945904D01*
X118340190Y-137850666D01*
X118340190Y-137469714D01*
X118816380Y-138517333D02*
X118816380Y-138707809D01*
X118768761Y-138803047D01*
X118721142Y-138850666D01*
X118578285Y-138945904D01*
X118387809Y-138993523D01*
X118006857Y-138993523D01*
X117911619Y-138945904D01*
X117864000Y-138898285D01*
X117816380Y-138803047D01*
X117816380Y-138612571D01*
X117864000Y-138517333D01*
X117911619Y-138469714D01*
X118006857Y-138422095D01*
X118244952Y-138422095D01*
X118340190Y-138469714D01*
X118387809Y-138517333D01*
X118435428Y-138612571D01*
X118435428Y-138803047D01*
X118387809Y-138898285D01*
X118340190Y-138945904D01*
X118244952Y-138993523D01*
X117816380Y-139326857D02*
X117816380Y-139945904D01*
X118197333Y-139612571D01*
X118197333Y-139755428D01*
X118244952Y-139850666D01*
X118292571Y-139898285D01*
X118387809Y-139945904D01*
X118625904Y-139945904D01*
X118721142Y-139898285D01*
X118768761Y-139850666D01*
X118816380Y-139755428D01*
X118816380Y-139469714D01*
X118768761Y-139374476D01*
X118721142Y-139326857D01*
%TO.C,R101*%
X173331047Y-70556380D02*
X173664380Y-70080190D01*
X173902476Y-70556380D02*
X173902476Y-69556380D01*
X173521523Y-69556380D01*
X173426285Y-69604000D01*
X173378666Y-69651619D01*
X173331047Y-69746857D01*
X173331047Y-69889714D01*
X173378666Y-69984952D01*
X173426285Y-70032571D01*
X173521523Y-70080190D01*
X173902476Y-70080190D01*
X172378666Y-70556380D02*
X172950095Y-70556380D01*
X172664380Y-70556380D02*
X172664380Y-69556380D01*
X172759619Y-69699238D01*
X172854857Y-69794476D01*
X172950095Y-69842095D01*
X171759619Y-69556380D02*
X171664380Y-69556380D01*
X171569142Y-69604000D01*
X171521523Y-69651619D01*
X171473904Y-69746857D01*
X171426285Y-69937333D01*
X171426285Y-70175428D01*
X171473904Y-70365904D01*
X171521523Y-70461142D01*
X171569142Y-70508761D01*
X171664380Y-70556380D01*
X171759619Y-70556380D01*
X171854857Y-70508761D01*
X171902476Y-70461142D01*
X171950095Y-70365904D01*
X171997714Y-70175428D01*
X171997714Y-69937333D01*
X171950095Y-69746857D01*
X171902476Y-69651619D01*
X171854857Y-69604000D01*
X171759619Y-69556380D01*
X170473904Y-70556380D02*
X171045333Y-70556380D01*
X170759619Y-70556380D02*
X170759619Y-69556380D01*
X170854857Y-69699238D01*
X170950095Y-69794476D01*
X171045333Y-69842095D01*
%TO.C,R13*%
X68524380Y-133961142D02*
X68048190Y-133627809D01*
X68524380Y-133389714D02*
X67524380Y-133389714D01*
X67524380Y-133770666D01*
X67572000Y-133865904D01*
X67619619Y-133913523D01*
X67714857Y-133961142D01*
X67857714Y-133961142D01*
X67952952Y-133913523D01*
X68000571Y-133865904D01*
X68048190Y-133770666D01*
X68048190Y-133389714D01*
X68524380Y-134913523D02*
X68524380Y-134342095D01*
X68524380Y-134627809D02*
X67524380Y-134627809D01*
X67667238Y-134532571D01*
X67762476Y-134437333D01*
X67810095Y-134342095D01*
X67524380Y-135246857D02*
X67524380Y-135865904D01*
X67905333Y-135532571D01*
X67905333Y-135675428D01*
X67952952Y-135770666D01*
X68000571Y-135818285D01*
X68095809Y-135865904D01*
X68333904Y-135865904D01*
X68429142Y-135818285D01*
X68476761Y-135770666D01*
X68524380Y-135675428D01*
X68524380Y-135389714D01*
X68476761Y-135294476D01*
X68429142Y-135246857D01*
%TO.C,R83*%
X206128857Y-125420380D02*
X206462190Y-124944190D01*
X206700285Y-125420380D02*
X206700285Y-124420380D01*
X206319333Y-124420380D01*
X206224095Y-124468000D01*
X206176476Y-124515619D01*
X206128857Y-124610857D01*
X206128857Y-124753714D01*
X206176476Y-124848952D01*
X206224095Y-124896571D01*
X206319333Y-124944190D01*
X206700285Y-124944190D01*
X205557428Y-124848952D02*
X205652666Y-124801333D01*
X205700285Y-124753714D01*
X205747904Y-124658476D01*
X205747904Y-124610857D01*
X205700285Y-124515619D01*
X205652666Y-124468000D01*
X205557428Y-124420380D01*
X205366952Y-124420380D01*
X205271714Y-124468000D01*
X205224095Y-124515619D01*
X205176476Y-124610857D01*
X205176476Y-124658476D01*
X205224095Y-124753714D01*
X205271714Y-124801333D01*
X205366952Y-124848952D01*
X205557428Y-124848952D01*
X205652666Y-124896571D01*
X205700285Y-124944190D01*
X205747904Y-125039428D01*
X205747904Y-125229904D01*
X205700285Y-125325142D01*
X205652666Y-125372761D01*
X205557428Y-125420380D01*
X205366952Y-125420380D01*
X205271714Y-125372761D01*
X205224095Y-125325142D01*
X205176476Y-125229904D01*
X205176476Y-125039428D01*
X205224095Y-124944190D01*
X205271714Y-124896571D01*
X205366952Y-124848952D01*
X204843142Y-124420380D02*
X204224095Y-124420380D01*
X204557428Y-124801333D01*
X204414571Y-124801333D01*
X204319333Y-124848952D01*
X204271714Y-124896571D01*
X204224095Y-124991809D01*
X204224095Y-125229904D01*
X204271714Y-125325142D01*
X204319333Y-125372761D01*
X204414571Y-125420380D01*
X204700285Y-125420380D01*
X204795523Y-125372761D01*
X204843142Y-125325142D01*
%TO.C,C61*%
X128023857Y-118213142D02*
X128071476Y-118260761D01*
X128214333Y-118308380D01*
X128309571Y-118308380D01*
X128452428Y-118260761D01*
X128547666Y-118165523D01*
X128595285Y-118070285D01*
X128642904Y-117879809D01*
X128642904Y-117736952D01*
X128595285Y-117546476D01*
X128547666Y-117451238D01*
X128452428Y-117356000D01*
X128309571Y-117308380D01*
X128214333Y-117308380D01*
X128071476Y-117356000D01*
X128023857Y-117403619D01*
X127166714Y-117308380D02*
X127357190Y-117308380D01*
X127452428Y-117356000D01*
X127500047Y-117403619D01*
X127595285Y-117546476D01*
X127642904Y-117736952D01*
X127642904Y-118117904D01*
X127595285Y-118213142D01*
X127547666Y-118260761D01*
X127452428Y-118308380D01*
X127261952Y-118308380D01*
X127166714Y-118260761D01*
X127119095Y-118213142D01*
X127071476Y-118117904D01*
X127071476Y-117879809D01*
X127119095Y-117784571D01*
X127166714Y-117736952D01*
X127261952Y-117689333D01*
X127452428Y-117689333D01*
X127547666Y-117736952D01*
X127595285Y-117784571D01*
X127642904Y-117879809D01*
X126119095Y-118308380D02*
X126690523Y-118308380D01*
X126404809Y-118308380D02*
X126404809Y-117308380D01*
X126500047Y-117451238D01*
X126595285Y-117546476D01*
X126690523Y-117594095D01*
%TO.C,R19*%
X74556857Y-122626380D02*
X74890190Y-122150190D01*
X75128285Y-122626380D02*
X75128285Y-121626380D01*
X74747333Y-121626380D01*
X74652095Y-121674000D01*
X74604476Y-121721619D01*
X74556857Y-121816857D01*
X74556857Y-121959714D01*
X74604476Y-122054952D01*
X74652095Y-122102571D01*
X74747333Y-122150190D01*
X75128285Y-122150190D01*
X73604476Y-122626380D02*
X74175904Y-122626380D01*
X73890190Y-122626380D02*
X73890190Y-121626380D01*
X73985428Y-121769238D01*
X74080666Y-121864476D01*
X74175904Y-121912095D01*
X73128285Y-122626380D02*
X72937809Y-122626380D01*
X72842571Y-122578761D01*
X72794952Y-122531142D01*
X72699714Y-122388285D01*
X72652095Y-122197809D01*
X72652095Y-121816857D01*
X72699714Y-121721619D01*
X72747333Y-121674000D01*
X72842571Y-121626380D01*
X73033047Y-121626380D01*
X73128285Y-121674000D01*
X73175904Y-121721619D01*
X73223523Y-121816857D01*
X73223523Y-122054952D01*
X73175904Y-122150190D01*
X73128285Y-122197809D01*
X73033047Y-122245428D01*
X72842571Y-122245428D01*
X72747333Y-122197809D01*
X72699714Y-122150190D01*
X72652095Y-122054952D01*
%TO.C,R48*%
X120086380Y-93083142D02*
X119610190Y-92749809D01*
X120086380Y-92511714D02*
X119086380Y-92511714D01*
X119086380Y-92892666D01*
X119134000Y-92987904D01*
X119181619Y-93035523D01*
X119276857Y-93083142D01*
X119419714Y-93083142D01*
X119514952Y-93035523D01*
X119562571Y-92987904D01*
X119610190Y-92892666D01*
X119610190Y-92511714D01*
X119419714Y-93940285D02*
X120086380Y-93940285D01*
X119038761Y-93702190D02*
X119753047Y-93464095D01*
X119753047Y-94083142D01*
X119514952Y-94606952D02*
X119467333Y-94511714D01*
X119419714Y-94464095D01*
X119324476Y-94416476D01*
X119276857Y-94416476D01*
X119181619Y-94464095D01*
X119134000Y-94511714D01*
X119086380Y-94606952D01*
X119086380Y-94797428D01*
X119134000Y-94892666D01*
X119181619Y-94940285D01*
X119276857Y-94987904D01*
X119324476Y-94987904D01*
X119419714Y-94940285D01*
X119467333Y-94892666D01*
X119514952Y-94797428D01*
X119514952Y-94606952D01*
X119562571Y-94511714D01*
X119610190Y-94464095D01*
X119705428Y-94416476D01*
X119895904Y-94416476D01*
X119991142Y-94464095D01*
X120038761Y-94511714D01*
X120086380Y-94606952D01*
X120086380Y-94797428D01*
X120038761Y-94892666D01*
X119991142Y-94940285D01*
X119895904Y-94987904D01*
X119705428Y-94987904D01*
X119610190Y-94940285D01*
X119562571Y-94892666D01*
X119514952Y-94797428D01*
%TO.C,C79*%
X124086857Y-133453142D02*
X124134476Y-133500761D01*
X124277333Y-133548380D01*
X124372571Y-133548380D01*
X124515428Y-133500761D01*
X124610666Y-133405523D01*
X124658285Y-133310285D01*
X124705904Y-133119809D01*
X124705904Y-132976952D01*
X124658285Y-132786476D01*
X124610666Y-132691238D01*
X124515428Y-132596000D01*
X124372571Y-132548380D01*
X124277333Y-132548380D01*
X124134476Y-132596000D01*
X124086857Y-132643619D01*
X123753523Y-132548380D02*
X123086857Y-132548380D01*
X123515428Y-133548380D01*
X122658285Y-133548380D02*
X122467809Y-133548380D01*
X122372571Y-133500761D01*
X122324952Y-133453142D01*
X122229714Y-133310285D01*
X122182095Y-133119809D01*
X122182095Y-132738857D01*
X122229714Y-132643619D01*
X122277333Y-132596000D01*
X122372571Y-132548380D01*
X122563047Y-132548380D01*
X122658285Y-132596000D01*
X122705904Y-132643619D01*
X122753523Y-132738857D01*
X122753523Y-132976952D01*
X122705904Y-133072190D01*
X122658285Y-133119809D01*
X122563047Y-133167428D01*
X122372571Y-133167428D01*
X122277333Y-133119809D01*
X122229714Y-133072190D01*
X122182095Y-132976952D01*
%TO.C,R95*%
X125356857Y-130754380D02*
X125690190Y-130278190D01*
X125928285Y-130754380D02*
X125928285Y-129754380D01*
X125547333Y-129754380D01*
X125452095Y-129802000D01*
X125404476Y-129849619D01*
X125356857Y-129944857D01*
X125356857Y-130087714D01*
X125404476Y-130182952D01*
X125452095Y-130230571D01*
X125547333Y-130278190D01*
X125928285Y-130278190D01*
X124880666Y-130754380D02*
X124690190Y-130754380D01*
X124594952Y-130706761D01*
X124547333Y-130659142D01*
X124452095Y-130516285D01*
X124404476Y-130325809D01*
X124404476Y-129944857D01*
X124452095Y-129849619D01*
X124499714Y-129802000D01*
X124594952Y-129754380D01*
X124785428Y-129754380D01*
X124880666Y-129802000D01*
X124928285Y-129849619D01*
X124975904Y-129944857D01*
X124975904Y-130182952D01*
X124928285Y-130278190D01*
X124880666Y-130325809D01*
X124785428Y-130373428D01*
X124594952Y-130373428D01*
X124499714Y-130325809D01*
X124452095Y-130278190D01*
X124404476Y-130182952D01*
X123499714Y-129754380D02*
X123975904Y-129754380D01*
X124023523Y-130230571D01*
X123975904Y-130182952D01*
X123880666Y-130135333D01*
X123642571Y-130135333D01*
X123547333Y-130182952D01*
X123499714Y-130230571D01*
X123452095Y-130325809D01*
X123452095Y-130563904D01*
X123499714Y-130659142D01*
X123547333Y-130706761D01*
X123642571Y-130754380D01*
X123880666Y-130754380D01*
X123975904Y-130706761D01*
X124023523Y-130659142D01*
%TO.C,C45*%
X203334857Y-102973142D02*
X203382476Y-103020761D01*
X203525333Y-103068380D01*
X203620571Y-103068380D01*
X203763428Y-103020761D01*
X203858666Y-102925523D01*
X203906285Y-102830285D01*
X203953904Y-102639809D01*
X203953904Y-102496952D01*
X203906285Y-102306476D01*
X203858666Y-102211238D01*
X203763428Y-102116000D01*
X203620571Y-102068380D01*
X203525333Y-102068380D01*
X203382476Y-102116000D01*
X203334857Y-102163619D01*
X202477714Y-102401714D02*
X202477714Y-103068380D01*
X202715809Y-102020761D02*
X202953904Y-102735047D01*
X202334857Y-102735047D01*
X201477714Y-102068380D02*
X201953904Y-102068380D01*
X202001523Y-102544571D01*
X201953904Y-102496952D01*
X201858666Y-102449333D01*
X201620571Y-102449333D01*
X201525333Y-102496952D01*
X201477714Y-102544571D01*
X201430095Y-102639809D01*
X201430095Y-102877904D01*
X201477714Y-102973142D01*
X201525333Y-103020761D01*
X201620571Y-103068380D01*
X201858666Y-103068380D01*
X201953904Y-103020761D01*
X202001523Y-102973142D01*
%TO.C,R81*%
X214764857Y-112720380D02*
X215098190Y-112244190D01*
X215336285Y-112720380D02*
X215336285Y-111720380D01*
X214955333Y-111720380D01*
X214860095Y-111768000D01*
X214812476Y-111815619D01*
X214764857Y-111910857D01*
X214764857Y-112053714D01*
X214812476Y-112148952D01*
X214860095Y-112196571D01*
X214955333Y-112244190D01*
X215336285Y-112244190D01*
X214193428Y-112148952D02*
X214288666Y-112101333D01*
X214336285Y-112053714D01*
X214383904Y-111958476D01*
X214383904Y-111910857D01*
X214336285Y-111815619D01*
X214288666Y-111768000D01*
X214193428Y-111720380D01*
X214002952Y-111720380D01*
X213907714Y-111768000D01*
X213860095Y-111815619D01*
X213812476Y-111910857D01*
X213812476Y-111958476D01*
X213860095Y-112053714D01*
X213907714Y-112101333D01*
X214002952Y-112148952D01*
X214193428Y-112148952D01*
X214288666Y-112196571D01*
X214336285Y-112244190D01*
X214383904Y-112339428D01*
X214383904Y-112529904D01*
X214336285Y-112625142D01*
X214288666Y-112672761D01*
X214193428Y-112720380D01*
X214002952Y-112720380D01*
X213907714Y-112672761D01*
X213860095Y-112625142D01*
X213812476Y-112529904D01*
X213812476Y-112339428D01*
X213860095Y-112244190D01*
X213907714Y-112196571D01*
X214002952Y-112148952D01*
X212860095Y-112720380D02*
X213431523Y-112720380D01*
X213145809Y-112720380D02*
X213145809Y-111720380D01*
X213241047Y-111863238D01*
X213336285Y-111958476D01*
X213431523Y-112006095D01*
%TO.C,C94*%
X96654857Y-148312142D02*
X96702476Y-148359761D01*
X96845333Y-148407380D01*
X96940571Y-148407380D01*
X97083428Y-148359761D01*
X97178666Y-148264523D01*
X97226285Y-148169285D01*
X97273904Y-147978809D01*
X97273904Y-147835952D01*
X97226285Y-147645476D01*
X97178666Y-147550238D01*
X97083428Y-147455000D01*
X96940571Y-147407380D01*
X96845333Y-147407380D01*
X96702476Y-147455000D01*
X96654857Y-147502619D01*
X96178666Y-148407380D02*
X95988190Y-148407380D01*
X95892952Y-148359761D01*
X95845333Y-148312142D01*
X95750095Y-148169285D01*
X95702476Y-147978809D01*
X95702476Y-147597857D01*
X95750095Y-147502619D01*
X95797714Y-147455000D01*
X95892952Y-147407380D01*
X96083428Y-147407380D01*
X96178666Y-147455000D01*
X96226285Y-147502619D01*
X96273904Y-147597857D01*
X96273904Y-147835952D01*
X96226285Y-147931190D01*
X96178666Y-147978809D01*
X96083428Y-148026428D01*
X95892952Y-148026428D01*
X95797714Y-147978809D01*
X95750095Y-147931190D01*
X95702476Y-147835952D01*
X94845333Y-147740714D02*
X94845333Y-148407380D01*
X95083428Y-147359761D02*
X95321523Y-148074047D01*
X94702476Y-148074047D01*
%TO.C,D28*%
X197810285Y-80462380D02*
X197810285Y-79462380D01*
X197572190Y-79462380D01*
X197429333Y-79510000D01*
X197334095Y-79605238D01*
X197286476Y-79700476D01*
X197238857Y-79890952D01*
X197238857Y-80033809D01*
X197286476Y-80224285D01*
X197334095Y-80319523D01*
X197429333Y-80414761D01*
X197572190Y-80462380D01*
X197810285Y-80462380D01*
X196857904Y-79557619D02*
X196810285Y-79510000D01*
X196715047Y-79462380D01*
X196476952Y-79462380D01*
X196381714Y-79510000D01*
X196334095Y-79557619D01*
X196286476Y-79652857D01*
X196286476Y-79748095D01*
X196334095Y-79890952D01*
X196905523Y-80462380D01*
X196286476Y-80462380D01*
X195715047Y-79890952D02*
X195810285Y-79843333D01*
X195857904Y-79795714D01*
X195905523Y-79700476D01*
X195905523Y-79652857D01*
X195857904Y-79557619D01*
X195810285Y-79510000D01*
X195715047Y-79462380D01*
X195524571Y-79462380D01*
X195429333Y-79510000D01*
X195381714Y-79557619D01*
X195334095Y-79652857D01*
X195334095Y-79700476D01*
X195381714Y-79795714D01*
X195429333Y-79843333D01*
X195524571Y-79890952D01*
X195715047Y-79890952D01*
X195810285Y-79938571D01*
X195857904Y-79986190D01*
X195905523Y-80081428D01*
X195905523Y-80271904D01*
X195857904Y-80367142D01*
X195810285Y-80414761D01*
X195715047Y-80462380D01*
X195524571Y-80462380D01*
X195429333Y-80414761D01*
X195381714Y-80367142D01*
X195334095Y-80271904D01*
X195334095Y-80081428D01*
X195381714Y-79986190D01*
X195429333Y-79938571D01*
X195524571Y-79890952D01*
%TO.C,C80*%
X144152857Y-129770142D02*
X144200476Y-129817761D01*
X144343333Y-129865380D01*
X144438571Y-129865380D01*
X144581428Y-129817761D01*
X144676666Y-129722523D01*
X144724285Y-129627285D01*
X144771904Y-129436809D01*
X144771904Y-129293952D01*
X144724285Y-129103476D01*
X144676666Y-129008238D01*
X144581428Y-128913000D01*
X144438571Y-128865380D01*
X144343333Y-128865380D01*
X144200476Y-128913000D01*
X144152857Y-128960619D01*
X143581428Y-129293952D02*
X143676666Y-129246333D01*
X143724285Y-129198714D01*
X143771904Y-129103476D01*
X143771904Y-129055857D01*
X143724285Y-128960619D01*
X143676666Y-128913000D01*
X143581428Y-128865380D01*
X143390952Y-128865380D01*
X143295714Y-128913000D01*
X143248095Y-128960619D01*
X143200476Y-129055857D01*
X143200476Y-129103476D01*
X143248095Y-129198714D01*
X143295714Y-129246333D01*
X143390952Y-129293952D01*
X143581428Y-129293952D01*
X143676666Y-129341571D01*
X143724285Y-129389190D01*
X143771904Y-129484428D01*
X143771904Y-129674904D01*
X143724285Y-129770142D01*
X143676666Y-129817761D01*
X143581428Y-129865380D01*
X143390952Y-129865380D01*
X143295714Y-129817761D01*
X143248095Y-129770142D01*
X143200476Y-129674904D01*
X143200476Y-129484428D01*
X143248095Y-129389190D01*
X143295714Y-129341571D01*
X143390952Y-129293952D01*
X142581428Y-128865380D02*
X142486190Y-128865380D01*
X142390952Y-128913000D01*
X142343333Y-128960619D01*
X142295714Y-129055857D01*
X142248095Y-129246333D01*
X142248095Y-129484428D01*
X142295714Y-129674904D01*
X142343333Y-129770142D01*
X142390952Y-129817761D01*
X142486190Y-129865380D01*
X142581428Y-129865380D01*
X142676666Y-129817761D01*
X142724285Y-129770142D01*
X142771904Y-129674904D01*
X142819523Y-129484428D01*
X142819523Y-129246333D01*
X142771904Y-129055857D01*
X142724285Y-128960619D01*
X142676666Y-128913000D01*
X142581428Y-128865380D01*
%TO.C,D27*%
X197814285Y-63899380D02*
X197814285Y-62899380D01*
X197576190Y-62899380D01*
X197433333Y-62947000D01*
X197338095Y-63042238D01*
X197290476Y-63137476D01*
X197242857Y-63327952D01*
X197242857Y-63470809D01*
X197290476Y-63661285D01*
X197338095Y-63756523D01*
X197433333Y-63851761D01*
X197576190Y-63899380D01*
X197814285Y-63899380D01*
X196861904Y-62994619D02*
X196814285Y-62947000D01*
X196719047Y-62899380D01*
X196480952Y-62899380D01*
X196385714Y-62947000D01*
X196338095Y-62994619D01*
X196290476Y-63089857D01*
X196290476Y-63185095D01*
X196338095Y-63327952D01*
X196909523Y-63899380D01*
X196290476Y-63899380D01*
X195957142Y-62899380D02*
X195290476Y-62899380D01*
X195719047Y-63899380D01*
%TO.C,R82*%
X206128857Y-127652380D02*
X206462190Y-127176190D01*
X206700285Y-127652380D02*
X206700285Y-126652380D01*
X206319333Y-126652380D01*
X206224095Y-126700000D01*
X206176476Y-126747619D01*
X206128857Y-126842857D01*
X206128857Y-126985714D01*
X206176476Y-127080952D01*
X206224095Y-127128571D01*
X206319333Y-127176190D01*
X206700285Y-127176190D01*
X205557428Y-127080952D02*
X205652666Y-127033333D01*
X205700285Y-126985714D01*
X205747904Y-126890476D01*
X205747904Y-126842857D01*
X205700285Y-126747619D01*
X205652666Y-126700000D01*
X205557428Y-126652380D01*
X205366952Y-126652380D01*
X205271714Y-126700000D01*
X205224095Y-126747619D01*
X205176476Y-126842857D01*
X205176476Y-126890476D01*
X205224095Y-126985714D01*
X205271714Y-127033333D01*
X205366952Y-127080952D01*
X205557428Y-127080952D01*
X205652666Y-127128571D01*
X205700285Y-127176190D01*
X205747904Y-127271428D01*
X205747904Y-127461904D01*
X205700285Y-127557142D01*
X205652666Y-127604761D01*
X205557428Y-127652380D01*
X205366952Y-127652380D01*
X205271714Y-127604761D01*
X205224095Y-127557142D01*
X205176476Y-127461904D01*
X205176476Y-127271428D01*
X205224095Y-127176190D01*
X205271714Y-127128571D01*
X205366952Y-127080952D01*
X204795523Y-126747619D02*
X204747904Y-126700000D01*
X204652666Y-126652380D01*
X204414571Y-126652380D01*
X204319333Y-126700000D01*
X204271714Y-126747619D01*
X204224095Y-126842857D01*
X204224095Y-126938095D01*
X204271714Y-127080952D01*
X204843142Y-127652380D01*
X204224095Y-127652380D01*
%TO.C,C72*%
X199686857Y-118213142D02*
X199734476Y-118260761D01*
X199877333Y-118308380D01*
X199972571Y-118308380D01*
X200115428Y-118260761D01*
X200210666Y-118165523D01*
X200258285Y-118070285D01*
X200305904Y-117879809D01*
X200305904Y-117736952D01*
X200258285Y-117546476D01*
X200210666Y-117451238D01*
X200115428Y-117356000D01*
X199972571Y-117308380D01*
X199877333Y-117308380D01*
X199734476Y-117356000D01*
X199686857Y-117403619D01*
X199353523Y-117308380D02*
X198686857Y-117308380D01*
X199115428Y-118308380D01*
X198353523Y-117403619D02*
X198305904Y-117356000D01*
X198210666Y-117308380D01*
X197972571Y-117308380D01*
X197877333Y-117356000D01*
X197829714Y-117403619D01*
X197782095Y-117498857D01*
X197782095Y-117594095D01*
X197829714Y-117736952D01*
X198401142Y-118308380D01*
X197782095Y-118308380D01*
%TO.C,R66*%
X124594857Y-123770380D02*
X124928190Y-123294190D01*
X125166285Y-123770380D02*
X125166285Y-122770380D01*
X124785333Y-122770380D01*
X124690095Y-122818000D01*
X124642476Y-122865619D01*
X124594857Y-122960857D01*
X124594857Y-123103714D01*
X124642476Y-123198952D01*
X124690095Y-123246571D01*
X124785333Y-123294190D01*
X125166285Y-123294190D01*
X123737714Y-122770380D02*
X123928190Y-122770380D01*
X124023428Y-122818000D01*
X124071047Y-122865619D01*
X124166285Y-123008476D01*
X124213904Y-123198952D01*
X124213904Y-123579904D01*
X124166285Y-123675142D01*
X124118666Y-123722761D01*
X124023428Y-123770380D01*
X123832952Y-123770380D01*
X123737714Y-123722761D01*
X123690095Y-123675142D01*
X123642476Y-123579904D01*
X123642476Y-123341809D01*
X123690095Y-123246571D01*
X123737714Y-123198952D01*
X123832952Y-123151333D01*
X124023428Y-123151333D01*
X124118666Y-123198952D01*
X124166285Y-123246571D01*
X124213904Y-123341809D01*
X122785333Y-122770380D02*
X122975809Y-122770380D01*
X123071047Y-122818000D01*
X123118666Y-122865619D01*
X123213904Y-123008476D01*
X123261523Y-123198952D01*
X123261523Y-123579904D01*
X123213904Y-123675142D01*
X123166285Y-123722761D01*
X123071047Y-123770380D01*
X122880571Y-123770380D01*
X122785333Y-123722761D01*
X122737714Y-123675142D01*
X122690095Y-123579904D01*
X122690095Y-123341809D01*
X122737714Y-123246571D01*
X122785333Y-123198952D01*
X122880571Y-123151333D01*
X123071047Y-123151333D01*
X123166285Y-123198952D01*
X123213904Y-123246571D01*
X123261523Y-123341809D01*
%TO.C,C38*%
X116212857Y-103735142D02*
X116260476Y-103782761D01*
X116403333Y-103830380D01*
X116498571Y-103830380D01*
X116641428Y-103782761D01*
X116736666Y-103687523D01*
X116784285Y-103592285D01*
X116831904Y-103401809D01*
X116831904Y-103258952D01*
X116784285Y-103068476D01*
X116736666Y-102973238D01*
X116641428Y-102878000D01*
X116498571Y-102830380D01*
X116403333Y-102830380D01*
X116260476Y-102878000D01*
X116212857Y-102925619D01*
X115879523Y-102830380D02*
X115260476Y-102830380D01*
X115593809Y-103211333D01*
X115450952Y-103211333D01*
X115355714Y-103258952D01*
X115308095Y-103306571D01*
X115260476Y-103401809D01*
X115260476Y-103639904D01*
X115308095Y-103735142D01*
X115355714Y-103782761D01*
X115450952Y-103830380D01*
X115736666Y-103830380D01*
X115831904Y-103782761D01*
X115879523Y-103735142D01*
X114689047Y-103258952D02*
X114784285Y-103211333D01*
X114831904Y-103163714D01*
X114879523Y-103068476D01*
X114879523Y-103020857D01*
X114831904Y-102925619D01*
X114784285Y-102878000D01*
X114689047Y-102830380D01*
X114498571Y-102830380D01*
X114403333Y-102878000D01*
X114355714Y-102925619D01*
X114308095Y-103020857D01*
X114308095Y-103068476D01*
X114355714Y-103163714D01*
X114403333Y-103211333D01*
X114498571Y-103258952D01*
X114689047Y-103258952D01*
X114784285Y-103306571D01*
X114831904Y-103354190D01*
X114879523Y-103449428D01*
X114879523Y-103639904D01*
X114831904Y-103735142D01*
X114784285Y-103782761D01*
X114689047Y-103830380D01*
X114498571Y-103830380D01*
X114403333Y-103782761D01*
X114355714Y-103735142D01*
X114308095Y-103639904D01*
X114308095Y-103449428D01*
X114355714Y-103354190D01*
X114403333Y-103306571D01*
X114498571Y-103258952D01*
%TO.C,C98*%
X137361142Y-80637142D02*
X137408761Y-80589523D01*
X137456380Y-80446666D01*
X137456380Y-80351428D01*
X137408761Y-80208571D01*
X137313523Y-80113333D01*
X137218285Y-80065714D01*
X137027809Y-80018095D01*
X136884952Y-80018095D01*
X136694476Y-80065714D01*
X136599238Y-80113333D01*
X136504000Y-80208571D01*
X136456380Y-80351428D01*
X136456380Y-80446666D01*
X136504000Y-80589523D01*
X136551619Y-80637142D01*
X137456380Y-81113333D02*
X137456380Y-81303809D01*
X137408761Y-81399047D01*
X137361142Y-81446666D01*
X137218285Y-81541904D01*
X137027809Y-81589523D01*
X136646857Y-81589523D01*
X136551619Y-81541904D01*
X136504000Y-81494285D01*
X136456380Y-81399047D01*
X136456380Y-81208571D01*
X136504000Y-81113333D01*
X136551619Y-81065714D01*
X136646857Y-81018095D01*
X136884952Y-81018095D01*
X136980190Y-81065714D01*
X137027809Y-81113333D01*
X137075428Y-81208571D01*
X137075428Y-81399047D01*
X137027809Y-81494285D01*
X136980190Y-81541904D01*
X136884952Y-81589523D01*
X136884952Y-82160952D02*
X136837333Y-82065714D01*
X136789714Y-82018095D01*
X136694476Y-81970476D01*
X136646857Y-81970476D01*
X136551619Y-82018095D01*
X136504000Y-82065714D01*
X136456380Y-82160952D01*
X136456380Y-82351428D01*
X136504000Y-82446666D01*
X136551619Y-82494285D01*
X136646857Y-82541904D01*
X136694476Y-82541904D01*
X136789714Y-82494285D01*
X136837333Y-82446666D01*
X136884952Y-82351428D01*
X136884952Y-82160952D01*
X136932571Y-82065714D01*
X136980190Y-82018095D01*
X137075428Y-81970476D01*
X137265904Y-81970476D01*
X137361142Y-82018095D01*
X137408761Y-82065714D01*
X137456380Y-82160952D01*
X137456380Y-82351428D01*
X137408761Y-82446666D01*
X137361142Y-82494285D01*
X137265904Y-82541904D01*
X137075428Y-82541904D01*
X136980190Y-82494285D01*
X136932571Y-82446666D01*
X136884952Y-82351428D01*
%TO.C,C36*%
X150248857Y-102973142D02*
X150296476Y-103020761D01*
X150439333Y-103068380D01*
X150534571Y-103068380D01*
X150677428Y-103020761D01*
X150772666Y-102925523D01*
X150820285Y-102830285D01*
X150867904Y-102639809D01*
X150867904Y-102496952D01*
X150820285Y-102306476D01*
X150772666Y-102211238D01*
X150677428Y-102116000D01*
X150534571Y-102068380D01*
X150439333Y-102068380D01*
X150296476Y-102116000D01*
X150248857Y-102163619D01*
X149915523Y-102068380D02*
X149296476Y-102068380D01*
X149629809Y-102449333D01*
X149486952Y-102449333D01*
X149391714Y-102496952D01*
X149344095Y-102544571D01*
X149296476Y-102639809D01*
X149296476Y-102877904D01*
X149344095Y-102973142D01*
X149391714Y-103020761D01*
X149486952Y-103068380D01*
X149772666Y-103068380D01*
X149867904Y-103020761D01*
X149915523Y-102973142D01*
X148439333Y-102068380D02*
X148629809Y-102068380D01*
X148725047Y-102116000D01*
X148772666Y-102163619D01*
X148867904Y-102306476D01*
X148915523Y-102496952D01*
X148915523Y-102877904D01*
X148867904Y-102973142D01*
X148820285Y-103020761D01*
X148725047Y-103068380D01*
X148534571Y-103068380D01*
X148439333Y-103020761D01*
X148391714Y-102973142D01*
X148344095Y-102877904D01*
X148344095Y-102639809D01*
X148391714Y-102544571D01*
X148439333Y-102496952D01*
X148534571Y-102449333D01*
X148725047Y-102449333D01*
X148820285Y-102496952D01*
X148867904Y-102544571D01*
X148915523Y-102639809D01*
%TO.C,R107*%
X207113047Y-53284380D02*
X207446380Y-52808190D01*
X207684476Y-53284380D02*
X207684476Y-52284380D01*
X207303523Y-52284380D01*
X207208285Y-52332000D01*
X207160666Y-52379619D01*
X207113047Y-52474857D01*
X207113047Y-52617714D01*
X207160666Y-52712952D01*
X207208285Y-52760571D01*
X207303523Y-52808190D01*
X207684476Y-52808190D01*
X206160666Y-53284380D02*
X206732095Y-53284380D01*
X206446380Y-53284380D02*
X206446380Y-52284380D01*
X206541619Y-52427238D01*
X206636857Y-52522476D01*
X206732095Y-52570095D01*
X205541619Y-52284380D02*
X205446380Y-52284380D01*
X205351142Y-52332000D01*
X205303523Y-52379619D01*
X205255904Y-52474857D01*
X205208285Y-52665333D01*
X205208285Y-52903428D01*
X205255904Y-53093904D01*
X205303523Y-53189142D01*
X205351142Y-53236761D01*
X205446380Y-53284380D01*
X205541619Y-53284380D01*
X205636857Y-53236761D01*
X205684476Y-53189142D01*
X205732095Y-53093904D01*
X205779714Y-52903428D01*
X205779714Y-52665333D01*
X205732095Y-52474857D01*
X205684476Y-52379619D01*
X205636857Y-52332000D01*
X205541619Y-52284380D01*
X204874952Y-52284380D02*
X204208285Y-52284380D01*
X204636857Y-53284380D01*
%TO.C,R102*%
X163266380Y-76080952D02*
X162790190Y-75747619D01*
X163266380Y-75509523D02*
X162266380Y-75509523D01*
X162266380Y-75890476D01*
X162314000Y-75985714D01*
X162361619Y-76033333D01*
X162456857Y-76080952D01*
X162599714Y-76080952D01*
X162694952Y-76033333D01*
X162742571Y-75985714D01*
X162790190Y-75890476D01*
X162790190Y-75509523D01*
X163266380Y-77033333D02*
X163266380Y-76461904D01*
X163266380Y-76747619D02*
X162266380Y-76747619D01*
X162409238Y-76652380D01*
X162504476Y-76557142D01*
X162552095Y-76461904D01*
X162266380Y-77652380D02*
X162266380Y-77747619D01*
X162314000Y-77842857D01*
X162361619Y-77890476D01*
X162456857Y-77938095D01*
X162647333Y-77985714D01*
X162885428Y-77985714D01*
X163075904Y-77938095D01*
X163171142Y-77890476D01*
X163218761Y-77842857D01*
X163266380Y-77747619D01*
X163266380Y-77652380D01*
X163218761Y-77557142D01*
X163171142Y-77509523D01*
X163075904Y-77461904D01*
X162885428Y-77414285D01*
X162647333Y-77414285D01*
X162456857Y-77461904D01*
X162361619Y-77509523D01*
X162314000Y-77557142D01*
X162266380Y-77652380D01*
X162361619Y-78366666D02*
X162314000Y-78414285D01*
X162266380Y-78509523D01*
X162266380Y-78747619D01*
X162314000Y-78842857D01*
X162361619Y-78890476D01*
X162456857Y-78938095D01*
X162552095Y-78938095D01*
X162694952Y-78890476D01*
X163266380Y-78319047D01*
X163266380Y-78938095D01*
%TO.C,R113*%
X193143047Y-38425380D02*
X193476380Y-37949190D01*
X193714476Y-38425380D02*
X193714476Y-37425380D01*
X193333523Y-37425380D01*
X193238285Y-37473000D01*
X193190666Y-37520619D01*
X193143047Y-37615857D01*
X193143047Y-37758714D01*
X193190666Y-37853952D01*
X193238285Y-37901571D01*
X193333523Y-37949190D01*
X193714476Y-37949190D01*
X192190666Y-38425380D02*
X192762095Y-38425380D01*
X192476380Y-38425380D02*
X192476380Y-37425380D01*
X192571619Y-37568238D01*
X192666857Y-37663476D01*
X192762095Y-37711095D01*
X191238285Y-38425380D02*
X191809714Y-38425380D01*
X191524000Y-38425380D02*
X191524000Y-37425380D01*
X191619238Y-37568238D01*
X191714476Y-37663476D01*
X191809714Y-37711095D01*
X190904952Y-37425380D02*
X190285904Y-37425380D01*
X190619238Y-37806333D01*
X190476380Y-37806333D01*
X190381142Y-37853952D01*
X190333523Y-37901571D01*
X190285904Y-37996809D01*
X190285904Y-38234904D01*
X190333523Y-38330142D01*
X190381142Y-38377761D01*
X190476380Y-38425380D01*
X190762095Y-38425380D01*
X190857333Y-38377761D01*
X190904952Y-38330142D01*
%TO.C,C84*%
X194317857Y-129643142D02*
X194365476Y-129690761D01*
X194508333Y-129738380D01*
X194603571Y-129738380D01*
X194746428Y-129690761D01*
X194841666Y-129595523D01*
X194889285Y-129500285D01*
X194936904Y-129309809D01*
X194936904Y-129166952D01*
X194889285Y-128976476D01*
X194841666Y-128881238D01*
X194746428Y-128786000D01*
X194603571Y-128738380D01*
X194508333Y-128738380D01*
X194365476Y-128786000D01*
X194317857Y-128833619D01*
X193746428Y-129166952D02*
X193841666Y-129119333D01*
X193889285Y-129071714D01*
X193936904Y-128976476D01*
X193936904Y-128928857D01*
X193889285Y-128833619D01*
X193841666Y-128786000D01*
X193746428Y-128738380D01*
X193555952Y-128738380D01*
X193460714Y-128786000D01*
X193413095Y-128833619D01*
X193365476Y-128928857D01*
X193365476Y-128976476D01*
X193413095Y-129071714D01*
X193460714Y-129119333D01*
X193555952Y-129166952D01*
X193746428Y-129166952D01*
X193841666Y-129214571D01*
X193889285Y-129262190D01*
X193936904Y-129357428D01*
X193936904Y-129547904D01*
X193889285Y-129643142D01*
X193841666Y-129690761D01*
X193746428Y-129738380D01*
X193555952Y-129738380D01*
X193460714Y-129690761D01*
X193413095Y-129643142D01*
X193365476Y-129547904D01*
X193365476Y-129357428D01*
X193413095Y-129262190D01*
X193460714Y-129214571D01*
X193555952Y-129166952D01*
X192508333Y-129071714D02*
X192508333Y-129738380D01*
X192746428Y-128690761D02*
X192984523Y-129405047D01*
X192365476Y-129405047D01*
%TO.C,R64*%
X170124380Y-93337142D02*
X169648190Y-93003809D01*
X170124380Y-92765714D02*
X169124380Y-92765714D01*
X169124380Y-93146666D01*
X169172000Y-93241904D01*
X169219619Y-93289523D01*
X169314857Y-93337142D01*
X169457714Y-93337142D01*
X169552952Y-93289523D01*
X169600571Y-93241904D01*
X169648190Y-93146666D01*
X169648190Y-92765714D01*
X169124380Y-94194285D02*
X169124380Y-94003809D01*
X169172000Y-93908571D01*
X169219619Y-93860952D01*
X169362476Y-93765714D01*
X169552952Y-93718095D01*
X169933904Y-93718095D01*
X170029142Y-93765714D01*
X170076761Y-93813333D01*
X170124380Y-93908571D01*
X170124380Y-94099047D01*
X170076761Y-94194285D01*
X170029142Y-94241904D01*
X169933904Y-94289523D01*
X169695809Y-94289523D01*
X169600571Y-94241904D01*
X169552952Y-94194285D01*
X169505333Y-94099047D01*
X169505333Y-93908571D01*
X169552952Y-93813333D01*
X169600571Y-93765714D01*
X169695809Y-93718095D01*
X169457714Y-95146666D02*
X170124380Y-95146666D01*
X169076761Y-94908571D02*
X169791047Y-94670476D01*
X169791047Y-95289523D01*
%TO.C,D21*%
X148026285Y-63698380D02*
X148026285Y-62698380D01*
X147788190Y-62698380D01*
X147645333Y-62746000D01*
X147550095Y-62841238D01*
X147502476Y-62936476D01*
X147454857Y-63126952D01*
X147454857Y-63269809D01*
X147502476Y-63460285D01*
X147550095Y-63555523D01*
X147645333Y-63650761D01*
X147788190Y-63698380D01*
X148026285Y-63698380D01*
X147073904Y-62793619D02*
X147026285Y-62746000D01*
X146931047Y-62698380D01*
X146692952Y-62698380D01*
X146597714Y-62746000D01*
X146550095Y-62793619D01*
X146502476Y-62888857D01*
X146502476Y-62984095D01*
X146550095Y-63126952D01*
X147121523Y-63698380D01*
X146502476Y-63698380D01*
X145550095Y-63698380D02*
X146121523Y-63698380D01*
X145835809Y-63698380D02*
X145835809Y-62698380D01*
X145931047Y-62841238D01*
X146026285Y-62936476D01*
X146121523Y-62984095D01*
%TO.C,C12*%
X65666857Y-110085142D02*
X65714476Y-110132761D01*
X65857333Y-110180380D01*
X65952571Y-110180380D01*
X66095428Y-110132761D01*
X66190666Y-110037523D01*
X66238285Y-109942285D01*
X66285904Y-109751809D01*
X66285904Y-109608952D01*
X66238285Y-109418476D01*
X66190666Y-109323238D01*
X66095428Y-109228000D01*
X65952571Y-109180380D01*
X65857333Y-109180380D01*
X65714476Y-109228000D01*
X65666857Y-109275619D01*
X64714476Y-110180380D02*
X65285904Y-110180380D01*
X65000190Y-110180380D02*
X65000190Y-109180380D01*
X65095428Y-109323238D01*
X65190666Y-109418476D01*
X65285904Y-109466095D01*
X64333523Y-109275619D02*
X64285904Y-109228000D01*
X64190666Y-109180380D01*
X63952571Y-109180380D01*
X63857333Y-109228000D01*
X63809714Y-109275619D01*
X63762095Y-109370857D01*
X63762095Y-109466095D01*
X63809714Y-109608952D01*
X64381142Y-110180380D01*
X63762095Y-110180380D01*
%TO.C,C21*%
X103258857Y-103735142D02*
X103306476Y-103782761D01*
X103449333Y-103830380D01*
X103544571Y-103830380D01*
X103687428Y-103782761D01*
X103782666Y-103687523D01*
X103830285Y-103592285D01*
X103877904Y-103401809D01*
X103877904Y-103258952D01*
X103830285Y-103068476D01*
X103782666Y-102973238D01*
X103687428Y-102878000D01*
X103544571Y-102830380D01*
X103449333Y-102830380D01*
X103306476Y-102878000D01*
X103258857Y-102925619D01*
X102877904Y-102925619D02*
X102830285Y-102878000D01*
X102735047Y-102830380D01*
X102496952Y-102830380D01*
X102401714Y-102878000D01*
X102354095Y-102925619D01*
X102306476Y-103020857D01*
X102306476Y-103116095D01*
X102354095Y-103258952D01*
X102925523Y-103830380D01*
X102306476Y-103830380D01*
X101354095Y-103830380D02*
X101925523Y-103830380D01*
X101639809Y-103830380D02*
X101639809Y-102830380D01*
X101735047Y-102973238D01*
X101830285Y-103068476D01*
X101925523Y-103116095D01*
%TO.C,R32*%
X70048380Y-93083142D02*
X69572190Y-92749809D01*
X70048380Y-92511714D02*
X69048380Y-92511714D01*
X69048380Y-92892666D01*
X69096000Y-92987904D01*
X69143619Y-93035523D01*
X69238857Y-93083142D01*
X69381714Y-93083142D01*
X69476952Y-93035523D01*
X69524571Y-92987904D01*
X69572190Y-92892666D01*
X69572190Y-92511714D01*
X69048380Y-93416476D02*
X69048380Y-94035523D01*
X69429333Y-93702190D01*
X69429333Y-93845047D01*
X69476952Y-93940285D01*
X69524571Y-93987904D01*
X69619809Y-94035523D01*
X69857904Y-94035523D01*
X69953142Y-93987904D01*
X70000761Y-93940285D01*
X70048380Y-93845047D01*
X70048380Y-93559333D01*
X70000761Y-93464095D01*
X69953142Y-93416476D01*
X69143619Y-94416476D02*
X69096000Y-94464095D01*
X69048380Y-94559333D01*
X69048380Y-94797428D01*
X69096000Y-94892666D01*
X69143619Y-94940285D01*
X69238857Y-94987904D01*
X69334095Y-94987904D01*
X69476952Y-94940285D01*
X70048380Y-94368857D01*
X70048380Y-94987904D01*
%TO.C,R23*%
X106052857Y-125420380D02*
X106386190Y-124944190D01*
X106624285Y-125420380D02*
X106624285Y-124420380D01*
X106243333Y-124420380D01*
X106148095Y-124468000D01*
X106100476Y-124515619D01*
X106052857Y-124610857D01*
X106052857Y-124753714D01*
X106100476Y-124848952D01*
X106148095Y-124896571D01*
X106243333Y-124944190D01*
X106624285Y-124944190D01*
X105671904Y-124515619D02*
X105624285Y-124468000D01*
X105529047Y-124420380D01*
X105290952Y-124420380D01*
X105195714Y-124468000D01*
X105148095Y-124515619D01*
X105100476Y-124610857D01*
X105100476Y-124706095D01*
X105148095Y-124848952D01*
X105719523Y-125420380D01*
X105100476Y-125420380D01*
X104767142Y-124420380D02*
X104148095Y-124420380D01*
X104481428Y-124801333D01*
X104338571Y-124801333D01*
X104243333Y-124848952D01*
X104195714Y-124896571D01*
X104148095Y-124991809D01*
X104148095Y-125229904D01*
X104195714Y-125325142D01*
X104243333Y-125372761D01*
X104338571Y-125420380D01*
X104624285Y-125420380D01*
X104719523Y-125372761D01*
X104767142Y-125325142D01*
%TO.C,R110*%
X158091047Y-57094380D02*
X158424380Y-56618190D01*
X158662476Y-57094380D02*
X158662476Y-56094380D01*
X158281523Y-56094380D01*
X158186285Y-56142000D01*
X158138666Y-56189619D01*
X158091047Y-56284857D01*
X158091047Y-56427714D01*
X158138666Y-56522952D01*
X158186285Y-56570571D01*
X158281523Y-56618190D01*
X158662476Y-56618190D01*
X157138666Y-57094380D02*
X157710095Y-57094380D01*
X157424380Y-57094380D02*
X157424380Y-56094380D01*
X157519619Y-56237238D01*
X157614857Y-56332476D01*
X157710095Y-56380095D01*
X156186285Y-57094380D02*
X156757714Y-57094380D01*
X156472000Y-57094380D02*
X156472000Y-56094380D01*
X156567238Y-56237238D01*
X156662476Y-56332476D01*
X156757714Y-56380095D01*
X155567238Y-56094380D02*
X155472000Y-56094380D01*
X155376761Y-56142000D01*
X155329142Y-56189619D01*
X155281523Y-56284857D01*
X155233904Y-56475333D01*
X155233904Y-56713428D01*
X155281523Y-56903904D01*
X155329142Y-56999142D01*
X155376761Y-57046761D01*
X155472000Y-57094380D01*
X155567238Y-57094380D01*
X155662476Y-57046761D01*
X155710095Y-56999142D01*
X155757714Y-56903904D01*
X155805333Y-56713428D01*
X155805333Y-56475333D01*
X155757714Y-56284857D01*
X155710095Y-56189619D01*
X155662476Y-56142000D01*
X155567238Y-56094380D01*
%TO.C,C4*%
X107566666Y-121278142D02*
X107614285Y-121325761D01*
X107757142Y-121373380D01*
X107852380Y-121373380D01*
X107995238Y-121325761D01*
X108090476Y-121230523D01*
X108138095Y-121135285D01*
X108185714Y-120944809D01*
X108185714Y-120801952D01*
X108138095Y-120611476D01*
X108090476Y-120516238D01*
X107995238Y-120421000D01*
X107852380Y-120373380D01*
X107757142Y-120373380D01*
X107614285Y-120421000D01*
X107566666Y-120468619D01*
X106709523Y-120706714D02*
X106709523Y-121373380D01*
X106947619Y-120325761D02*
X107185714Y-121040047D01*
X106566666Y-121040047D01*
%TO.C,C99*%
X192666857Y-48907142D02*
X192714476Y-48954761D01*
X192857333Y-49002380D01*
X192952571Y-49002380D01*
X193095428Y-48954761D01*
X193190666Y-48859523D01*
X193238285Y-48764285D01*
X193285904Y-48573809D01*
X193285904Y-48430952D01*
X193238285Y-48240476D01*
X193190666Y-48145238D01*
X193095428Y-48050000D01*
X192952571Y-48002380D01*
X192857333Y-48002380D01*
X192714476Y-48050000D01*
X192666857Y-48097619D01*
X192190666Y-49002380D02*
X192000190Y-49002380D01*
X191904952Y-48954761D01*
X191857333Y-48907142D01*
X191762095Y-48764285D01*
X191714476Y-48573809D01*
X191714476Y-48192857D01*
X191762095Y-48097619D01*
X191809714Y-48050000D01*
X191904952Y-48002380D01*
X192095428Y-48002380D01*
X192190666Y-48050000D01*
X192238285Y-48097619D01*
X192285904Y-48192857D01*
X192285904Y-48430952D01*
X192238285Y-48526190D01*
X192190666Y-48573809D01*
X192095428Y-48621428D01*
X191904952Y-48621428D01*
X191809714Y-48573809D01*
X191762095Y-48526190D01*
X191714476Y-48430952D01*
X191238285Y-49002380D02*
X191047809Y-49002380D01*
X190952571Y-48954761D01*
X190904952Y-48907142D01*
X190809714Y-48764285D01*
X190762095Y-48573809D01*
X190762095Y-48192857D01*
X190809714Y-48097619D01*
X190857333Y-48050000D01*
X190952571Y-48002380D01*
X191143047Y-48002380D01*
X191238285Y-48050000D01*
X191285904Y-48097619D01*
X191333523Y-48192857D01*
X191333523Y-48430952D01*
X191285904Y-48526190D01*
X191238285Y-48573809D01*
X191143047Y-48621428D01*
X190952571Y-48621428D01*
X190857333Y-48573809D01*
X190809714Y-48526190D01*
X190762095Y-48430952D01*
%TO.C,R21*%
X113672857Y-112720380D02*
X114006190Y-112244190D01*
X114244285Y-112720380D02*
X114244285Y-111720380D01*
X113863333Y-111720380D01*
X113768095Y-111768000D01*
X113720476Y-111815619D01*
X113672857Y-111910857D01*
X113672857Y-112053714D01*
X113720476Y-112148952D01*
X113768095Y-112196571D01*
X113863333Y-112244190D01*
X114244285Y-112244190D01*
X113291904Y-111815619D02*
X113244285Y-111768000D01*
X113149047Y-111720380D01*
X112910952Y-111720380D01*
X112815714Y-111768000D01*
X112768095Y-111815619D01*
X112720476Y-111910857D01*
X112720476Y-112006095D01*
X112768095Y-112148952D01*
X113339523Y-112720380D01*
X112720476Y-112720380D01*
X111768095Y-112720380D02*
X112339523Y-112720380D01*
X112053809Y-112720380D02*
X112053809Y-111720380D01*
X112149047Y-111863238D01*
X112244285Y-111958476D01*
X112339523Y-112006095D01*
%TO.C,C29*%
X178188857Y-115927142D02*
X178236476Y-115974761D01*
X178379333Y-116022380D01*
X178474571Y-116022380D01*
X178617428Y-115974761D01*
X178712666Y-115879523D01*
X178760285Y-115784285D01*
X178807904Y-115593809D01*
X178807904Y-115450952D01*
X178760285Y-115260476D01*
X178712666Y-115165238D01*
X178617428Y-115070000D01*
X178474571Y-115022380D01*
X178379333Y-115022380D01*
X178236476Y-115070000D01*
X178188857Y-115117619D01*
X177807904Y-115117619D02*
X177760285Y-115070000D01*
X177665047Y-115022380D01*
X177426952Y-115022380D01*
X177331714Y-115070000D01*
X177284095Y-115117619D01*
X177236476Y-115212857D01*
X177236476Y-115308095D01*
X177284095Y-115450952D01*
X177855523Y-116022380D01*
X177236476Y-116022380D01*
X176760285Y-116022380D02*
X176569809Y-116022380D01*
X176474571Y-115974761D01*
X176426952Y-115927142D01*
X176331714Y-115784285D01*
X176284095Y-115593809D01*
X176284095Y-115212857D01*
X176331714Y-115117619D01*
X176379333Y-115070000D01*
X176474571Y-115022380D01*
X176665047Y-115022380D01*
X176760285Y-115070000D01*
X176807904Y-115117619D01*
X176855523Y-115212857D01*
X176855523Y-115450952D01*
X176807904Y-115546190D01*
X176760285Y-115593809D01*
X176665047Y-115641428D01*
X176474571Y-115641428D01*
X176379333Y-115593809D01*
X176331714Y-115546190D01*
X176284095Y-115450952D01*
%TO.C,C96*%
X132722857Y-88143142D02*
X132770476Y-88190761D01*
X132913333Y-88238380D01*
X133008571Y-88238380D01*
X133151428Y-88190761D01*
X133246666Y-88095523D01*
X133294285Y-88000285D01*
X133341904Y-87809809D01*
X133341904Y-87666952D01*
X133294285Y-87476476D01*
X133246666Y-87381238D01*
X133151428Y-87286000D01*
X133008571Y-87238380D01*
X132913333Y-87238380D01*
X132770476Y-87286000D01*
X132722857Y-87333619D01*
X132246666Y-88238380D02*
X132056190Y-88238380D01*
X131960952Y-88190761D01*
X131913333Y-88143142D01*
X131818095Y-88000285D01*
X131770476Y-87809809D01*
X131770476Y-87428857D01*
X131818095Y-87333619D01*
X131865714Y-87286000D01*
X131960952Y-87238380D01*
X132151428Y-87238380D01*
X132246666Y-87286000D01*
X132294285Y-87333619D01*
X132341904Y-87428857D01*
X132341904Y-87666952D01*
X132294285Y-87762190D01*
X132246666Y-87809809D01*
X132151428Y-87857428D01*
X131960952Y-87857428D01*
X131865714Y-87809809D01*
X131818095Y-87762190D01*
X131770476Y-87666952D01*
X130913333Y-87238380D02*
X131103809Y-87238380D01*
X131199047Y-87286000D01*
X131246666Y-87333619D01*
X131341904Y-87476476D01*
X131389523Y-87666952D01*
X131389523Y-88047904D01*
X131341904Y-88143142D01*
X131294285Y-88190761D01*
X131199047Y-88238380D01*
X131008571Y-88238380D01*
X130913333Y-88190761D01*
X130865714Y-88143142D01*
X130818095Y-88047904D01*
X130818095Y-87809809D01*
X130865714Y-87714571D01*
X130913333Y-87666952D01*
X131008571Y-87619333D01*
X131199047Y-87619333D01*
X131294285Y-87666952D01*
X131341904Y-87714571D01*
X131389523Y-87809809D01*
%TO.C,R128*%
X63603047Y-128468380D02*
X63936380Y-127992190D01*
X64174476Y-128468380D02*
X64174476Y-127468380D01*
X63793523Y-127468380D01*
X63698285Y-127516000D01*
X63650666Y-127563619D01*
X63603047Y-127658857D01*
X63603047Y-127801714D01*
X63650666Y-127896952D01*
X63698285Y-127944571D01*
X63793523Y-127992190D01*
X64174476Y-127992190D01*
X62650666Y-128468380D02*
X63222095Y-128468380D01*
X62936380Y-128468380D02*
X62936380Y-127468380D01*
X63031619Y-127611238D01*
X63126857Y-127706476D01*
X63222095Y-127754095D01*
X62269714Y-127563619D02*
X62222095Y-127516000D01*
X62126857Y-127468380D01*
X61888761Y-127468380D01*
X61793523Y-127516000D01*
X61745904Y-127563619D01*
X61698285Y-127658857D01*
X61698285Y-127754095D01*
X61745904Y-127896952D01*
X62317333Y-128468380D01*
X61698285Y-128468380D01*
X61126857Y-127896952D02*
X61222095Y-127849333D01*
X61269714Y-127801714D01*
X61317333Y-127706476D01*
X61317333Y-127658857D01*
X61269714Y-127563619D01*
X61222095Y-127516000D01*
X61126857Y-127468380D01*
X60936380Y-127468380D01*
X60841142Y-127516000D01*
X60793523Y-127563619D01*
X60745904Y-127658857D01*
X60745904Y-127706476D01*
X60793523Y-127801714D01*
X60841142Y-127849333D01*
X60936380Y-127896952D01*
X61126857Y-127896952D01*
X61222095Y-127944571D01*
X61269714Y-127992190D01*
X61317333Y-128087428D01*
X61317333Y-128277904D01*
X61269714Y-128373142D01*
X61222095Y-128420761D01*
X61126857Y-128468380D01*
X60936380Y-128468380D01*
X60841142Y-128420761D01*
X60793523Y-128373142D01*
X60745904Y-128277904D01*
X60745904Y-128087428D01*
X60793523Y-127992190D01*
X60841142Y-127944571D01*
X60936380Y-127896952D01*
%TO.C,R77*%
X178696857Y-122626380D02*
X179030190Y-122150190D01*
X179268285Y-122626380D02*
X179268285Y-121626380D01*
X178887333Y-121626380D01*
X178792095Y-121674000D01*
X178744476Y-121721619D01*
X178696857Y-121816857D01*
X178696857Y-121959714D01*
X178744476Y-122054952D01*
X178792095Y-122102571D01*
X178887333Y-122150190D01*
X179268285Y-122150190D01*
X178363523Y-121626380D02*
X177696857Y-121626380D01*
X178125428Y-122626380D01*
X177411142Y-121626380D02*
X176744476Y-121626380D01*
X177173047Y-122626380D01*
%TO.C,R72*%
X150121857Y-120848380D02*
X150455190Y-120372190D01*
X150693285Y-120848380D02*
X150693285Y-119848380D01*
X150312333Y-119848380D01*
X150217095Y-119896000D01*
X150169476Y-119943619D01*
X150121857Y-120038857D01*
X150121857Y-120181714D01*
X150169476Y-120276952D01*
X150217095Y-120324571D01*
X150312333Y-120372190D01*
X150693285Y-120372190D01*
X149788523Y-119848380D02*
X149121857Y-119848380D01*
X149550428Y-120848380D01*
X148788523Y-119943619D02*
X148740904Y-119896000D01*
X148645666Y-119848380D01*
X148407571Y-119848380D01*
X148312333Y-119896000D01*
X148264714Y-119943619D01*
X148217095Y-120038857D01*
X148217095Y-120134095D01*
X148264714Y-120276952D01*
X148836142Y-120848380D01*
X148217095Y-120848380D01*
%TO.C,C47*%
X169044857Y-103481142D02*
X169092476Y-103528761D01*
X169235333Y-103576380D01*
X169330571Y-103576380D01*
X169473428Y-103528761D01*
X169568666Y-103433523D01*
X169616285Y-103338285D01*
X169663904Y-103147809D01*
X169663904Y-103004952D01*
X169616285Y-102814476D01*
X169568666Y-102719238D01*
X169473428Y-102624000D01*
X169330571Y-102576380D01*
X169235333Y-102576380D01*
X169092476Y-102624000D01*
X169044857Y-102671619D01*
X168187714Y-102909714D02*
X168187714Y-103576380D01*
X168425809Y-102528761D02*
X168663904Y-103243047D01*
X168044857Y-103243047D01*
X167759142Y-102576380D02*
X167092476Y-102576380D01*
X167521047Y-103576380D01*
%TO.C,D22*%
X148026285Y-80335380D02*
X148026285Y-79335380D01*
X147788190Y-79335380D01*
X147645333Y-79383000D01*
X147550095Y-79478238D01*
X147502476Y-79573476D01*
X147454857Y-79763952D01*
X147454857Y-79906809D01*
X147502476Y-80097285D01*
X147550095Y-80192523D01*
X147645333Y-80287761D01*
X147788190Y-80335380D01*
X148026285Y-80335380D01*
X147073904Y-79430619D02*
X147026285Y-79383000D01*
X146931047Y-79335380D01*
X146692952Y-79335380D01*
X146597714Y-79383000D01*
X146550095Y-79430619D01*
X146502476Y-79525857D01*
X146502476Y-79621095D01*
X146550095Y-79763952D01*
X147121523Y-80335380D01*
X146502476Y-80335380D01*
X146121523Y-79430619D02*
X146073904Y-79383000D01*
X145978666Y-79335380D01*
X145740571Y-79335380D01*
X145645333Y-79383000D01*
X145597714Y-79430619D01*
X145550095Y-79525857D01*
X145550095Y-79621095D01*
X145597714Y-79763952D01*
X146169142Y-80335380D01*
X145550095Y-80335380D01*
%TO.C,R98*%
X219463857Y-59634380D02*
X219797190Y-59158190D01*
X220035285Y-59634380D02*
X220035285Y-58634380D01*
X219654333Y-58634380D01*
X219559095Y-58682000D01*
X219511476Y-58729619D01*
X219463857Y-58824857D01*
X219463857Y-58967714D01*
X219511476Y-59062952D01*
X219559095Y-59110571D01*
X219654333Y-59158190D01*
X220035285Y-59158190D01*
X218987666Y-59634380D02*
X218797190Y-59634380D01*
X218701952Y-59586761D01*
X218654333Y-59539142D01*
X218559095Y-59396285D01*
X218511476Y-59205809D01*
X218511476Y-58824857D01*
X218559095Y-58729619D01*
X218606714Y-58682000D01*
X218701952Y-58634380D01*
X218892428Y-58634380D01*
X218987666Y-58682000D01*
X219035285Y-58729619D01*
X219082904Y-58824857D01*
X219082904Y-59062952D01*
X219035285Y-59158190D01*
X218987666Y-59205809D01*
X218892428Y-59253428D01*
X218701952Y-59253428D01*
X218606714Y-59205809D01*
X218559095Y-59158190D01*
X218511476Y-59062952D01*
X217940047Y-59062952D02*
X218035285Y-59015333D01*
X218082904Y-58967714D01*
X218130523Y-58872476D01*
X218130523Y-58824857D01*
X218082904Y-58729619D01*
X218035285Y-58682000D01*
X217940047Y-58634380D01*
X217749571Y-58634380D01*
X217654333Y-58682000D01*
X217606714Y-58729619D01*
X217559095Y-58824857D01*
X217559095Y-58872476D01*
X217606714Y-58967714D01*
X217654333Y-59015333D01*
X217749571Y-59062952D01*
X217940047Y-59062952D01*
X218035285Y-59110571D01*
X218082904Y-59158190D01*
X218130523Y-59253428D01*
X218130523Y-59443904D01*
X218082904Y-59539142D01*
X218035285Y-59586761D01*
X217940047Y-59634380D01*
X217749571Y-59634380D01*
X217654333Y-59586761D01*
X217606714Y-59539142D01*
X217559095Y-59443904D01*
X217559095Y-59253428D01*
X217606714Y-59158190D01*
X217654333Y-59110571D01*
X217749571Y-59062952D01*
%TO.C,R115*%
X204319047Y-48076380D02*
X204652380Y-47600190D01*
X204890476Y-48076380D02*
X204890476Y-47076380D01*
X204509523Y-47076380D01*
X204414285Y-47124000D01*
X204366666Y-47171619D01*
X204319047Y-47266857D01*
X204319047Y-47409714D01*
X204366666Y-47504952D01*
X204414285Y-47552571D01*
X204509523Y-47600190D01*
X204890476Y-47600190D01*
X203366666Y-48076380D02*
X203938095Y-48076380D01*
X203652380Y-48076380D02*
X203652380Y-47076380D01*
X203747619Y-47219238D01*
X203842857Y-47314476D01*
X203938095Y-47362095D01*
X202414285Y-48076380D02*
X202985714Y-48076380D01*
X202700000Y-48076380D02*
X202700000Y-47076380D01*
X202795238Y-47219238D01*
X202890476Y-47314476D01*
X202985714Y-47362095D01*
X201509523Y-47076380D02*
X201985714Y-47076380D01*
X202033333Y-47552571D01*
X201985714Y-47504952D01*
X201890476Y-47457333D01*
X201652380Y-47457333D01*
X201557142Y-47504952D01*
X201509523Y-47552571D01*
X201461904Y-47647809D01*
X201461904Y-47885904D01*
X201509523Y-47981142D01*
X201557142Y-48028761D01*
X201652380Y-48076380D01*
X201890476Y-48076380D01*
X201985714Y-48028761D01*
X202033333Y-47981142D01*
%TO.C,C95*%
X106179857Y-148312142D02*
X106227476Y-148359761D01*
X106370333Y-148407380D01*
X106465571Y-148407380D01*
X106608428Y-148359761D01*
X106703666Y-148264523D01*
X106751285Y-148169285D01*
X106798904Y-147978809D01*
X106798904Y-147835952D01*
X106751285Y-147645476D01*
X106703666Y-147550238D01*
X106608428Y-147455000D01*
X106465571Y-147407380D01*
X106370333Y-147407380D01*
X106227476Y-147455000D01*
X106179857Y-147502619D01*
X105703666Y-148407380D02*
X105513190Y-148407380D01*
X105417952Y-148359761D01*
X105370333Y-148312142D01*
X105275095Y-148169285D01*
X105227476Y-147978809D01*
X105227476Y-147597857D01*
X105275095Y-147502619D01*
X105322714Y-147455000D01*
X105417952Y-147407380D01*
X105608428Y-147407380D01*
X105703666Y-147455000D01*
X105751285Y-147502619D01*
X105798904Y-147597857D01*
X105798904Y-147835952D01*
X105751285Y-147931190D01*
X105703666Y-147978809D01*
X105608428Y-148026428D01*
X105417952Y-148026428D01*
X105322714Y-147978809D01*
X105275095Y-147931190D01*
X105227476Y-147835952D01*
X104322714Y-147407380D02*
X104798904Y-147407380D01*
X104846523Y-147883571D01*
X104798904Y-147835952D01*
X104703666Y-147788333D01*
X104465571Y-147788333D01*
X104370333Y-147835952D01*
X104322714Y-147883571D01*
X104275095Y-147978809D01*
X104275095Y-148216904D01*
X104322714Y-148312142D01*
X104370333Y-148359761D01*
X104465571Y-148407380D01*
X104703666Y-148407380D01*
X104798904Y-148359761D01*
X104846523Y-148312142D01*
%TO.C,R31*%
X110688380Y-80891142D02*
X110212190Y-80557809D01*
X110688380Y-80319714D02*
X109688380Y-80319714D01*
X109688380Y-80700666D01*
X109736000Y-80795904D01*
X109783619Y-80843523D01*
X109878857Y-80891142D01*
X110021714Y-80891142D01*
X110116952Y-80843523D01*
X110164571Y-80795904D01*
X110212190Y-80700666D01*
X110212190Y-80319714D01*
X109688380Y-81224476D02*
X109688380Y-81843523D01*
X110069333Y-81510190D01*
X110069333Y-81653047D01*
X110116952Y-81748285D01*
X110164571Y-81795904D01*
X110259809Y-81843523D01*
X110497904Y-81843523D01*
X110593142Y-81795904D01*
X110640761Y-81748285D01*
X110688380Y-81653047D01*
X110688380Y-81367333D01*
X110640761Y-81272095D01*
X110593142Y-81224476D01*
X110688380Y-82795904D02*
X110688380Y-82224476D01*
X110688380Y-82510190D02*
X109688380Y-82510190D01*
X109831238Y-82414952D01*
X109926476Y-82319714D01*
X109974095Y-82224476D01*
%TO.C,R133*%
X168854380Y-138326952D02*
X168378190Y-137993619D01*
X168854380Y-137755523D02*
X167854380Y-137755523D01*
X167854380Y-138136476D01*
X167902000Y-138231714D01*
X167949619Y-138279333D01*
X168044857Y-138326952D01*
X168187714Y-138326952D01*
X168282952Y-138279333D01*
X168330571Y-138231714D01*
X168378190Y-138136476D01*
X168378190Y-137755523D01*
X168854380Y-139279333D02*
X168854380Y-138707904D01*
X168854380Y-138993619D02*
X167854380Y-138993619D01*
X167997238Y-138898380D01*
X168092476Y-138803142D01*
X168140095Y-138707904D01*
X167854380Y-139612666D02*
X167854380Y-140231714D01*
X168235333Y-139898380D01*
X168235333Y-140041238D01*
X168282952Y-140136476D01*
X168330571Y-140184095D01*
X168425809Y-140231714D01*
X168663904Y-140231714D01*
X168759142Y-140184095D01*
X168806761Y-140136476D01*
X168854380Y-140041238D01*
X168854380Y-139755523D01*
X168806761Y-139660285D01*
X168759142Y-139612666D01*
X167854380Y-140565047D02*
X167854380Y-141184095D01*
X168235333Y-140850761D01*
X168235333Y-140993619D01*
X168282952Y-141088857D01*
X168330571Y-141136476D01*
X168425809Y-141184095D01*
X168663904Y-141184095D01*
X168759142Y-141136476D01*
X168806761Y-141088857D01*
X168854380Y-140993619D01*
X168854380Y-140707904D01*
X168806761Y-140612666D01*
X168759142Y-140565047D01*
%TO.C,R14*%
X65984380Y-133961142D02*
X65508190Y-133627809D01*
X65984380Y-133389714D02*
X64984380Y-133389714D01*
X64984380Y-133770666D01*
X65032000Y-133865904D01*
X65079619Y-133913523D01*
X65174857Y-133961142D01*
X65317714Y-133961142D01*
X65412952Y-133913523D01*
X65460571Y-133865904D01*
X65508190Y-133770666D01*
X65508190Y-133389714D01*
X65984380Y-134913523D02*
X65984380Y-134342095D01*
X65984380Y-134627809D02*
X64984380Y-134627809D01*
X65127238Y-134532571D01*
X65222476Y-134437333D01*
X65270095Y-134342095D01*
X65317714Y-135770666D02*
X65984380Y-135770666D01*
X64936761Y-135532571D02*
X65651047Y-135294476D01*
X65651047Y-135913523D01*
%TO.C,R71*%
X155582857Y-125420380D02*
X155916190Y-124944190D01*
X156154285Y-125420380D02*
X156154285Y-124420380D01*
X155773333Y-124420380D01*
X155678095Y-124468000D01*
X155630476Y-124515619D01*
X155582857Y-124610857D01*
X155582857Y-124753714D01*
X155630476Y-124848952D01*
X155678095Y-124896571D01*
X155773333Y-124944190D01*
X156154285Y-124944190D01*
X155249523Y-124420380D02*
X154582857Y-124420380D01*
X155011428Y-125420380D01*
X153678095Y-125420380D02*
X154249523Y-125420380D01*
X153963809Y-125420380D02*
X153963809Y-124420380D01*
X154059047Y-124563238D01*
X154154285Y-124658476D01*
X154249523Y-124706095D01*
%TO.C,R134*%
X166252380Y-139680952D02*
X165776190Y-139347619D01*
X166252380Y-139109523D02*
X165252380Y-139109523D01*
X165252380Y-139490476D01*
X165300000Y-139585714D01*
X165347619Y-139633333D01*
X165442857Y-139680952D01*
X165585714Y-139680952D01*
X165680952Y-139633333D01*
X165728571Y-139585714D01*
X165776190Y-139490476D01*
X165776190Y-139109523D01*
X166252380Y-140633333D02*
X166252380Y-140061904D01*
X166252380Y-140347619D02*
X165252380Y-140347619D01*
X165395238Y-140252380D01*
X165490476Y-140157142D01*
X165538095Y-140061904D01*
X165252380Y-140966666D02*
X165252380Y-141585714D01*
X165633333Y-141252380D01*
X165633333Y-141395238D01*
X165680952Y-141490476D01*
X165728571Y-141538095D01*
X165823809Y-141585714D01*
X166061904Y-141585714D01*
X166157142Y-141538095D01*
X166204761Y-141490476D01*
X166252380Y-141395238D01*
X166252380Y-141109523D01*
X166204761Y-141014285D01*
X166157142Y-140966666D01*
X165585714Y-142442857D02*
X166252380Y-142442857D01*
X165204761Y-142204761D02*
X165919047Y-141966666D01*
X165919047Y-142585714D01*
%TO.C,C86*%
X195242857Y-44957142D02*
X195290476Y-45004761D01*
X195433333Y-45052380D01*
X195528571Y-45052380D01*
X195671428Y-45004761D01*
X195766666Y-44909523D01*
X195814285Y-44814285D01*
X195861904Y-44623809D01*
X195861904Y-44480952D01*
X195814285Y-44290476D01*
X195766666Y-44195238D01*
X195671428Y-44100000D01*
X195528571Y-44052380D01*
X195433333Y-44052380D01*
X195290476Y-44100000D01*
X195242857Y-44147619D01*
X194671428Y-44480952D02*
X194766666Y-44433333D01*
X194814285Y-44385714D01*
X194861904Y-44290476D01*
X194861904Y-44242857D01*
X194814285Y-44147619D01*
X194766666Y-44100000D01*
X194671428Y-44052380D01*
X194480952Y-44052380D01*
X194385714Y-44100000D01*
X194338095Y-44147619D01*
X194290476Y-44242857D01*
X194290476Y-44290476D01*
X194338095Y-44385714D01*
X194385714Y-44433333D01*
X194480952Y-44480952D01*
X194671428Y-44480952D01*
X194766666Y-44528571D01*
X194814285Y-44576190D01*
X194861904Y-44671428D01*
X194861904Y-44861904D01*
X194814285Y-44957142D01*
X194766666Y-45004761D01*
X194671428Y-45052380D01*
X194480952Y-45052380D01*
X194385714Y-45004761D01*
X194338095Y-44957142D01*
X194290476Y-44861904D01*
X194290476Y-44671428D01*
X194338095Y-44576190D01*
X194385714Y-44528571D01*
X194480952Y-44480952D01*
X193433333Y-44052380D02*
X193623809Y-44052380D01*
X193719047Y-44100000D01*
X193766666Y-44147619D01*
X193861904Y-44290476D01*
X193909523Y-44480952D01*
X193909523Y-44861904D01*
X193861904Y-44957142D01*
X193814285Y-45004761D01*
X193719047Y-45052380D01*
X193528571Y-45052380D01*
X193433333Y-45004761D01*
X193385714Y-44957142D01*
X193338095Y-44861904D01*
X193338095Y-44623809D01*
X193385714Y-44528571D01*
X193433333Y-44480952D01*
X193528571Y-44433333D01*
X193719047Y-44433333D01*
X193814285Y-44480952D01*
X193861904Y-44528571D01*
X193909523Y-44623809D01*
%TO.C,R79*%
X178188857Y-120848380D02*
X178522190Y-120372190D01*
X178760285Y-120848380D02*
X178760285Y-119848380D01*
X178379333Y-119848380D01*
X178284095Y-119896000D01*
X178236476Y-119943619D01*
X178188857Y-120038857D01*
X178188857Y-120181714D01*
X178236476Y-120276952D01*
X178284095Y-120324571D01*
X178379333Y-120372190D01*
X178760285Y-120372190D01*
X177855523Y-119848380D02*
X177188857Y-119848380D01*
X177617428Y-120848380D01*
X176760285Y-120848380D02*
X176569809Y-120848380D01*
X176474571Y-120800761D01*
X176426952Y-120753142D01*
X176331714Y-120610285D01*
X176284095Y-120419809D01*
X176284095Y-120038857D01*
X176331714Y-119943619D01*
X176379333Y-119896000D01*
X176474571Y-119848380D01*
X176665047Y-119848380D01*
X176760285Y-119896000D01*
X176807904Y-119943619D01*
X176855523Y-120038857D01*
X176855523Y-120276952D01*
X176807904Y-120372190D01*
X176760285Y-120419809D01*
X176665047Y-120467428D01*
X176474571Y-120467428D01*
X176379333Y-120419809D01*
X176331714Y-120372190D01*
X176284095Y-120276952D01*
%TO.C,D6*%
X98274095Y-80462380D02*
X98274095Y-79462380D01*
X98036000Y-79462380D01*
X97893142Y-79510000D01*
X97797904Y-79605238D01*
X97750285Y-79700476D01*
X97702666Y-79890952D01*
X97702666Y-80033809D01*
X97750285Y-80224285D01*
X97797904Y-80319523D01*
X97893142Y-80414761D01*
X98036000Y-80462380D01*
X98274095Y-80462380D01*
X96845523Y-79462380D02*
X97036000Y-79462380D01*
X97131238Y-79510000D01*
X97178857Y-79557619D01*
X97274095Y-79700476D01*
X97321714Y-79890952D01*
X97321714Y-80271904D01*
X97274095Y-80367142D01*
X97226476Y-80414761D01*
X97131238Y-80462380D01*
X96940761Y-80462380D01*
X96845523Y-80414761D01*
X96797904Y-80367142D01*
X96750285Y-80271904D01*
X96750285Y-80033809D01*
X96797904Y-79938571D01*
X96845523Y-79890952D01*
X96940761Y-79843333D01*
X97131238Y-79843333D01*
X97226476Y-79890952D01*
X97274095Y-79938571D01*
X97321714Y-80033809D01*
%TO.C,R78*%
X174632857Y-123770380D02*
X174966190Y-123294190D01*
X175204285Y-123770380D02*
X175204285Y-122770380D01*
X174823333Y-122770380D01*
X174728095Y-122818000D01*
X174680476Y-122865619D01*
X174632857Y-122960857D01*
X174632857Y-123103714D01*
X174680476Y-123198952D01*
X174728095Y-123246571D01*
X174823333Y-123294190D01*
X175204285Y-123294190D01*
X174299523Y-122770380D02*
X173632857Y-122770380D01*
X174061428Y-123770380D01*
X173109047Y-123198952D02*
X173204285Y-123151333D01*
X173251904Y-123103714D01*
X173299523Y-123008476D01*
X173299523Y-122960857D01*
X173251904Y-122865619D01*
X173204285Y-122818000D01*
X173109047Y-122770380D01*
X172918571Y-122770380D01*
X172823333Y-122818000D01*
X172775714Y-122865619D01*
X172728095Y-122960857D01*
X172728095Y-123008476D01*
X172775714Y-123103714D01*
X172823333Y-123151333D01*
X172918571Y-123198952D01*
X173109047Y-123198952D01*
X173204285Y-123246571D01*
X173251904Y-123294190D01*
X173299523Y-123389428D01*
X173299523Y-123579904D01*
X173251904Y-123675142D01*
X173204285Y-123722761D01*
X173109047Y-123770380D01*
X172918571Y-123770380D01*
X172823333Y-123722761D01*
X172775714Y-123675142D01*
X172728095Y-123579904D01*
X172728095Y-123389428D01*
X172775714Y-123294190D01*
X172823333Y-123246571D01*
X172918571Y-123198952D01*
%TO.C,R80*%
X167520857Y-112720380D02*
X167854190Y-112244190D01*
X168092285Y-112720380D02*
X168092285Y-111720380D01*
X167711333Y-111720380D01*
X167616095Y-111768000D01*
X167568476Y-111815619D01*
X167520857Y-111910857D01*
X167520857Y-112053714D01*
X167568476Y-112148952D01*
X167616095Y-112196571D01*
X167711333Y-112244190D01*
X168092285Y-112244190D01*
X166949428Y-112148952D02*
X167044666Y-112101333D01*
X167092285Y-112053714D01*
X167139904Y-111958476D01*
X167139904Y-111910857D01*
X167092285Y-111815619D01*
X167044666Y-111768000D01*
X166949428Y-111720380D01*
X166758952Y-111720380D01*
X166663714Y-111768000D01*
X166616095Y-111815619D01*
X166568476Y-111910857D01*
X166568476Y-111958476D01*
X166616095Y-112053714D01*
X166663714Y-112101333D01*
X166758952Y-112148952D01*
X166949428Y-112148952D01*
X167044666Y-112196571D01*
X167092285Y-112244190D01*
X167139904Y-112339428D01*
X167139904Y-112529904D01*
X167092285Y-112625142D01*
X167044666Y-112672761D01*
X166949428Y-112720380D01*
X166758952Y-112720380D01*
X166663714Y-112672761D01*
X166616095Y-112625142D01*
X166568476Y-112529904D01*
X166568476Y-112339428D01*
X166616095Y-112244190D01*
X166663714Y-112196571D01*
X166758952Y-112148952D01*
X165949428Y-111720380D02*
X165854190Y-111720380D01*
X165758952Y-111768000D01*
X165711333Y-111815619D01*
X165663714Y-111910857D01*
X165616095Y-112101333D01*
X165616095Y-112339428D01*
X165663714Y-112529904D01*
X165711333Y-112625142D01*
X165758952Y-112672761D01*
X165854190Y-112720380D01*
X165949428Y-112720380D01*
X166044666Y-112672761D01*
X166092285Y-112625142D01*
X166139904Y-112529904D01*
X166187523Y-112339428D01*
X166187523Y-112101333D01*
X166139904Y-111910857D01*
X166092285Y-111815619D01*
X166044666Y-111768000D01*
X165949428Y-111720380D01*
%TO.C,R24*%
X100337857Y-120848380D02*
X100671190Y-120372190D01*
X100909285Y-120848380D02*
X100909285Y-119848380D01*
X100528333Y-119848380D01*
X100433095Y-119896000D01*
X100385476Y-119943619D01*
X100337857Y-120038857D01*
X100337857Y-120181714D01*
X100385476Y-120276952D01*
X100433095Y-120324571D01*
X100528333Y-120372190D01*
X100909285Y-120372190D01*
X99956904Y-119943619D02*
X99909285Y-119896000D01*
X99814047Y-119848380D01*
X99575952Y-119848380D01*
X99480714Y-119896000D01*
X99433095Y-119943619D01*
X99385476Y-120038857D01*
X99385476Y-120134095D01*
X99433095Y-120276952D01*
X100004523Y-120848380D01*
X99385476Y-120848380D01*
X98528333Y-120181714D02*
X98528333Y-120848380D01*
X98766428Y-119800761D02*
X99004523Y-120515047D01*
X98385476Y-120515047D01*
%TO.C,C13*%
X113672857Y-110085142D02*
X113720476Y-110132761D01*
X113863333Y-110180380D01*
X113958571Y-110180380D01*
X114101428Y-110132761D01*
X114196666Y-110037523D01*
X114244285Y-109942285D01*
X114291904Y-109751809D01*
X114291904Y-109608952D01*
X114244285Y-109418476D01*
X114196666Y-109323238D01*
X114101428Y-109228000D01*
X113958571Y-109180380D01*
X113863333Y-109180380D01*
X113720476Y-109228000D01*
X113672857Y-109275619D01*
X112720476Y-110180380D02*
X113291904Y-110180380D01*
X113006190Y-110180380D02*
X113006190Y-109180380D01*
X113101428Y-109323238D01*
X113196666Y-109418476D01*
X113291904Y-109466095D01*
X112387142Y-109180380D02*
X111768095Y-109180380D01*
X112101428Y-109561333D01*
X111958571Y-109561333D01*
X111863333Y-109608952D01*
X111815714Y-109656571D01*
X111768095Y-109751809D01*
X111768095Y-109989904D01*
X111815714Y-110085142D01*
X111863333Y-110132761D01*
X111958571Y-110180380D01*
X112244285Y-110180380D01*
X112339523Y-110132761D01*
X112387142Y-110085142D01*
%TO.C,R68*%
X117990857Y-112720380D02*
X118324190Y-112244190D01*
X118562285Y-112720380D02*
X118562285Y-111720380D01*
X118181333Y-111720380D01*
X118086095Y-111768000D01*
X118038476Y-111815619D01*
X117990857Y-111910857D01*
X117990857Y-112053714D01*
X118038476Y-112148952D01*
X118086095Y-112196571D01*
X118181333Y-112244190D01*
X118562285Y-112244190D01*
X117133714Y-111720380D02*
X117324190Y-111720380D01*
X117419428Y-111768000D01*
X117467047Y-111815619D01*
X117562285Y-111958476D01*
X117609904Y-112148952D01*
X117609904Y-112529904D01*
X117562285Y-112625142D01*
X117514666Y-112672761D01*
X117419428Y-112720380D01*
X117228952Y-112720380D01*
X117133714Y-112672761D01*
X117086095Y-112625142D01*
X117038476Y-112529904D01*
X117038476Y-112291809D01*
X117086095Y-112196571D01*
X117133714Y-112148952D01*
X117228952Y-112101333D01*
X117419428Y-112101333D01*
X117514666Y-112148952D01*
X117562285Y-112196571D01*
X117609904Y-112291809D01*
X116467047Y-112148952D02*
X116562285Y-112101333D01*
X116609904Y-112053714D01*
X116657523Y-111958476D01*
X116657523Y-111910857D01*
X116609904Y-111815619D01*
X116562285Y-111768000D01*
X116467047Y-111720380D01*
X116276571Y-111720380D01*
X116181333Y-111768000D01*
X116133714Y-111815619D01*
X116086095Y-111910857D01*
X116086095Y-111958476D01*
X116133714Y-112053714D01*
X116181333Y-112101333D01*
X116276571Y-112148952D01*
X116467047Y-112148952D01*
X116562285Y-112196571D01*
X116609904Y-112244190D01*
X116657523Y-112339428D01*
X116657523Y-112529904D01*
X116609904Y-112625142D01*
X116562285Y-112672761D01*
X116467047Y-112720380D01*
X116276571Y-112720380D01*
X116181333Y-112672761D01*
X116133714Y-112625142D01*
X116086095Y-112529904D01*
X116086095Y-112339428D01*
X116133714Y-112244190D01*
X116181333Y-112196571D01*
X116276571Y-112148952D01*
%TO.C,C93*%
X96527857Y-137644142D02*
X96575476Y-137691761D01*
X96718333Y-137739380D01*
X96813571Y-137739380D01*
X96956428Y-137691761D01*
X97051666Y-137596523D01*
X97099285Y-137501285D01*
X97146904Y-137310809D01*
X97146904Y-137167952D01*
X97099285Y-136977476D01*
X97051666Y-136882238D01*
X96956428Y-136787000D01*
X96813571Y-136739380D01*
X96718333Y-136739380D01*
X96575476Y-136787000D01*
X96527857Y-136834619D01*
X96051666Y-137739380D02*
X95861190Y-137739380D01*
X95765952Y-137691761D01*
X95718333Y-137644142D01*
X95623095Y-137501285D01*
X95575476Y-137310809D01*
X95575476Y-136929857D01*
X95623095Y-136834619D01*
X95670714Y-136787000D01*
X95765952Y-136739380D01*
X95956428Y-136739380D01*
X96051666Y-136787000D01*
X96099285Y-136834619D01*
X96146904Y-136929857D01*
X96146904Y-137167952D01*
X96099285Y-137263190D01*
X96051666Y-137310809D01*
X95956428Y-137358428D01*
X95765952Y-137358428D01*
X95670714Y-137310809D01*
X95623095Y-137263190D01*
X95575476Y-137167952D01*
X95242142Y-136739380D02*
X94623095Y-136739380D01*
X94956428Y-137120333D01*
X94813571Y-137120333D01*
X94718333Y-137167952D01*
X94670714Y-137215571D01*
X94623095Y-137310809D01*
X94623095Y-137548904D01*
X94670714Y-137644142D01*
X94718333Y-137691761D01*
X94813571Y-137739380D01*
X95099285Y-137739380D01*
X95194523Y-137691761D01*
X95242142Y-137644142D01*
%TO.C,R106*%
X173331047Y-65984380D02*
X173664380Y-65508190D01*
X173902476Y-65984380D02*
X173902476Y-64984380D01*
X173521523Y-64984380D01*
X173426285Y-65032000D01*
X173378666Y-65079619D01*
X173331047Y-65174857D01*
X173331047Y-65317714D01*
X173378666Y-65412952D01*
X173426285Y-65460571D01*
X173521523Y-65508190D01*
X173902476Y-65508190D01*
X172378666Y-65984380D02*
X172950095Y-65984380D01*
X172664380Y-65984380D02*
X172664380Y-64984380D01*
X172759619Y-65127238D01*
X172854857Y-65222476D01*
X172950095Y-65270095D01*
X171759619Y-64984380D02*
X171664380Y-64984380D01*
X171569142Y-65032000D01*
X171521523Y-65079619D01*
X171473904Y-65174857D01*
X171426285Y-65365333D01*
X171426285Y-65603428D01*
X171473904Y-65793904D01*
X171521523Y-65889142D01*
X171569142Y-65936761D01*
X171664380Y-65984380D01*
X171759619Y-65984380D01*
X171854857Y-65936761D01*
X171902476Y-65889142D01*
X171950095Y-65793904D01*
X171997714Y-65603428D01*
X171997714Y-65365333D01*
X171950095Y-65174857D01*
X171902476Y-65079619D01*
X171854857Y-65032000D01*
X171759619Y-64984380D01*
X170569142Y-64984380D02*
X170759619Y-64984380D01*
X170854857Y-65032000D01*
X170902476Y-65079619D01*
X170997714Y-65222476D01*
X171045333Y-65412952D01*
X171045333Y-65793904D01*
X170997714Y-65889142D01*
X170950095Y-65936761D01*
X170854857Y-65984380D01*
X170664380Y-65984380D01*
X170569142Y-65936761D01*
X170521523Y-65889142D01*
X170473904Y-65793904D01*
X170473904Y-65555809D01*
X170521523Y-65460571D01*
X170569142Y-65412952D01*
X170664380Y-65365333D01*
X170854857Y-65365333D01*
X170950095Y-65412952D01*
X170997714Y-65460571D01*
X171045333Y-65555809D01*
%TO.C,C39*%
X208242857Y-121261142D02*
X208290476Y-121308761D01*
X208433333Y-121356380D01*
X208528571Y-121356380D01*
X208671428Y-121308761D01*
X208766666Y-121213523D01*
X208814285Y-121118285D01*
X208861904Y-120927809D01*
X208861904Y-120784952D01*
X208814285Y-120594476D01*
X208766666Y-120499238D01*
X208671428Y-120404000D01*
X208528571Y-120356380D01*
X208433333Y-120356380D01*
X208290476Y-120404000D01*
X208242857Y-120451619D01*
X207909523Y-120356380D02*
X207290476Y-120356380D01*
X207623809Y-120737333D01*
X207480952Y-120737333D01*
X207385714Y-120784952D01*
X207338095Y-120832571D01*
X207290476Y-120927809D01*
X207290476Y-121165904D01*
X207338095Y-121261142D01*
X207385714Y-121308761D01*
X207480952Y-121356380D01*
X207766666Y-121356380D01*
X207861904Y-121308761D01*
X207909523Y-121261142D01*
X206814285Y-121356380D02*
X206623809Y-121356380D01*
X206528571Y-121308761D01*
X206480952Y-121261142D01*
X206385714Y-121118285D01*
X206338095Y-120927809D01*
X206338095Y-120546857D01*
X206385714Y-120451619D01*
X206433333Y-120404000D01*
X206528571Y-120356380D01*
X206719047Y-120356380D01*
X206814285Y-120404000D01*
X206861904Y-120451619D01*
X206909523Y-120546857D01*
X206909523Y-120784952D01*
X206861904Y-120880190D01*
X206814285Y-120927809D01*
X206719047Y-120975428D01*
X206528571Y-120975428D01*
X206433333Y-120927809D01*
X206385714Y-120880190D01*
X206338095Y-120784952D01*
%TO.C,C37*%
X119006857Y-103735142D02*
X119054476Y-103782761D01*
X119197333Y-103830380D01*
X119292571Y-103830380D01*
X119435428Y-103782761D01*
X119530666Y-103687523D01*
X119578285Y-103592285D01*
X119625904Y-103401809D01*
X119625904Y-103258952D01*
X119578285Y-103068476D01*
X119530666Y-102973238D01*
X119435428Y-102878000D01*
X119292571Y-102830380D01*
X119197333Y-102830380D01*
X119054476Y-102878000D01*
X119006857Y-102925619D01*
X118673523Y-102830380D02*
X118054476Y-102830380D01*
X118387809Y-103211333D01*
X118244952Y-103211333D01*
X118149714Y-103258952D01*
X118102095Y-103306571D01*
X118054476Y-103401809D01*
X118054476Y-103639904D01*
X118102095Y-103735142D01*
X118149714Y-103782761D01*
X118244952Y-103830380D01*
X118530666Y-103830380D01*
X118625904Y-103782761D01*
X118673523Y-103735142D01*
X117721142Y-102830380D02*
X117054476Y-102830380D01*
X117483047Y-103830380D01*
%TO.C,C64*%
X150121857Y-118213142D02*
X150169476Y-118260761D01*
X150312333Y-118308380D01*
X150407571Y-118308380D01*
X150550428Y-118260761D01*
X150645666Y-118165523D01*
X150693285Y-118070285D01*
X150740904Y-117879809D01*
X150740904Y-117736952D01*
X150693285Y-117546476D01*
X150645666Y-117451238D01*
X150550428Y-117356000D01*
X150407571Y-117308380D01*
X150312333Y-117308380D01*
X150169476Y-117356000D01*
X150121857Y-117403619D01*
X149264714Y-117308380D02*
X149455190Y-117308380D01*
X149550428Y-117356000D01*
X149598047Y-117403619D01*
X149693285Y-117546476D01*
X149740904Y-117736952D01*
X149740904Y-118117904D01*
X149693285Y-118213142D01*
X149645666Y-118260761D01*
X149550428Y-118308380D01*
X149359952Y-118308380D01*
X149264714Y-118260761D01*
X149217095Y-118213142D01*
X149169476Y-118117904D01*
X149169476Y-117879809D01*
X149217095Y-117784571D01*
X149264714Y-117736952D01*
X149359952Y-117689333D01*
X149550428Y-117689333D01*
X149645666Y-117736952D01*
X149693285Y-117784571D01*
X149740904Y-117879809D01*
X148312333Y-117641714D02*
X148312333Y-118308380D01*
X148550428Y-117260761D02*
X148788523Y-117975047D01*
X148169476Y-117975047D01*
%TO.C,R84*%
X199813857Y-120848380D02*
X200147190Y-120372190D01*
X200385285Y-120848380D02*
X200385285Y-119848380D01*
X200004333Y-119848380D01*
X199909095Y-119896000D01*
X199861476Y-119943619D01*
X199813857Y-120038857D01*
X199813857Y-120181714D01*
X199861476Y-120276952D01*
X199909095Y-120324571D01*
X200004333Y-120372190D01*
X200385285Y-120372190D01*
X199242428Y-120276952D02*
X199337666Y-120229333D01*
X199385285Y-120181714D01*
X199432904Y-120086476D01*
X199432904Y-120038857D01*
X199385285Y-119943619D01*
X199337666Y-119896000D01*
X199242428Y-119848380D01*
X199051952Y-119848380D01*
X198956714Y-119896000D01*
X198909095Y-119943619D01*
X198861476Y-120038857D01*
X198861476Y-120086476D01*
X198909095Y-120181714D01*
X198956714Y-120229333D01*
X199051952Y-120276952D01*
X199242428Y-120276952D01*
X199337666Y-120324571D01*
X199385285Y-120372190D01*
X199432904Y-120467428D01*
X199432904Y-120657904D01*
X199385285Y-120753142D01*
X199337666Y-120800761D01*
X199242428Y-120848380D01*
X199051952Y-120848380D01*
X198956714Y-120800761D01*
X198909095Y-120753142D01*
X198861476Y-120657904D01*
X198861476Y-120467428D01*
X198909095Y-120372190D01*
X198956714Y-120324571D01*
X199051952Y-120276952D01*
X198004333Y-120181714D02*
X198004333Y-120848380D01*
X198242428Y-119800761D02*
X198480523Y-120515047D01*
X197861476Y-120515047D01*
%TO.C,C40*%
X157842857Y-121515142D02*
X157890476Y-121562761D01*
X158033333Y-121610380D01*
X158128571Y-121610380D01*
X158271428Y-121562761D01*
X158366666Y-121467523D01*
X158414285Y-121372285D01*
X158461904Y-121181809D01*
X158461904Y-121038952D01*
X158414285Y-120848476D01*
X158366666Y-120753238D01*
X158271428Y-120658000D01*
X158128571Y-120610380D01*
X158033333Y-120610380D01*
X157890476Y-120658000D01*
X157842857Y-120705619D01*
X156985714Y-120943714D02*
X156985714Y-121610380D01*
X157223809Y-120562761D02*
X157461904Y-121277047D01*
X156842857Y-121277047D01*
X156271428Y-120610380D02*
X156176190Y-120610380D01*
X156080952Y-120658000D01*
X156033333Y-120705619D01*
X155985714Y-120800857D01*
X155938095Y-120991333D01*
X155938095Y-121229428D01*
X155985714Y-121419904D01*
X156033333Y-121515142D01*
X156080952Y-121562761D01*
X156176190Y-121610380D01*
X156271428Y-121610380D01*
X156366666Y-121562761D01*
X156414285Y-121515142D01*
X156461904Y-121419904D01*
X156509523Y-121229428D01*
X156509523Y-120991333D01*
X156461904Y-120800857D01*
X156414285Y-120705619D01*
X156366666Y-120658000D01*
X156271428Y-120610380D01*
%TO.C,C48*%
X166250857Y-103481142D02*
X166298476Y-103528761D01*
X166441333Y-103576380D01*
X166536571Y-103576380D01*
X166679428Y-103528761D01*
X166774666Y-103433523D01*
X166822285Y-103338285D01*
X166869904Y-103147809D01*
X166869904Y-103004952D01*
X166822285Y-102814476D01*
X166774666Y-102719238D01*
X166679428Y-102624000D01*
X166536571Y-102576380D01*
X166441333Y-102576380D01*
X166298476Y-102624000D01*
X166250857Y-102671619D01*
X165393714Y-102909714D02*
X165393714Y-103576380D01*
X165631809Y-102528761D02*
X165869904Y-103243047D01*
X165250857Y-103243047D01*
X164727047Y-103004952D02*
X164822285Y-102957333D01*
X164869904Y-102909714D01*
X164917523Y-102814476D01*
X164917523Y-102766857D01*
X164869904Y-102671619D01*
X164822285Y-102624000D01*
X164727047Y-102576380D01*
X164536571Y-102576380D01*
X164441333Y-102624000D01*
X164393714Y-102671619D01*
X164346095Y-102766857D01*
X164346095Y-102814476D01*
X164393714Y-102909714D01*
X164441333Y-102957333D01*
X164536571Y-103004952D01*
X164727047Y-103004952D01*
X164822285Y-103052571D01*
X164869904Y-103100190D01*
X164917523Y-103195428D01*
X164917523Y-103385904D01*
X164869904Y-103481142D01*
X164822285Y-103528761D01*
X164727047Y-103576380D01*
X164536571Y-103576380D01*
X164441333Y-103528761D01*
X164393714Y-103481142D01*
X164346095Y-103385904D01*
X164346095Y-103195428D01*
X164393714Y-103100190D01*
X164441333Y-103052571D01*
X164536571Y-103004952D01*
%TO.C,R108*%
X162409047Y-60142380D02*
X162742380Y-59666190D01*
X162980476Y-60142380D02*
X162980476Y-59142380D01*
X162599523Y-59142380D01*
X162504285Y-59190000D01*
X162456666Y-59237619D01*
X162409047Y-59332857D01*
X162409047Y-59475714D01*
X162456666Y-59570952D01*
X162504285Y-59618571D01*
X162599523Y-59666190D01*
X162980476Y-59666190D01*
X161456666Y-60142380D02*
X162028095Y-60142380D01*
X161742380Y-60142380D02*
X161742380Y-59142380D01*
X161837619Y-59285238D01*
X161932857Y-59380476D01*
X162028095Y-59428095D01*
X160837619Y-59142380D02*
X160742380Y-59142380D01*
X160647142Y-59190000D01*
X160599523Y-59237619D01*
X160551904Y-59332857D01*
X160504285Y-59523333D01*
X160504285Y-59761428D01*
X160551904Y-59951904D01*
X160599523Y-60047142D01*
X160647142Y-60094761D01*
X160742380Y-60142380D01*
X160837619Y-60142380D01*
X160932857Y-60094761D01*
X160980476Y-60047142D01*
X161028095Y-59951904D01*
X161075714Y-59761428D01*
X161075714Y-59523333D01*
X161028095Y-59332857D01*
X160980476Y-59237619D01*
X160932857Y-59190000D01*
X160837619Y-59142380D01*
X159932857Y-59570952D02*
X160028095Y-59523333D01*
X160075714Y-59475714D01*
X160123333Y-59380476D01*
X160123333Y-59332857D01*
X160075714Y-59237619D01*
X160028095Y-59190000D01*
X159932857Y-59142380D01*
X159742380Y-59142380D01*
X159647142Y-59190000D01*
X159599523Y-59237619D01*
X159551904Y-59332857D01*
X159551904Y-59380476D01*
X159599523Y-59475714D01*
X159647142Y-59523333D01*
X159742380Y-59570952D01*
X159932857Y-59570952D01*
X160028095Y-59618571D01*
X160075714Y-59666190D01*
X160123333Y-59761428D01*
X160123333Y-59951904D01*
X160075714Y-60047142D01*
X160028095Y-60094761D01*
X159932857Y-60142380D01*
X159742380Y-60142380D01*
X159647142Y-60094761D01*
X159599523Y-60047142D01*
X159551904Y-59951904D01*
X159551904Y-59761428D01*
X159599523Y-59666190D01*
X159647142Y-59618571D01*
X159742380Y-59570952D01*
%TO.C,R141*%
X133961047Y-100782380D02*
X134294380Y-100306190D01*
X134532476Y-100782380D02*
X134532476Y-99782380D01*
X134151523Y-99782380D01*
X134056285Y-99830000D01*
X134008666Y-99877619D01*
X133961047Y-99972857D01*
X133961047Y-100115714D01*
X134008666Y-100210952D01*
X134056285Y-100258571D01*
X134151523Y-100306190D01*
X134532476Y-100306190D01*
X133008666Y-100782380D02*
X133580095Y-100782380D01*
X133294380Y-100782380D02*
X133294380Y-99782380D01*
X133389619Y-99925238D01*
X133484857Y-100020476D01*
X133580095Y-100068095D01*
X132151523Y-100115714D02*
X132151523Y-100782380D01*
X132389619Y-99734761D02*
X132627714Y-100449047D01*
X132008666Y-100449047D01*
X131103904Y-100782380D02*
X131675333Y-100782380D01*
X131389619Y-100782380D02*
X131389619Y-99782380D01*
X131484857Y-99925238D01*
X131580095Y-100020476D01*
X131675333Y-100068095D01*
%TO.C,R103*%
X163266380Y-80652952D02*
X162790190Y-80319619D01*
X163266380Y-80081523D02*
X162266380Y-80081523D01*
X162266380Y-80462476D01*
X162314000Y-80557714D01*
X162361619Y-80605333D01*
X162456857Y-80652952D01*
X162599714Y-80652952D01*
X162694952Y-80605333D01*
X162742571Y-80557714D01*
X162790190Y-80462476D01*
X162790190Y-80081523D01*
X163266380Y-81605333D02*
X163266380Y-81033904D01*
X163266380Y-81319619D02*
X162266380Y-81319619D01*
X162409238Y-81224380D01*
X162504476Y-81129142D01*
X162552095Y-81033904D01*
X162266380Y-82224380D02*
X162266380Y-82319619D01*
X162314000Y-82414857D01*
X162361619Y-82462476D01*
X162456857Y-82510095D01*
X162647333Y-82557714D01*
X162885428Y-82557714D01*
X163075904Y-82510095D01*
X163171142Y-82462476D01*
X163218761Y-82414857D01*
X163266380Y-82319619D01*
X163266380Y-82224380D01*
X163218761Y-82129142D01*
X163171142Y-82081523D01*
X163075904Y-82033904D01*
X162885428Y-81986285D01*
X162647333Y-81986285D01*
X162456857Y-82033904D01*
X162361619Y-82081523D01*
X162314000Y-82129142D01*
X162266380Y-82224380D01*
X162266380Y-82891047D02*
X162266380Y-83510095D01*
X162647333Y-83176761D01*
X162647333Y-83319619D01*
X162694952Y-83414857D01*
X162742571Y-83462476D01*
X162837809Y-83510095D01*
X163075904Y-83510095D01*
X163171142Y-83462476D01*
X163218761Y-83414857D01*
X163266380Y-83319619D01*
X163266380Y-83033904D01*
X163218761Y-82938666D01*
X163171142Y-82891047D01*
%TO.C,R70*%
X155582857Y-127652380D02*
X155916190Y-127176190D01*
X156154285Y-127652380D02*
X156154285Y-126652380D01*
X155773333Y-126652380D01*
X155678095Y-126700000D01*
X155630476Y-126747619D01*
X155582857Y-126842857D01*
X155582857Y-126985714D01*
X155630476Y-127080952D01*
X155678095Y-127128571D01*
X155773333Y-127176190D01*
X156154285Y-127176190D01*
X155249523Y-126652380D02*
X154582857Y-126652380D01*
X155011428Y-127652380D01*
X154011428Y-126652380D02*
X153916190Y-126652380D01*
X153820952Y-126700000D01*
X153773333Y-126747619D01*
X153725714Y-126842857D01*
X153678095Y-127033333D01*
X153678095Y-127271428D01*
X153725714Y-127461904D01*
X153773333Y-127557142D01*
X153820952Y-127604761D01*
X153916190Y-127652380D01*
X154011428Y-127652380D01*
X154106666Y-127604761D01*
X154154285Y-127557142D01*
X154201904Y-127461904D01*
X154249523Y-127271428D01*
X154249523Y-127033333D01*
X154201904Y-126842857D01*
X154154285Y-126747619D01*
X154106666Y-126700000D01*
X154011428Y-126652380D01*
%TO.C,D52*%
X112720285Y-143073380D02*
X112720285Y-142073380D01*
X112482190Y-142073380D01*
X112339333Y-142121000D01*
X112244095Y-142216238D01*
X112196476Y-142311476D01*
X112148857Y-142501952D01*
X112148857Y-142644809D01*
X112196476Y-142835285D01*
X112244095Y-142930523D01*
X112339333Y-143025761D01*
X112482190Y-143073380D01*
X112720285Y-143073380D01*
X111244095Y-142073380D02*
X111720285Y-142073380D01*
X111767904Y-142549571D01*
X111720285Y-142501952D01*
X111625047Y-142454333D01*
X111386952Y-142454333D01*
X111291714Y-142501952D01*
X111244095Y-142549571D01*
X111196476Y-142644809D01*
X111196476Y-142882904D01*
X111244095Y-142978142D01*
X111291714Y-143025761D01*
X111386952Y-143073380D01*
X111625047Y-143073380D01*
X111720285Y-143025761D01*
X111767904Y-142978142D01*
X110815523Y-142168619D02*
X110767904Y-142121000D01*
X110672666Y-142073380D01*
X110434571Y-142073380D01*
X110339333Y-142121000D01*
X110291714Y-142168619D01*
X110244095Y-142263857D01*
X110244095Y-142359095D01*
X110291714Y-142501952D01*
X110863142Y-143073380D01*
X110244095Y-143073380D01*
%TO.C,C27*%
X69222857Y-103735142D02*
X69270476Y-103782761D01*
X69413333Y-103830380D01*
X69508571Y-103830380D01*
X69651428Y-103782761D01*
X69746666Y-103687523D01*
X69794285Y-103592285D01*
X69841904Y-103401809D01*
X69841904Y-103258952D01*
X69794285Y-103068476D01*
X69746666Y-102973238D01*
X69651428Y-102878000D01*
X69508571Y-102830380D01*
X69413333Y-102830380D01*
X69270476Y-102878000D01*
X69222857Y-102925619D01*
X68841904Y-102925619D02*
X68794285Y-102878000D01*
X68699047Y-102830380D01*
X68460952Y-102830380D01*
X68365714Y-102878000D01*
X68318095Y-102925619D01*
X68270476Y-103020857D01*
X68270476Y-103116095D01*
X68318095Y-103258952D01*
X68889523Y-103830380D01*
X68270476Y-103830380D01*
X67937142Y-102830380D02*
X67270476Y-102830380D01*
X67699047Y-103830380D01*
%TO.C,C97*%
X135837142Y-85463142D02*
X135884761Y-85415523D01*
X135932380Y-85272666D01*
X135932380Y-85177428D01*
X135884761Y-85034571D01*
X135789523Y-84939333D01*
X135694285Y-84891714D01*
X135503809Y-84844095D01*
X135360952Y-84844095D01*
X135170476Y-84891714D01*
X135075238Y-84939333D01*
X134980000Y-85034571D01*
X134932380Y-85177428D01*
X134932380Y-85272666D01*
X134980000Y-85415523D01*
X135027619Y-85463142D01*
X135932380Y-85939333D02*
X135932380Y-86129809D01*
X135884761Y-86225047D01*
X135837142Y-86272666D01*
X135694285Y-86367904D01*
X135503809Y-86415523D01*
X135122857Y-86415523D01*
X135027619Y-86367904D01*
X134980000Y-86320285D01*
X134932380Y-86225047D01*
X134932380Y-86034571D01*
X134980000Y-85939333D01*
X135027619Y-85891714D01*
X135122857Y-85844095D01*
X135360952Y-85844095D01*
X135456190Y-85891714D01*
X135503809Y-85939333D01*
X135551428Y-86034571D01*
X135551428Y-86225047D01*
X135503809Y-86320285D01*
X135456190Y-86367904D01*
X135360952Y-86415523D01*
X134932380Y-86748857D02*
X134932380Y-87415523D01*
X135932380Y-86986952D01*
%TO.C,R99*%
X219463857Y-55316380D02*
X219797190Y-54840190D01*
X220035285Y-55316380D02*
X220035285Y-54316380D01*
X219654333Y-54316380D01*
X219559095Y-54364000D01*
X219511476Y-54411619D01*
X219463857Y-54506857D01*
X219463857Y-54649714D01*
X219511476Y-54744952D01*
X219559095Y-54792571D01*
X219654333Y-54840190D01*
X220035285Y-54840190D01*
X218987666Y-55316380D02*
X218797190Y-55316380D01*
X218701952Y-55268761D01*
X218654333Y-55221142D01*
X218559095Y-55078285D01*
X218511476Y-54887809D01*
X218511476Y-54506857D01*
X218559095Y-54411619D01*
X218606714Y-54364000D01*
X218701952Y-54316380D01*
X218892428Y-54316380D01*
X218987666Y-54364000D01*
X219035285Y-54411619D01*
X219082904Y-54506857D01*
X219082904Y-54744952D01*
X219035285Y-54840190D01*
X218987666Y-54887809D01*
X218892428Y-54935428D01*
X218701952Y-54935428D01*
X218606714Y-54887809D01*
X218559095Y-54840190D01*
X218511476Y-54744952D01*
X218035285Y-55316380D02*
X217844809Y-55316380D01*
X217749571Y-55268761D01*
X217701952Y-55221142D01*
X217606714Y-55078285D01*
X217559095Y-54887809D01*
X217559095Y-54506857D01*
X217606714Y-54411619D01*
X217654333Y-54364000D01*
X217749571Y-54316380D01*
X217940047Y-54316380D01*
X218035285Y-54364000D01*
X218082904Y-54411619D01*
X218130523Y-54506857D01*
X218130523Y-54744952D01*
X218082904Y-54840190D01*
X218035285Y-54887809D01*
X217940047Y-54935428D01*
X217749571Y-54935428D01*
X217654333Y-54887809D01*
X217606714Y-54840190D01*
X217559095Y-54744952D01*
%TO.C,C100*%
X155297047Y-132339142D02*
X155344666Y-132386761D01*
X155487523Y-132434380D01*
X155582761Y-132434380D01*
X155725619Y-132386761D01*
X155820857Y-132291523D01*
X155868476Y-132196285D01*
X155916095Y-132005809D01*
X155916095Y-131862952D01*
X155868476Y-131672476D01*
X155820857Y-131577238D01*
X155725619Y-131482000D01*
X155582761Y-131434380D01*
X155487523Y-131434380D01*
X155344666Y-131482000D01*
X155297047Y-131529619D01*
X154344666Y-132434380D02*
X154916095Y-132434380D01*
X154630380Y-132434380D02*
X154630380Y-131434380D01*
X154725619Y-131577238D01*
X154820857Y-131672476D01*
X154916095Y-131720095D01*
X153725619Y-131434380D02*
X153630380Y-131434380D01*
X153535142Y-131482000D01*
X153487523Y-131529619D01*
X153439904Y-131624857D01*
X153392285Y-131815333D01*
X153392285Y-132053428D01*
X153439904Y-132243904D01*
X153487523Y-132339142D01*
X153535142Y-132386761D01*
X153630380Y-132434380D01*
X153725619Y-132434380D01*
X153820857Y-132386761D01*
X153868476Y-132339142D01*
X153916095Y-132243904D01*
X153963714Y-132053428D01*
X153963714Y-131815333D01*
X153916095Y-131624857D01*
X153868476Y-131529619D01*
X153820857Y-131482000D01*
X153725619Y-131434380D01*
X152773238Y-131434380D02*
X152678000Y-131434380D01*
X152582761Y-131482000D01*
X152535142Y-131529619D01*
X152487523Y-131624857D01*
X152439904Y-131815333D01*
X152439904Y-132053428D01*
X152487523Y-132243904D01*
X152535142Y-132339142D01*
X152582761Y-132386761D01*
X152678000Y-132434380D01*
X152773238Y-132434380D01*
X152868476Y-132386761D01*
X152916095Y-132339142D01*
X152963714Y-132243904D01*
X153011333Y-132053428D01*
X153011333Y-131815333D01*
X152963714Y-131624857D01*
X152916095Y-131529619D01*
X152868476Y-131482000D01*
X152773238Y-131434380D01*
%TO.C,R131*%
X163774380Y-139680952D02*
X163298190Y-139347619D01*
X163774380Y-139109523D02*
X162774380Y-139109523D01*
X162774380Y-139490476D01*
X162822000Y-139585714D01*
X162869619Y-139633333D01*
X162964857Y-139680952D01*
X163107714Y-139680952D01*
X163202952Y-139633333D01*
X163250571Y-139585714D01*
X163298190Y-139490476D01*
X163298190Y-139109523D01*
X163774380Y-140633333D02*
X163774380Y-140061904D01*
X163774380Y-140347619D02*
X162774380Y-140347619D01*
X162917238Y-140252380D01*
X163012476Y-140157142D01*
X163060095Y-140061904D01*
X162774380Y-140966666D02*
X162774380Y-141585714D01*
X163155333Y-141252380D01*
X163155333Y-141395238D01*
X163202952Y-141490476D01*
X163250571Y-141538095D01*
X163345809Y-141585714D01*
X163583904Y-141585714D01*
X163679142Y-141538095D01*
X163726761Y-141490476D01*
X163774380Y-141395238D01*
X163774380Y-141109523D01*
X163726761Y-141014285D01*
X163679142Y-140966666D01*
X163774380Y-142538095D02*
X163774380Y-141966666D01*
X163774380Y-142252380D02*
X162774380Y-142252380D01*
X162917238Y-142157142D01*
X163012476Y-142061904D01*
X163060095Y-141966666D01*
%TO.C,R15*%
X75318857Y-127325380D02*
X75652190Y-126849190D01*
X75890285Y-127325380D02*
X75890285Y-126325380D01*
X75509333Y-126325380D01*
X75414095Y-126373000D01*
X75366476Y-126420619D01*
X75318857Y-126515857D01*
X75318857Y-126658714D01*
X75366476Y-126753952D01*
X75414095Y-126801571D01*
X75509333Y-126849190D01*
X75890285Y-126849190D01*
X74366476Y-127325380D02*
X74937904Y-127325380D01*
X74652190Y-127325380D02*
X74652190Y-126325380D01*
X74747428Y-126468238D01*
X74842666Y-126563476D01*
X74937904Y-126611095D01*
X73461714Y-126325380D02*
X73937904Y-126325380D01*
X73985523Y-126801571D01*
X73937904Y-126753952D01*
X73842666Y-126706333D01*
X73604571Y-126706333D01*
X73509333Y-126753952D01*
X73461714Y-126801571D01*
X73414095Y-126896809D01*
X73414095Y-127134904D01*
X73461714Y-127230142D01*
X73509333Y-127277761D01*
X73604571Y-127325380D01*
X73842666Y-127325380D01*
X73937904Y-127277761D01*
X73985523Y-127230142D01*
%TO.C,R63*%
X211018380Y-80891142D02*
X210542190Y-80557809D01*
X211018380Y-80319714D02*
X210018380Y-80319714D01*
X210018380Y-80700666D01*
X210066000Y-80795904D01*
X210113619Y-80843523D01*
X210208857Y-80891142D01*
X210351714Y-80891142D01*
X210446952Y-80843523D01*
X210494571Y-80795904D01*
X210542190Y-80700666D01*
X210542190Y-80319714D01*
X210018380Y-81748285D02*
X210018380Y-81557809D01*
X210066000Y-81462571D01*
X210113619Y-81414952D01*
X210256476Y-81319714D01*
X210446952Y-81272095D01*
X210827904Y-81272095D01*
X210923142Y-81319714D01*
X210970761Y-81367333D01*
X211018380Y-81462571D01*
X211018380Y-81653047D01*
X210970761Y-81748285D01*
X210923142Y-81795904D01*
X210827904Y-81843523D01*
X210589809Y-81843523D01*
X210494571Y-81795904D01*
X210446952Y-81748285D01*
X210399333Y-81653047D01*
X210399333Y-81462571D01*
X210446952Y-81367333D01*
X210494571Y-81319714D01*
X210589809Y-81272095D01*
X210018380Y-82176857D02*
X210018380Y-82795904D01*
X210399333Y-82462571D01*
X210399333Y-82605428D01*
X210446952Y-82700666D01*
X210494571Y-82748285D01*
X210589809Y-82795904D01*
X210827904Y-82795904D01*
X210923142Y-82748285D01*
X210970761Y-82700666D01*
X211018380Y-82605428D01*
X211018380Y-82319714D01*
X210970761Y-82224476D01*
X210923142Y-82176857D01*
%TO.C,R100*%
X215749047Y-49855380D02*
X216082380Y-49379190D01*
X216320476Y-49855380D02*
X216320476Y-48855380D01*
X215939523Y-48855380D01*
X215844285Y-48903000D01*
X215796666Y-48950619D01*
X215749047Y-49045857D01*
X215749047Y-49188714D01*
X215796666Y-49283952D01*
X215844285Y-49331571D01*
X215939523Y-49379190D01*
X216320476Y-49379190D01*
X214796666Y-49855380D02*
X215368095Y-49855380D01*
X215082380Y-49855380D02*
X215082380Y-48855380D01*
X215177619Y-48998238D01*
X215272857Y-49093476D01*
X215368095Y-49141095D01*
X214177619Y-48855380D02*
X214082380Y-48855380D01*
X213987142Y-48903000D01*
X213939523Y-48950619D01*
X213891904Y-49045857D01*
X213844285Y-49236333D01*
X213844285Y-49474428D01*
X213891904Y-49664904D01*
X213939523Y-49760142D01*
X213987142Y-49807761D01*
X214082380Y-49855380D01*
X214177619Y-49855380D01*
X214272857Y-49807761D01*
X214320476Y-49760142D01*
X214368095Y-49664904D01*
X214415714Y-49474428D01*
X214415714Y-49236333D01*
X214368095Y-49045857D01*
X214320476Y-48950619D01*
X214272857Y-48903000D01*
X214177619Y-48855380D01*
X213225238Y-48855380D02*
X213130000Y-48855380D01*
X213034761Y-48903000D01*
X212987142Y-48950619D01*
X212939523Y-49045857D01*
X212891904Y-49236333D01*
X212891904Y-49474428D01*
X212939523Y-49664904D01*
X212987142Y-49760142D01*
X213034761Y-49807761D01*
X213130000Y-49855380D01*
X213225238Y-49855380D01*
X213320476Y-49807761D01*
X213368095Y-49760142D01*
X213415714Y-49664904D01*
X213463333Y-49474428D01*
X213463333Y-49236333D01*
X213415714Y-49045857D01*
X213368095Y-48950619D01*
X213320476Y-48903000D01*
X213225238Y-48855380D01*
%TO.C,R116*%
X157964047Y-49474380D02*
X158297380Y-48998190D01*
X158535476Y-49474380D02*
X158535476Y-48474380D01*
X158154523Y-48474380D01*
X158059285Y-48522000D01*
X158011666Y-48569619D01*
X157964047Y-48664857D01*
X157964047Y-48807714D01*
X158011666Y-48902952D01*
X158059285Y-48950571D01*
X158154523Y-48998190D01*
X158535476Y-48998190D01*
X157011666Y-49474380D02*
X157583095Y-49474380D01*
X157297380Y-49474380D02*
X157297380Y-48474380D01*
X157392619Y-48617238D01*
X157487857Y-48712476D01*
X157583095Y-48760095D01*
X156059285Y-49474380D02*
X156630714Y-49474380D01*
X156345000Y-49474380D02*
X156345000Y-48474380D01*
X156440238Y-48617238D01*
X156535476Y-48712476D01*
X156630714Y-48760095D01*
X155202142Y-48474380D02*
X155392619Y-48474380D01*
X155487857Y-48522000D01*
X155535476Y-48569619D01*
X155630714Y-48712476D01*
X155678333Y-48902952D01*
X155678333Y-49283904D01*
X155630714Y-49379142D01*
X155583095Y-49426761D01*
X155487857Y-49474380D01*
X155297380Y-49474380D01*
X155202142Y-49426761D01*
X155154523Y-49379142D01*
X155106904Y-49283904D01*
X155106904Y-49045809D01*
X155154523Y-48950571D01*
X155202142Y-48902952D01*
X155297380Y-48855333D01*
X155487857Y-48855333D01*
X155583095Y-48902952D01*
X155630714Y-48950571D01*
X155678333Y-49045809D01*
%TO.C,R65*%
X128658857Y-122626380D02*
X128992190Y-122150190D01*
X129230285Y-122626380D02*
X129230285Y-121626380D01*
X128849333Y-121626380D01*
X128754095Y-121674000D01*
X128706476Y-121721619D01*
X128658857Y-121816857D01*
X128658857Y-121959714D01*
X128706476Y-122054952D01*
X128754095Y-122102571D01*
X128849333Y-122150190D01*
X129230285Y-122150190D01*
X127801714Y-121626380D02*
X127992190Y-121626380D01*
X128087428Y-121674000D01*
X128135047Y-121721619D01*
X128230285Y-121864476D01*
X128277904Y-122054952D01*
X128277904Y-122435904D01*
X128230285Y-122531142D01*
X128182666Y-122578761D01*
X128087428Y-122626380D01*
X127896952Y-122626380D01*
X127801714Y-122578761D01*
X127754095Y-122531142D01*
X127706476Y-122435904D01*
X127706476Y-122197809D01*
X127754095Y-122102571D01*
X127801714Y-122054952D01*
X127896952Y-122007333D01*
X128087428Y-122007333D01*
X128182666Y-122054952D01*
X128230285Y-122102571D01*
X128277904Y-122197809D01*
X126801714Y-121626380D02*
X127277904Y-121626380D01*
X127325523Y-122102571D01*
X127277904Y-122054952D01*
X127182666Y-122007333D01*
X126944571Y-122007333D01*
X126849333Y-122054952D01*
X126801714Y-122102571D01*
X126754095Y-122197809D01*
X126754095Y-122435904D01*
X126801714Y-122531142D01*
X126849333Y-122578761D01*
X126944571Y-122626380D01*
X127182666Y-122626380D01*
X127277904Y-122578761D01*
X127325523Y-122531142D01*
%TO.C,D51*%
X89733285Y-143073380D02*
X89733285Y-142073380D01*
X89495190Y-142073380D01*
X89352333Y-142121000D01*
X89257095Y-142216238D01*
X89209476Y-142311476D01*
X89161857Y-142501952D01*
X89161857Y-142644809D01*
X89209476Y-142835285D01*
X89257095Y-142930523D01*
X89352333Y-143025761D01*
X89495190Y-143073380D01*
X89733285Y-143073380D01*
X88257095Y-142073380D02*
X88733285Y-142073380D01*
X88780904Y-142549571D01*
X88733285Y-142501952D01*
X88638047Y-142454333D01*
X88399952Y-142454333D01*
X88304714Y-142501952D01*
X88257095Y-142549571D01*
X88209476Y-142644809D01*
X88209476Y-142882904D01*
X88257095Y-142978142D01*
X88304714Y-143025761D01*
X88399952Y-143073380D01*
X88638047Y-143073380D01*
X88733285Y-143025761D01*
X88780904Y-142978142D01*
X87257095Y-143073380D02*
X87828523Y-143073380D01*
X87542809Y-143073380D02*
X87542809Y-142073380D01*
X87638047Y-142216238D01*
X87733285Y-142311476D01*
X87828523Y-142359095D01*
%TO.C,C63*%
X163710857Y-110085142D02*
X163758476Y-110132761D01*
X163901333Y-110180380D01*
X163996571Y-110180380D01*
X164139428Y-110132761D01*
X164234666Y-110037523D01*
X164282285Y-109942285D01*
X164329904Y-109751809D01*
X164329904Y-109608952D01*
X164282285Y-109418476D01*
X164234666Y-109323238D01*
X164139428Y-109228000D01*
X163996571Y-109180380D01*
X163901333Y-109180380D01*
X163758476Y-109228000D01*
X163710857Y-109275619D01*
X162853714Y-109180380D02*
X163044190Y-109180380D01*
X163139428Y-109228000D01*
X163187047Y-109275619D01*
X163282285Y-109418476D01*
X163329904Y-109608952D01*
X163329904Y-109989904D01*
X163282285Y-110085142D01*
X163234666Y-110132761D01*
X163139428Y-110180380D01*
X162948952Y-110180380D01*
X162853714Y-110132761D01*
X162806095Y-110085142D01*
X162758476Y-109989904D01*
X162758476Y-109751809D01*
X162806095Y-109656571D01*
X162853714Y-109608952D01*
X162948952Y-109561333D01*
X163139428Y-109561333D01*
X163234666Y-109608952D01*
X163282285Y-109656571D01*
X163329904Y-109751809D01*
X162425142Y-109180380D02*
X161806095Y-109180380D01*
X162139428Y-109561333D01*
X161996571Y-109561333D01*
X161901333Y-109608952D01*
X161853714Y-109656571D01*
X161806095Y-109751809D01*
X161806095Y-109989904D01*
X161853714Y-110085142D01*
X161901333Y-110132761D01*
X161996571Y-110180380D01*
X162282285Y-110180380D01*
X162377523Y-110132761D01*
X162425142Y-110085142D01*
%TO.C,R105*%
X211431047Y-53284380D02*
X211764380Y-52808190D01*
X212002476Y-53284380D02*
X212002476Y-52284380D01*
X211621523Y-52284380D01*
X211526285Y-52332000D01*
X211478666Y-52379619D01*
X211431047Y-52474857D01*
X211431047Y-52617714D01*
X211478666Y-52712952D01*
X211526285Y-52760571D01*
X211621523Y-52808190D01*
X212002476Y-52808190D01*
X210478666Y-53284380D02*
X211050095Y-53284380D01*
X210764380Y-53284380D02*
X210764380Y-52284380D01*
X210859619Y-52427238D01*
X210954857Y-52522476D01*
X211050095Y-52570095D01*
X209859619Y-52284380D02*
X209764380Y-52284380D01*
X209669142Y-52332000D01*
X209621523Y-52379619D01*
X209573904Y-52474857D01*
X209526285Y-52665333D01*
X209526285Y-52903428D01*
X209573904Y-53093904D01*
X209621523Y-53189142D01*
X209669142Y-53236761D01*
X209764380Y-53284380D01*
X209859619Y-53284380D01*
X209954857Y-53236761D01*
X210002476Y-53189142D01*
X210050095Y-53093904D01*
X210097714Y-52903428D01*
X210097714Y-52665333D01*
X210050095Y-52474857D01*
X210002476Y-52379619D01*
X209954857Y-52332000D01*
X209859619Y-52284380D01*
X208621523Y-52284380D02*
X209097714Y-52284380D01*
X209145333Y-52760571D01*
X209097714Y-52712952D01*
X209002476Y-52665333D01*
X208764380Y-52665333D01*
X208669142Y-52712952D01*
X208621523Y-52760571D01*
X208573904Y-52855809D01*
X208573904Y-53093904D01*
X208621523Y-53189142D01*
X208669142Y-53236761D01*
X208764380Y-53284380D01*
X209002476Y-53284380D01*
X209097714Y-53236761D01*
X209145333Y-53189142D01*
%TO.C,R92*%
X117482857Y-126690380D02*
X117816190Y-126214190D01*
X118054285Y-126690380D02*
X118054285Y-125690380D01*
X117673333Y-125690380D01*
X117578095Y-125738000D01*
X117530476Y-125785619D01*
X117482857Y-125880857D01*
X117482857Y-126023714D01*
X117530476Y-126118952D01*
X117578095Y-126166571D01*
X117673333Y-126214190D01*
X118054285Y-126214190D01*
X117006666Y-126690380D02*
X116816190Y-126690380D01*
X116720952Y-126642761D01*
X116673333Y-126595142D01*
X116578095Y-126452285D01*
X116530476Y-126261809D01*
X116530476Y-125880857D01*
X116578095Y-125785619D01*
X116625714Y-125738000D01*
X116720952Y-125690380D01*
X116911428Y-125690380D01*
X117006666Y-125738000D01*
X117054285Y-125785619D01*
X117101904Y-125880857D01*
X117101904Y-126118952D01*
X117054285Y-126214190D01*
X117006666Y-126261809D01*
X116911428Y-126309428D01*
X116720952Y-126309428D01*
X116625714Y-126261809D01*
X116578095Y-126214190D01*
X116530476Y-126118952D01*
X116149523Y-125785619D02*
X116101904Y-125738000D01*
X116006666Y-125690380D01*
X115768571Y-125690380D01*
X115673333Y-125738000D01*
X115625714Y-125785619D01*
X115578095Y-125880857D01*
X115578095Y-125976095D01*
X115625714Y-126118952D01*
X116197142Y-126690380D01*
X115578095Y-126690380D01*
%TO.C,R135*%
X176633047Y-127198380D02*
X176966380Y-126722190D01*
X177204476Y-127198380D02*
X177204476Y-126198380D01*
X176823523Y-126198380D01*
X176728285Y-126246000D01*
X176680666Y-126293619D01*
X176633047Y-126388857D01*
X176633047Y-126531714D01*
X176680666Y-126626952D01*
X176728285Y-126674571D01*
X176823523Y-126722190D01*
X177204476Y-126722190D01*
X175680666Y-127198380D02*
X176252095Y-127198380D01*
X175966380Y-127198380D02*
X175966380Y-126198380D01*
X176061619Y-126341238D01*
X176156857Y-126436476D01*
X176252095Y-126484095D01*
X175347333Y-126198380D02*
X174728285Y-126198380D01*
X175061619Y-126579333D01*
X174918761Y-126579333D01*
X174823523Y-126626952D01*
X174775904Y-126674571D01*
X174728285Y-126769809D01*
X174728285Y-127007904D01*
X174775904Y-127103142D01*
X174823523Y-127150761D01*
X174918761Y-127198380D01*
X175204476Y-127198380D01*
X175299714Y-127150761D01*
X175347333Y-127103142D01*
X173823523Y-126198380D02*
X174299714Y-126198380D01*
X174347333Y-126674571D01*
X174299714Y-126626952D01*
X174204476Y-126579333D01*
X173966380Y-126579333D01*
X173871142Y-126626952D01*
X173823523Y-126674571D01*
X173775904Y-126769809D01*
X173775904Y-127007904D01*
X173823523Y-127103142D01*
X173871142Y-127150761D01*
X173966380Y-127198380D01*
X174204476Y-127198380D01*
X174299714Y-127150761D01*
X174347333Y-127103142D01*
%TO.C,R18*%
X71000857Y-125420380D02*
X71334190Y-124944190D01*
X71572285Y-125420380D02*
X71572285Y-124420380D01*
X71191333Y-124420380D01*
X71096095Y-124468000D01*
X71048476Y-124515619D01*
X71000857Y-124610857D01*
X71000857Y-124753714D01*
X71048476Y-124848952D01*
X71096095Y-124896571D01*
X71191333Y-124944190D01*
X71572285Y-124944190D01*
X70048476Y-125420380D02*
X70619904Y-125420380D01*
X70334190Y-125420380D02*
X70334190Y-124420380D01*
X70429428Y-124563238D01*
X70524666Y-124658476D01*
X70619904Y-124706095D01*
X69477047Y-124848952D02*
X69572285Y-124801333D01*
X69619904Y-124753714D01*
X69667523Y-124658476D01*
X69667523Y-124610857D01*
X69619904Y-124515619D01*
X69572285Y-124468000D01*
X69477047Y-124420380D01*
X69286571Y-124420380D01*
X69191333Y-124468000D01*
X69143714Y-124515619D01*
X69096095Y-124610857D01*
X69096095Y-124658476D01*
X69143714Y-124753714D01*
X69191333Y-124801333D01*
X69286571Y-124848952D01*
X69477047Y-124848952D01*
X69572285Y-124896571D01*
X69619904Y-124944190D01*
X69667523Y-125039428D01*
X69667523Y-125229904D01*
X69619904Y-125325142D01*
X69572285Y-125372761D01*
X69477047Y-125420380D01*
X69286571Y-125420380D01*
X69191333Y-125372761D01*
X69143714Y-125325142D01*
X69096095Y-125229904D01*
X69096095Y-125039428D01*
X69143714Y-124944190D01*
X69191333Y-124896571D01*
X69286571Y-124848952D01*
%TO.C,R47*%
X160726380Y-80891142D02*
X160250190Y-80557809D01*
X160726380Y-80319714D02*
X159726380Y-80319714D01*
X159726380Y-80700666D01*
X159774000Y-80795904D01*
X159821619Y-80843523D01*
X159916857Y-80891142D01*
X160059714Y-80891142D01*
X160154952Y-80843523D01*
X160202571Y-80795904D01*
X160250190Y-80700666D01*
X160250190Y-80319714D01*
X160059714Y-81748285D02*
X160726380Y-81748285D01*
X159678761Y-81510190D02*
X160393047Y-81272095D01*
X160393047Y-81891142D01*
X159726380Y-82176857D02*
X159726380Y-82843523D01*
X160726380Y-82414952D01*
%TO.C,C22*%
X100464857Y-103735142D02*
X100512476Y-103782761D01*
X100655333Y-103830380D01*
X100750571Y-103830380D01*
X100893428Y-103782761D01*
X100988666Y-103687523D01*
X101036285Y-103592285D01*
X101083904Y-103401809D01*
X101083904Y-103258952D01*
X101036285Y-103068476D01*
X100988666Y-102973238D01*
X100893428Y-102878000D01*
X100750571Y-102830380D01*
X100655333Y-102830380D01*
X100512476Y-102878000D01*
X100464857Y-102925619D01*
X100083904Y-102925619D02*
X100036285Y-102878000D01*
X99941047Y-102830380D01*
X99702952Y-102830380D01*
X99607714Y-102878000D01*
X99560095Y-102925619D01*
X99512476Y-103020857D01*
X99512476Y-103116095D01*
X99560095Y-103258952D01*
X100131523Y-103830380D01*
X99512476Y-103830380D01*
X99131523Y-102925619D02*
X99083904Y-102878000D01*
X98988666Y-102830380D01*
X98750571Y-102830380D01*
X98655333Y-102878000D01*
X98607714Y-102925619D01*
X98560095Y-103020857D01*
X98560095Y-103116095D01*
X98607714Y-103258952D01*
X99179142Y-103830380D01*
X98560095Y-103830380D01*
%TO.C,R22*%
X106052857Y-127652380D02*
X106386190Y-127176190D01*
X106624285Y-127652380D02*
X106624285Y-126652380D01*
X106243333Y-126652380D01*
X106148095Y-126700000D01*
X106100476Y-126747619D01*
X106052857Y-126842857D01*
X106052857Y-126985714D01*
X106100476Y-127080952D01*
X106148095Y-127128571D01*
X106243333Y-127176190D01*
X106624285Y-127176190D01*
X105671904Y-126747619D02*
X105624285Y-126700000D01*
X105529047Y-126652380D01*
X105290952Y-126652380D01*
X105195714Y-126700000D01*
X105148095Y-126747619D01*
X105100476Y-126842857D01*
X105100476Y-126938095D01*
X105148095Y-127080952D01*
X105719523Y-127652380D01*
X105100476Y-127652380D01*
X104719523Y-126747619D02*
X104671904Y-126700000D01*
X104576666Y-126652380D01*
X104338571Y-126652380D01*
X104243333Y-126700000D01*
X104195714Y-126747619D01*
X104148095Y-126842857D01*
X104148095Y-126938095D01*
X104195714Y-127080952D01*
X104767142Y-127652380D01*
X104148095Y-127652380D01*
%TO.C,R91*%
X113736380Y-139157142D02*
X113260190Y-138823809D01*
X113736380Y-138585714D02*
X112736380Y-138585714D01*
X112736380Y-138966666D01*
X112784000Y-139061904D01*
X112831619Y-139109523D01*
X112926857Y-139157142D01*
X113069714Y-139157142D01*
X113164952Y-139109523D01*
X113212571Y-139061904D01*
X113260190Y-138966666D01*
X113260190Y-138585714D01*
X113736380Y-139633333D02*
X113736380Y-139823809D01*
X113688761Y-139919047D01*
X113641142Y-139966666D01*
X113498285Y-140061904D01*
X113307809Y-140109523D01*
X112926857Y-140109523D01*
X112831619Y-140061904D01*
X112784000Y-140014285D01*
X112736380Y-139919047D01*
X112736380Y-139728571D01*
X112784000Y-139633333D01*
X112831619Y-139585714D01*
X112926857Y-139538095D01*
X113164952Y-139538095D01*
X113260190Y-139585714D01*
X113307809Y-139633333D01*
X113355428Y-139728571D01*
X113355428Y-139919047D01*
X113307809Y-140014285D01*
X113260190Y-140061904D01*
X113164952Y-140109523D01*
X113736380Y-141061904D02*
X113736380Y-140490476D01*
X113736380Y-140776190D02*
X112736380Y-140776190D01*
X112879238Y-140680952D01*
X112974476Y-140585714D01*
X113022095Y-140490476D01*
%TO.C,C14*%
X100337857Y-118213142D02*
X100385476Y-118260761D01*
X100528333Y-118308380D01*
X100623571Y-118308380D01*
X100766428Y-118260761D01*
X100861666Y-118165523D01*
X100909285Y-118070285D01*
X100956904Y-117879809D01*
X100956904Y-117736952D01*
X100909285Y-117546476D01*
X100861666Y-117451238D01*
X100766428Y-117356000D01*
X100623571Y-117308380D01*
X100528333Y-117308380D01*
X100385476Y-117356000D01*
X100337857Y-117403619D01*
X99385476Y-118308380D02*
X99956904Y-118308380D01*
X99671190Y-118308380D02*
X99671190Y-117308380D01*
X99766428Y-117451238D01*
X99861666Y-117546476D01*
X99956904Y-117594095D01*
X98528333Y-117641714D02*
X98528333Y-118308380D01*
X98766428Y-117260761D02*
X99004523Y-117975047D01*
X98385476Y-117975047D01*
%TO.C,R114*%
X198223047Y-38425380D02*
X198556380Y-37949190D01*
X198794476Y-38425380D02*
X198794476Y-37425380D01*
X198413523Y-37425380D01*
X198318285Y-37473000D01*
X198270666Y-37520619D01*
X198223047Y-37615857D01*
X198223047Y-37758714D01*
X198270666Y-37853952D01*
X198318285Y-37901571D01*
X198413523Y-37949190D01*
X198794476Y-37949190D01*
X197270666Y-38425380D02*
X197842095Y-38425380D01*
X197556380Y-38425380D02*
X197556380Y-37425380D01*
X197651619Y-37568238D01*
X197746857Y-37663476D01*
X197842095Y-37711095D01*
X196318285Y-38425380D02*
X196889714Y-38425380D01*
X196604000Y-38425380D02*
X196604000Y-37425380D01*
X196699238Y-37568238D01*
X196794476Y-37663476D01*
X196889714Y-37711095D01*
X195461142Y-37758714D02*
X195461142Y-38425380D01*
X195699238Y-37377761D02*
X195937333Y-38092047D01*
X195318285Y-38092047D01*
%TO.C,R20*%
X65666857Y-112720380D02*
X66000190Y-112244190D01*
X66238285Y-112720380D02*
X66238285Y-111720380D01*
X65857333Y-111720380D01*
X65762095Y-111768000D01*
X65714476Y-111815619D01*
X65666857Y-111910857D01*
X65666857Y-112053714D01*
X65714476Y-112148952D01*
X65762095Y-112196571D01*
X65857333Y-112244190D01*
X66238285Y-112244190D01*
X65285904Y-111815619D02*
X65238285Y-111768000D01*
X65143047Y-111720380D01*
X64904952Y-111720380D01*
X64809714Y-111768000D01*
X64762095Y-111815619D01*
X64714476Y-111910857D01*
X64714476Y-112006095D01*
X64762095Y-112148952D01*
X65333523Y-112720380D01*
X64714476Y-112720380D01*
X64095428Y-111720380D02*
X64000190Y-111720380D01*
X63904952Y-111768000D01*
X63857333Y-111815619D01*
X63809714Y-111910857D01*
X63762095Y-112101333D01*
X63762095Y-112339428D01*
X63809714Y-112529904D01*
X63857333Y-112625142D01*
X63904952Y-112672761D01*
X64000190Y-112720380D01*
X64095428Y-112720380D01*
X64190666Y-112672761D01*
X64238285Y-112625142D01*
X64285904Y-112529904D01*
X64333523Y-112339428D01*
X64333523Y-112101333D01*
X64285904Y-111910857D01*
X64238285Y-111815619D01*
X64190666Y-111768000D01*
X64095428Y-111720380D01*
D11*
%TO.C,R117*%
X205767000Y-44677064D02*
X205767000Y-44222936D01*
X207237000Y-44677064D02*
X207237000Y-44222936D01*
%TO.C,R67*%
X123724936Y-121131000D02*
X124179064Y-121131000D01*
X123724936Y-119661000D02*
X124179064Y-119661000D01*
%TO.C,C69*%
X173728748Y-118591000D02*
X174251252Y-118591000D01*
X173728748Y-117121000D02*
X174251252Y-117121000D01*
%TO.C,R109*%
X201903064Y-50319000D02*
X201448936Y-50319000D01*
X201903064Y-51789000D02*
X201448936Y-51789000D01*
%TO.C,C1*%
X74175252Y-114835000D02*
X73652748Y-114835000D01*
X74175252Y-116305000D02*
X73652748Y-116305000D01*
%TO.C,C71*%
X214857000Y-118261252D02*
X214857000Y-117738748D01*
X213387000Y-118261252D02*
X213387000Y-117738748D01*
%TO.C,C9*%
X71347000Y-133357252D02*
X71347000Y-132834748D01*
X69877000Y-133357252D02*
X69877000Y-132834748D01*
%TO.C,C35*%
X153135000Y-99829252D02*
X153135000Y-99306748D01*
X151665000Y-99829252D02*
X151665000Y-99306748D01*
%TO.C,R137*%
X99541064Y-135736000D02*
X99086936Y-135736000D01*
X99541064Y-134266000D02*
X99086936Y-134266000D01*
%TO.C,R111*%
X200633000Y-47979064D02*
X200633000Y-47524936D01*
X199163000Y-47979064D02*
X199163000Y-47524936D01*
%TO.C,R127*%
X62257000Y-131291064D02*
X62257000Y-130836936D01*
X63727000Y-131291064D02*
X63727000Y-130836936D01*
%TO.C,R132*%
X166572936Y-127265000D02*
X167027064Y-127265000D01*
X166572936Y-128735000D02*
X167027064Y-128735000D01*
%TO.C,C28*%
X66521000Y-100322748D02*
X66521000Y-100845252D01*
X65051000Y-100322748D02*
X65051000Y-100845252D01*
%TO.C,R17*%
X78004936Y-124687000D02*
X78459064Y-124687000D01*
X78004936Y-123217000D02*
X78459064Y-123217000D01*
%TO.C,R69*%
X164735000Y-121772936D02*
X164735000Y-122227064D01*
X163265000Y-121772936D02*
X163265000Y-122227064D01*
%TO.C,R94*%
X115089000Y-131291064D02*
X115089000Y-130836936D01*
X116559000Y-131291064D02*
X116559000Y-130836936D01*
%TO.C,C70*%
X165465000Y-118261252D02*
X165465000Y-117738748D01*
X166935000Y-118261252D02*
X166935000Y-117738748D01*
%TO.C,R97*%
X212370936Y-61060000D02*
X212825064Y-61060000D01*
X212370936Y-59590000D02*
X212825064Y-59590000D01*
%TO.C,C11*%
X73652748Y-118591000D02*
X74175252Y-118591000D01*
X73652748Y-117121000D02*
X74175252Y-117121000D01*
%TO.C,C10*%
X94207000Y-132341252D02*
X94207000Y-131818748D01*
X92737000Y-132341252D02*
X92737000Y-131818748D01*
%TO.C,C62*%
X115597000Y-118261252D02*
X115597000Y-117738748D01*
X117067000Y-118261252D02*
X117067000Y-117738748D01*
%TO.C,R112*%
X160501000Y-53821064D02*
X160501000Y-53366936D01*
X159031000Y-53821064D02*
X159031000Y-53366936D01*
%TO.C,C83*%
X170461000Y-133357252D02*
X170461000Y-132834748D01*
X171931000Y-133357252D02*
X171931000Y-132834748D01*
%TO.C,D2*%
X102336000Y-71576000D02*
X93936000Y-71576000D01*
X102336000Y-71576000D02*
X102336000Y-65076000D01*
X102336000Y-65076000D02*
X93936000Y-65076000D01*
%TO.C,C30*%
X124213252Y-114835000D02*
X123690748Y-114835000D01*
X124213252Y-116305000D02*
X123690748Y-116305000D01*
%TO.C,R120*%
X163041064Y-45947000D02*
X162586936Y-45947000D01*
X163041064Y-44477000D02*
X162586936Y-44477000D01*
%TO.C,R104*%
X163865000Y-86571064D02*
X163865000Y-86116936D01*
X165335000Y-86571064D02*
X165335000Y-86116936D01*
%TO.C,C46*%
X200633000Y-99306748D02*
X200633000Y-99829252D01*
X199163000Y-99306748D02*
X199163000Y-99829252D01*
%TO.C,R93*%
X119099000Y-131291064D02*
X119099000Y-130836936D01*
X117629000Y-131291064D02*
X117629000Y-130836936D01*
%TO.C,R101*%
X163857000Y-69876936D02*
X163857000Y-70331064D01*
X165327000Y-69876936D02*
X165327000Y-70331064D01*
%TO.C,R13*%
X67337000Y-131291064D02*
X67337000Y-130836936D01*
X68807000Y-131291064D02*
X68807000Y-130836936D01*
%TO.C,R83*%
X209269064Y-125703000D02*
X208814936Y-125703000D01*
X209269064Y-124233000D02*
X208814936Y-124233000D01*
%TO.C,C61*%
X123690748Y-117121000D02*
X124213252Y-117121000D01*
X123690748Y-118591000D02*
X124213252Y-118591000D01*
%TO.C,R19*%
X73686936Y-119661000D02*
X74141064Y-119661000D01*
X73686936Y-121131000D02*
X74141064Y-121131000D01*
%TO.C,R48*%
X123659737Y-95081000D02*
X122212263Y-95081000D01*
X123659737Y-92371000D02*
X122212263Y-92371000D01*
%TO.C,C79*%
X120169000Y-133357252D02*
X120169000Y-132834748D01*
X121639000Y-133357252D02*
X121639000Y-132834748D01*
%TO.C,R95*%
X124486936Y-127789000D02*
X124941064Y-127789000D01*
X124486936Y-129259000D02*
X124941064Y-129259000D01*
%TO.C,C45*%
X201957000Y-99829252D02*
X201957000Y-99306748D01*
X203427000Y-99829252D02*
X203427000Y-99306748D01*
%TO.C,R81*%
X214857000Y-121772936D02*
X214857000Y-122227064D01*
X213387000Y-121772936D02*
X213387000Y-122227064D01*
%TO.C,C94*%
X92321748Y-148690000D02*
X92844252Y-148690000D01*
X92321748Y-147220000D02*
X92844252Y-147220000D01*
%TO.C,D28*%
X201396000Y-78942000D02*
X201396000Y-72442000D01*
X201396000Y-78942000D02*
X192996000Y-78942000D01*
X201396000Y-72442000D02*
X192996000Y-72442000D01*
%TO.C,C80*%
X144245000Y-132341252D02*
X144245000Y-131818748D01*
X142775000Y-132341252D02*
X142775000Y-131818748D01*
%TO.C,D27*%
X201400000Y-65150000D02*
X193000000Y-65150000D01*
X201400000Y-71650000D02*
X193000000Y-71650000D01*
X201400000Y-71650000D02*
X201400000Y-65150000D01*
%TO.C,R82*%
X209227064Y-127935000D02*
X208772936Y-127935000D01*
X209227064Y-126465000D02*
X208772936Y-126465000D01*
%TO.C,C72*%
X202861252Y-117121000D02*
X202338748Y-117121000D01*
X202861252Y-118591000D02*
X202338748Y-118591000D01*
%TO.C,R66*%
X124179064Y-125703000D02*
X123724936Y-125703000D01*
X124179064Y-124233000D02*
X123724936Y-124233000D01*
%TO.C,C38*%
X116305000Y-100322748D02*
X116305000Y-100845252D01*
X114835000Y-100322748D02*
X114835000Y-100845252D01*
%TO.C,C98*%
X137949000Y-81018748D02*
X137949000Y-81541252D01*
X139419000Y-81018748D02*
X139419000Y-81541252D01*
%TO.C,C36*%
X148871000Y-99306748D02*
X148871000Y-99829252D01*
X150341000Y-99306748D02*
X150341000Y-99829252D01*
%TO.C,R107*%
X206221064Y-51789000D02*
X205766936Y-51789000D01*
X206221064Y-50319000D02*
X205766936Y-50319000D01*
%TO.C,R102*%
X165335000Y-76972936D02*
X165335000Y-77427064D01*
X163865000Y-76972936D02*
X163865000Y-77427064D01*
%TO.C,R113*%
X192759000Y-41121064D02*
X192759000Y-40666936D01*
X191289000Y-41121064D02*
X191289000Y-40666936D01*
%TO.C,C84*%
X192940000Y-132341252D02*
X192940000Y-131818748D01*
X194410000Y-132341252D02*
X194410000Y-131818748D01*
%TO.C,R64*%
X173697737Y-92625000D02*
X172250263Y-92625000D01*
X173697737Y-95335000D02*
X172250263Y-95335000D01*
%TO.C,D21*%
X151612000Y-65076000D02*
X143212000Y-65076000D01*
X151612000Y-71576000D02*
X151612000Y-65076000D01*
X151612000Y-71576000D02*
X143212000Y-71576000D01*
%TO.C,C12*%
X64265000Y-118461252D02*
X64265000Y-117938748D01*
X65735000Y-118461252D02*
X65735000Y-117938748D01*
%TO.C,C21*%
X101865000Y-99829252D02*
X101865000Y-99306748D01*
X103335000Y-99829252D02*
X103335000Y-99306748D01*
%TO.C,R32*%
X73621737Y-92371000D02*
X72174263Y-92371000D01*
X73621737Y-95081000D02*
X72174263Y-95081000D01*
%TO.C,R23*%
X109193064Y-125703000D02*
X108738936Y-125703000D01*
X109193064Y-124233000D02*
X108738936Y-124233000D01*
%TO.C,R110*%
X161427064Y-57535000D02*
X160972936Y-57535000D01*
X161427064Y-56065000D02*
X160972936Y-56065000D01*
%TO.C,C4*%
X108135000Y-118261252D02*
X108135000Y-117738748D01*
X106665000Y-118261252D02*
X106665000Y-117738748D01*
%TO.C,C99*%
X195260000Y-48811252D02*
X195260000Y-48288748D01*
X193790000Y-48811252D02*
X193790000Y-48288748D01*
%TO.C,R21*%
X114781000Y-121772936D02*
X114781000Y-122227064D01*
X113311000Y-121772936D02*
X113311000Y-122227064D01*
%TO.C,C29*%
X174251252Y-116305000D02*
X173728748Y-116305000D01*
X174251252Y-114835000D02*
X173728748Y-114835000D01*
%TO.C,C96*%
X131818748Y-85371000D02*
X132341252Y-85371000D01*
X131818748Y-86841000D02*
X132341252Y-86841000D01*
%TO.C,R128*%
X66372936Y-127265000D02*
X66827064Y-127265000D01*
X66372936Y-128735000D02*
X66827064Y-128735000D01*
%TO.C,R77*%
X177826936Y-123090000D02*
X178281064Y-123090000D01*
X177826936Y-124560000D02*
X178281064Y-124560000D01*
%TO.C,R72*%
X153135064Y-121131000D02*
X152680936Y-121131000D01*
X153135064Y-119661000D02*
X152680936Y-119661000D01*
%TO.C,C47*%
X167667000Y-100591252D02*
X167667000Y-100068748D01*
X169137000Y-100591252D02*
X169137000Y-100068748D01*
%TO.C,D22*%
X151612000Y-78942000D02*
X151612000Y-72442000D01*
X151612000Y-78942000D02*
X143212000Y-78942000D01*
X151612000Y-72442000D02*
X143212000Y-72442000D01*
%TO.C,R98*%
X215673000Y-59409064D02*
X215673000Y-58954936D01*
X217143000Y-59409064D02*
X217143000Y-58954936D01*
%TO.C,R115*%
X202972936Y-46709000D02*
X203427064Y-46709000D01*
X202972936Y-45239000D02*
X203427064Y-45239000D01*
%TO.C,C95*%
X101846748Y-148690000D02*
X102369252Y-148690000D01*
X101846748Y-147220000D02*
X102369252Y-147220000D01*
%TO.C,R31*%
X106210263Y-80179000D02*
X107657737Y-80179000D01*
X106210263Y-82889000D02*
X107657737Y-82889000D01*
%TO.C,R133*%
X169137000Y-131291064D02*
X169137000Y-130836936D01*
X167667000Y-131291064D02*
X167667000Y-130836936D01*
%TO.C,R14*%
X64797000Y-131291064D02*
X64797000Y-130836936D01*
X66267000Y-131291064D02*
X66267000Y-130836936D01*
%TO.C,R71*%
X158977064Y-124233000D02*
X158522936Y-124233000D01*
X158977064Y-125703000D02*
X158522936Y-125703000D01*
%TO.C,R134*%
X166597000Y-131291064D02*
X166597000Y-130836936D01*
X165127000Y-131291064D02*
X165127000Y-130836936D01*
%TO.C,C86*%
X195299000Y-41155252D02*
X195299000Y-40632748D01*
X193829000Y-41155252D02*
X193829000Y-40632748D01*
%TO.C,R79*%
X173762936Y-121131000D02*
X174217064Y-121131000D01*
X173762936Y-119661000D02*
X174217064Y-119661000D01*
%TO.C,D6*%
X102336000Y-72442000D02*
X93936000Y-72442000D01*
X102336000Y-78942000D02*
X93936000Y-78942000D01*
X102336000Y-78942000D02*
X102336000Y-72442000D01*
%TO.C,R78*%
X174217064Y-124233000D02*
X173762936Y-124233000D01*
X174217064Y-125703000D02*
X173762936Y-125703000D01*
%TO.C,R80*%
X166935000Y-121772936D02*
X166935000Y-122227064D01*
X165465000Y-121772936D02*
X165465000Y-122227064D01*
%TO.C,R24*%
X103351064Y-121131000D02*
X102896936Y-121131000D01*
X103351064Y-119661000D02*
X102896936Y-119661000D01*
%TO.C,C13*%
X114781000Y-118261252D02*
X114781000Y-117738748D01*
X113311000Y-118261252D02*
X113311000Y-117738748D01*
%TO.C,R68*%
X117067000Y-121772936D02*
X117067000Y-122227064D01*
X115597000Y-121772936D02*
X115597000Y-122227064D01*
%TO.C,C93*%
X99575252Y-138022000D02*
X99052748Y-138022000D01*
X99575252Y-136552000D02*
X99052748Y-136552000D01*
%TO.C,R106*%
X165327000Y-65759064D02*
X165327000Y-65304936D01*
X163857000Y-65759064D02*
X163857000Y-65304936D01*
%TO.C,C39*%
X206865000Y-118261252D02*
X206865000Y-117738748D01*
X208335000Y-118261252D02*
X208335000Y-117738748D01*
%TO.C,C37*%
X119099000Y-100845252D02*
X119099000Y-100322748D01*
X117629000Y-100845252D02*
X117629000Y-100322748D01*
%TO.C,C64*%
X153169252Y-117121000D02*
X152646748Y-117121000D01*
X153169252Y-118591000D02*
X152646748Y-118591000D01*
%TO.C,R84*%
X202827064Y-121131000D02*
X202372936Y-121131000D01*
X202827064Y-119661000D02*
X202372936Y-119661000D01*
%TO.C,C40*%
X156465000Y-118261252D02*
X156465000Y-117738748D01*
X157935000Y-118261252D02*
X157935000Y-117738748D01*
%TO.C,C48*%
X164873000Y-100068748D02*
X164873000Y-100591252D01*
X166343000Y-100068748D02*
X166343000Y-100591252D01*
%TO.C,R108*%
X163865000Y-58827064D02*
X163865000Y-58372936D01*
X165335000Y-58827064D02*
X165335000Y-58372936D01*
%TO.C,R141*%
X133577000Y-103351064D02*
X133577000Y-102896936D01*
X132107000Y-103351064D02*
X132107000Y-102896936D01*
%TO.C,R103*%
X165335000Y-81544936D02*
X165335000Y-81999064D01*
X163865000Y-81544936D02*
X163865000Y-81999064D01*
%TO.C,R70*%
X159027064Y-126465000D02*
X158572936Y-126465000D01*
X159027064Y-127935000D02*
X158572936Y-127935000D01*
%TO.C,D52*%
X99715000Y-142621000D02*
X99715000Y-144571000D01*
X99715000Y-142621000D02*
X99715000Y-139121000D01*
X109835000Y-142621000D02*
X109835000Y-144571000D01*
X109835000Y-142621000D02*
X109835000Y-140671000D01*
%TO.C,C27*%
X69315000Y-100845252D02*
X69315000Y-100322748D01*
X67845000Y-100845252D02*
X67845000Y-100322748D01*
%TO.C,C97*%
X136425000Y-85844748D02*
X136425000Y-86367252D01*
X137895000Y-85844748D02*
X137895000Y-86367252D01*
%TO.C,R99*%
X217143000Y-55091064D02*
X217143000Y-54636936D01*
X215673000Y-55091064D02*
X215673000Y-54636936D01*
%TO.C,C100*%
X153916748Y-131037000D02*
X154439252Y-131037000D01*
X153916748Y-129567000D02*
X154439252Y-129567000D01*
%TO.C,R131*%
X164057000Y-131291064D02*
X164057000Y-130836936D01*
X162587000Y-131291064D02*
X162587000Y-130836936D01*
%TO.C,R15*%
X74448936Y-129259000D02*
X74903064Y-129259000D01*
X74448936Y-127789000D02*
X74903064Y-127789000D01*
%TO.C,R63*%
X206286263Y-80433000D02*
X207733737Y-80433000D01*
X206286263Y-83143000D02*
X207733737Y-83143000D01*
%TO.C,R100*%
X214402936Y-51789000D02*
X214857064Y-51789000D01*
X214402936Y-50319000D02*
X214857064Y-50319000D01*
%TO.C,R116*%
X159031000Y-49249064D02*
X159031000Y-48794936D01*
X160501000Y-49249064D02*
X160501000Y-48794936D01*
%TO.C,R65*%
X127788936Y-124687000D02*
X128243064Y-124687000D01*
X127788936Y-123217000D02*
X128243064Y-123217000D01*
%TO.C,D51*%
X99050000Y-142621000D02*
X99050000Y-144571000D01*
X90180000Y-142621000D02*
X90180000Y-144571000D01*
X99050000Y-142621000D02*
X99050000Y-140671000D01*
X90180000Y-142621000D02*
X90180000Y-139171000D01*
%TO.C,C63*%
X163265000Y-118261252D02*
X163265000Y-117738748D01*
X164735000Y-118261252D02*
X164735000Y-117738748D01*
%TO.C,R105*%
X210539064Y-51789000D02*
X210084936Y-51789000D01*
X210539064Y-50319000D02*
X210084936Y-50319000D01*
%TO.C,R92*%
X116572936Y-128735000D02*
X117027064Y-128735000D01*
X116572936Y-127265000D02*
X117027064Y-127265000D01*
%TO.C,R135*%
X175286936Y-127789000D02*
X175741064Y-127789000D01*
X175286936Y-129259000D02*
X175741064Y-129259000D01*
%TO.C,R18*%
X74141064Y-125703000D02*
X73686936Y-125703000D01*
X74141064Y-124233000D02*
X73686936Y-124233000D01*
%TO.C,R47*%
X156248263Y-80179000D02*
X157695737Y-80179000D01*
X156248263Y-82889000D02*
X157695737Y-82889000D01*
%TO.C,C22*%
X99087000Y-99306748D02*
X99087000Y-99829252D01*
X100557000Y-99306748D02*
X100557000Y-99829252D01*
%TO.C,R22*%
X109227064Y-126465000D02*
X108772936Y-126465000D01*
X109227064Y-127935000D02*
X108772936Y-127935000D01*
%TO.C,R91*%
X114019000Y-131291064D02*
X114019000Y-130836936D01*
X112549000Y-131291064D02*
X112549000Y-130836936D01*
%TO.C,C14*%
X103385252Y-117121000D02*
X102862748Y-117121000D01*
X103385252Y-118591000D02*
X102862748Y-118591000D01*
%TO.C,R114*%
X196369000Y-40666936D02*
X196369000Y-41121064D01*
X197839000Y-40666936D02*
X197839000Y-41121064D01*
%TO.C,R20*%
X65735000Y-121972936D02*
X65735000Y-122427064D01*
X64265000Y-121972936D02*
X64265000Y-122427064D01*
%TD*%
M02*
