M48
; DRILL file {KiCad 7.0.6} date Thu Aug 17 16:08:49 2023
; FORMAT={-:-/ absolute / metric / decimal}
; #@! TF.CreationDate,2023-08-17T16:08:49+03:00
; #@! TF.GenerationSoftware,Kicad,Pcbnew,7.0.6
; #@! TF.FileFunction,Plated,1,4,PTH
FMAT,2
METRIC
; #@! TA.AperFunction,Plated,PTH,ViaDrill
T1C0.400
; #@! TA.AperFunction,Plated,PTH,ComponentDrill
T2C0.762
; #@! TA.AperFunction,Plated,PTH,ComponentDrill
T3C0.800
; #@! TA.AperFunction,Plated,PTH,ComponentDrill
T4C1.000
%
G90
G05
T1
X62.992Y-133.604
X63.4Y-123.2
X63.5Y-128.0
X65.786Y-101.6
X65.786Y-115.57
X66.04Y-56.896
X66.04Y-58.42
X66.04Y-59.944
X66.04Y-61.468
X68.326Y-115.57
X68.58Y-101.6
X69.508Y-129.628
X69.596Y-135.382
X70.866Y-120.65
X70.866Y-122.682
X72.136Y-102.108
X72.39Y-78.232
X73.406Y-114.554
X73.66Y-65.405
X76.2Y-115.57
X76.2Y-123.19
X76.2Y-124.968
X76.708Y-117.819
X77.978Y-78.74
X78.105Y-90.17
X78.232Y-118.872
X79.248Y-127.529
X79.341Y-122.521
X79.375Y-67.31
X80.772Y-122.682
X81.915Y-56.896
X81.915Y-58.42
X81.915Y-59.944
X81.915Y-61.595
X81.915Y-65.405
X82.166Y-134.998
X82.55Y-92.71
X83.058Y-122.682
X83.858Y-116.625
X84.582Y-137.033
X85.344Y-122.682
X86.614Y-90.17
X86.614Y-119.38
X87.63Y-56.896
X87.63Y-58.42
X87.63Y-59.944
X87.63Y-61.468
X87.63Y-122.682
X88.392Y-119.38
X88.9Y-90.17
X89.916Y-122.682
X90.805Y-146.812
X92.202Y-122.682
X93.472Y-65.532
X93.472Y-92.71
X93.602Y-134.998
X94.488Y-122.682
X94.526Y-116.625
X97.551Y-90.185
X99.06Y-130.556
X100.33Y-138.43
X100.33Y-146.812
X100.711Y-102.235
X100.711Y-115.57
X101.6Y-65.532
X102.108Y-82.296
X102.108Y-121.92
X102.87Y-135.509
X103.124Y-56.896
X103.124Y-58.42
X103.124Y-59.944
X103.124Y-61.468
X103.251Y-115.57
X104.521Y-102.235
X105.156Y-135.509
X105.913Y-120.654
X105.918Y-122.428
X106.6Y-127.2
X106.935Y-102.321
X107.95Y-115.57
X108.204Y-71.12
X109.791Y-94.043
X109.982Y-115.57
X111.76Y-117.856
X111.76Y-124.46
X111.76Y-125.73
X111.76Y-133.096
X112.4Y-122.4
X113.284Y-128.037
X114.3Y-127.0
X115.57Y-101.6
X115.697Y-115.697
X116.078Y-56.896
X116.078Y-58.42
X116.078Y-59.944
X116.078Y-61.468
X118.237Y-115.697
X118.364Y-101.6
X119.888Y-129.54
X119.888Y-135.382
X120.777Y-120.523
X120.777Y-122.682
X121.412Y-124.968
X121.92Y-130.048
X122.047Y-102.235
X122.428Y-65.532
X122.428Y-78.232
X123.19Y-114.3
X126.238Y-115.57
X126.365Y-122.769
X126.492Y-117.856
X127.0Y-125.73
X127.635Y-118.872
X128.27Y-90.424
X128.524Y-69.342
X128.524Y-78.74
X129.264Y-127.508
X129.286Y-122.428
X130.556Y-65.532
X130.81Y-122.682
X131.08Y-84.582
X131.572Y-135.128
X132.08Y-56.896
X132.08Y-58.42
X132.08Y-59.944
X132.08Y-61.468
X132.588Y-92.71
X133.096Y-122.682
X133.604Y-78.232
X133.858Y-116.625
X134.62Y-104.14
X134.62Y-137.033
X135.128Y-88.646
X135.382Y-122.682
X136.144Y-80.264
X136.144Y-83.566
X136.525Y-119.38
X136.906Y-90.424
X137.16Y-82.296
X137.16Y-88.646
X137.414Y-56.896
X137.414Y-58.42
X137.414Y-59.944
X137.414Y-61.468
X137.668Y-122.682
X138.43Y-119.38
X139.192Y-90.424
X139.954Y-122.682
X141.605Y-132.715
X142.24Y-122.682
X143.445Y-135.063
X143.51Y-65.532
X143.51Y-92.71
X144.31Y-116.625
X144.526Y-122.682
X146.685Y-118.11
X147.558Y-128.27
X147.574Y-90.424
X149.86Y-118.11
X150.495Y-102.235
X150.495Y-115.443
X150.876Y-130.302
X151.13Y-65.532
X151.892Y-82.55
X151.892Y-138.176
X151.892Y-139.192
X151.908Y-121.92
X152.654Y-56.896
X152.654Y-58.42
X152.654Y-59.944
X152.654Y-61.468
X153.035Y-115.443
X154.305Y-102.235
X155.575Y-120.523
X155.575Y-122.682
X155.8Y-127.2
X156.843Y-102.321
X157.734Y-115.57
X157.734Y-130.302
X157.988Y-71.12
X159.766Y-115.57
X159.893Y-94.361
X161.201Y-122.8
X161.29Y-124.46
X161.544Y-117.856
X161.544Y-132.08
X161.6Y-119.2
X161.8Y-122.0
X163.83Y-128.0
X165.608Y-101.346
X165.735Y-115.443
X166.624Y-56.642
X166.624Y-58.166
X166.624Y-59.69
X166.624Y-61.214
X168.275Y-115.443
X168.402Y-101.346
X169.926Y-135.382
X170.18Y-129.54
X170.815Y-120.532
X170.942Y-122.936
X171.069Y-124.841
X172.085Y-102.235
X172.212Y-78.232
X172.212Y-130.048
X172.72Y-67.945
X173.228Y-114.554
X173.863Y-138.938
X176.276Y-115.57
X176.276Y-117.856
X176.276Y-122.769
X176.276Y-125.222
X177.292Y-138.938
X177.673Y-118.872
X178.269Y-89.916
X178.689Y-69.342
X179.07Y-66.675
X179.556Y-127.508
X179.578Y-122.428
X179.832Y-78.74
X180.848Y-122.682
X182.118Y-135.128
X182.372Y-56.642
X182.372Y-58.166
X182.372Y-59.69
X182.372Y-61.214
X182.626Y-92.71
X183.134Y-122.682
X183.934Y-116.625
X184.658Y-137.033
X185.42Y-122.682
X186.69Y-89.916
X186.944Y-119.38
X187.706Y-56.642
X187.706Y-58.166
X187.706Y-59.69
X187.706Y-61.214
X187.706Y-122.682
X188.214Y-53.594
X188.722Y-44.196
X188.722Y-119.38
X189.191Y-89.916
X189.992Y-122.682
X190.246Y-38.354
X191.77Y-65.4
X191.77Y-132.715
X191.989Y-52.289
X192.278Y-122.682
X193.548Y-92.71
X193.802Y-134.998
X194.564Y-43.434
X194.564Y-122.682
X194.602Y-116.625
X197.596Y-128.27
X198.374Y-89.916
X198.882Y-38.354
X199.39Y-65.405
X200.66Y-44.196
X200.787Y-102.362
X200.787Y-115.443
X201.74Y-82.55
X202.073Y-122.031
X202.946Y-56.642
X202.946Y-58.166
X202.946Y-59.69
X202.946Y-61.214
X203.327Y-115.443
X203.708Y-53.594
X204.597Y-102.362
X205.867Y-120.523
X205.867Y-122.682
X206.6Y-127.2
X207.013Y-102.32
X208.2Y-115.57
X208.534Y-71.12
X210.058Y-115.57
X210.248Y-93.916
X211.836Y-122.682
X211.836Y-124.968
X212.09Y-117.792
X215.646Y-123.0
X217.17Y-116.84
X219.71Y-129.54
X219.71Y-138.557
X224.79Y-140.97
X224.79Y-143.51
X224.917Y-146.177
X226.352Y-116.84
X228.092Y-52.324
T2
X80.086Y-104.648
X90.754Y-104.648
X130.048Y-104.57
X140.668Y-104.57
X180.162Y-104.648
X190.782Y-104.648
T3
X80.086Y-97.028
X80.086Y-99.568
X80.086Y-102.108
X80.086Y-109.728
X80.086Y-112.268
X80.086Y-114.808
X90.754Y-97.028
X90.754Y-99.568
X90.754Y-102.108
X90.754Y-109.728
X90.754Y-112.268
X90.754Y-114.808
X130.048Y-96.95
X130.048Y-99.49
X130.048Y-102.03
X130.048Y-109.65
X130.048Y-112.19
X130.048Y-114.73
X140.668Y-96.95
X140.668Y-99.49
X140.668Y-102.03
X140.668Y-109.65
X140.668Y-112.19
X140.668Y-114.73
X180.162Y-97.028
X180.162Y-99.568
X180.162Y-102.108
X180.162Y-109.728
X180.162Y-112.268
X180.162Y-114.808
X190.782Y-97.028
X190.782Y-99.568
X190.782Y-102.108
X190.782Y-109.728
X190.782Y-112.268
X190.782Y-114.808
T4
X224.965Y-103.285
X224.965Y-105.825
X224.965Y-108.365
T0
M30
