M48
; DRILL file {KiCad (6.0.1)} date Thu Feb 16 13:56:38 2023
; FORMAT={-:-/ absolute / metric / decimal}
; #@! TF.CreationDate,2023-02-16T13:56:38+03:00
; #@! TF.GenerationSoftware,Kicad,Pcbnew,(6.0.1)
; #@! TF.FileFunction,Plated,1,4,PTH
FMAT,2
METRIC
; #@! TA.AperFunction,Plated,PTH,ViaDrill
T1C0.400
; #@! TA.AperFunction,Plated,PTH,ComponentDrill
T2C0.800
; #@! TA.AperFunction,Plated,PTH,ComponentDrill
T3C1.000
%
G90
G05
T1
X62.992Y-132.08
X63.4Y-123.2
X65.532Y-128.0
X65.786Y-101.6
X65.786Y-115.57
X68.072Y-56.896
X68.072Y-58.42
X68.072Y-59.944
X68.072Y-61.468
X68.326Y-115.57
X68.58Y-101.6
X69.508Y-129.628
X69.596Y-135.382
X70.104Y-56.896
X70.104Y-58.42
X70.104Y-59.944
X70.104Y-61.468
X70.866Y-120.65
X70.866Y-122.682
X72.136Y-56.896
X72.136Y-58.42
X72.136Y-59.944
X72.136Y-61.468
X72.136Y-102.108
X72.39Y-65.278
X72.39Y-78.232
X72.898Y-115.57
X74.93Y-115.57
X74.93Y-124.968
X76.2Y-56.896
X76.2Y-58.42
X76.2Y-59.944
X76.2Y-61.468
X76.708Y-117.819
X76.708Y-123.952
X77.978Y-69.342
X77.978Y-78.74
X78.194Y-92.71
X78.232Y-56.896
X78.232Y-58.42
X78.232Y-59.944
X78.232Y-61.468
X78.232Y-118.872
X79.248Y-123.952
X79.248Y-127.529
X80.264Y-56.896
X80.264Y-58.42
X80.264Y-59.944
X80.264Y-61.468
X80.518Y-65.278
X80.772Y-122.682
X82.166Y-134.998
X82.55Y-92.71
X83.058Y-122.682
X83.858Y-118.872
X84.582Y-137.033
X85.344Y-122.682
X86.614Y-92.71
X86.614Y-119.38
X87.63Y-122.682
X88.392Y-119.38
X89.154Y-56.896
X89.154Y-58.42
X89.154Y-59.944
X89.154Y-61.468
X89.154Y-92.71
X89.916Y-122.682
X91.186Y-56.896
X91.186Y-58.42
X91.186Y-59.944
X91.186Y-61.468
X91.567Y-147.955
X92.202Y-122.682
X93.218Y-56.896
X93.218Y-58.42
X93.218Y-59.944
X93.218Y-61.468
X93.472Y-65.532
X93.472Y-92.71
X93.602Y-134.998
X94.488Y-122.682
X94.526Y-118.872
X97.282Y-56.896
X97.282Y-58.42
X97.282Y-59.944
X97.536Y-92.71
X97.536Y-130.556
X99.314Y-56.896
X99.314Y-58.42
X99.314Y-59.944
X100.33Y-137.287
X100.711Y-102.235
X100.711Y-115.57
X101.092Y-147.955
X101.346Y-56.896
X101.346Y-58.42
X101.346Y-59.944
X101.6Y-65.532
X102.108Y-82.296
X102.108Y-121.92
X102.87Y-135.509
X103.251Y-115.57
X104.521Y-102.235
X105.156Y-135.509
X105.913Y-120.654
X105.918Y-122.428
X106.6Y-127.2
X106.934Y-104.14
X107.95Y-115.57
X108.204Y-71.12
X109.982Y-115.57
X109.982Y-124.968
X109.991Y-122.682
X110.236Y-98.298
X110.257Y-96.012
X111.76Y-117.856
X112.4Y-122.4
X113.284Y-128.037
X113.284Y-132.08
X115.57Y-101.6
X115.697Y-115.697
X115.824Y-128.0
X118.11Y-56.896
X118.11Y-58.42
X118.11Y-59.944
X118.11Y-61.468
X118.237Y-115.697
X118.364Y-101.6
X119.888Y-129.54
X119.888Y-135.382
X120.142Y-56.896
X120.142Y-58.42
X120.142Y-59.944
X120.142Y-61.468
X120.777Y-120.523
X120.777Y-122.682
X121.412Y-124.968
X121.92Y-130.048
X122.047Y-102.235
X122.174Y-56.896
X122.174Y-58.42
X122.174Y-59.944
X122.174Y-61.468
X122.428Y-65.532
X122.428Y-78.232
X122.936Y-115.57
X124.968Y-115.57
X124.968Y-124.968
X126.238Y-56.896
X126.238Y-58.42
X126.238Y-59.944
X126.238Y-61.468
X126.492Y-117.856
X126.746Y-123.952
X127.635Y-118.872
X128.27Y-56.896
X128.27Y-58.42
X128.27Y-59.944
X128.27Y-61.468
X128.27Y-92.71
X128.524Y-69.342
X128.524Y-78.74
X129.032Y-123.952
X129.264Y-127.508
X130.302Y-56.896
X130.302Y-58.42
X130.302Y-59.944
X130.302Y-61.468
X130.556Y-65.532
X130.81Y-122.682
X131.08Y-86.106
X131.572Y-135.128
X132.588Y-92.71
X133.096Y-122.682
X133.604Y-78.232
X133.858Y-118.872
X134.62Y-104.14
X134.62Y-137.033
X135.128Y-88.646
X135.382Y-122.682
X136.144Y-80.264
X136.144Y-83.566
X136.525Y-119.38
X136.652Y-92.71
X137.16Y-82.296
X137.16Y-88.646
X137.668Y-122.682
X138.43Y-119.38
X139.192Y-56.896
X139.192Y-58.42
X139.192Y-59.944
X139.192Y-61.468
X139.192Y-92.71
X139.954Y-122.682
X141.224Y-56.896
X141.224Y-58.42
X141.224Y-59.944
X141.224Y-61.468
X142.24Y-122.682
X143.256Y-56.896
X143.256Y-58.42
X143.256Y-59.944
X143.256Y-61.468
X143.445Y-135.063
X143.51Y-65.532
X143.51Y-92.71
X144.31Y-118.872
X144.526Y-122.682
X146.685Y-118.11
X146.812Y-56.896
X146.812Y-58.42
X146.812Y-59.944
X147.558Y-130.556
X147.574Y-92.71
X148.844Y-56.896
X148.844Y-58.42
X148.844Y-59.944
X149.86Y-118.11
X150.495Y-102.235
X150.495Y-115.443
X150.876Y-56.896
X150.876Y-58.42
X150.876Y-59.944
X150.876Y-130.302
X151.13Y-65.532
X151.892Y-82.55
X151.892Y-138.176
X151.892Y-139.192
X151.908Y-121.92
X153.035Y-115.443
X154.305Y-102.235
X155.575Y-120.523
X155.575Y-122.682
X155.8Y-127.2
X156.718Y-104.14
X157.734Y-115.57
X157.734Y-130.302
X157.988Y-71.12
X159.766Y-115.57
X159.766Y-122.682
X159.766Y-124.968
X160.02Y-98.298
X160.063Y-96.012
X161.544Y-117.856
X161.6Y-119.2
X161.8Y-122.0
X163.322Y-132.08
X165.608Y-101.346
X165.735Y-115.443
X165.862Y-128.0
X168.275Y-115.443
X168.402Y-56.896
X168.402Y-58.42
X168.402Y-59.944
X168.402Y-101.346
X169.926Y-135.382
X170.18Y-129.54
X170.434Y-56.896
X170.434Y-58.42
X170.434Y-59.944
X170.815Y-120.532
X170.942Y-122.936
X171.069Y-124.841
X172.085Y-102.235
X172.212Y-78.232
X172.212Y-130.048
X172.466Y-56.896
X172.466Y-58.42
X172.466Y-59.944
X172.72Y-66.04
X172.974Y-115.57
X173.863Y-138.938
X175.006Y-115.57
X175.006Y-124.968
X176.276Y-117.856
X176.53Y-56.896
X176.53Y-58.42
X176.53Y-59.944
X176.911Y-123.825
X177.292Y-138.938
X177.673Y-118.872
X178.269Y-92.71
X178.562Y-56.896
X178.562Y-58.42
X178.562Y-59.944
X178.689Y-69.342
X179.197Y-123.825
X179.556Y-127.508
X179.832Y-78.74
X180.594Y-56.896
X180.594Y-58.42
X180.594Y-59.944
X180.848Y-66.04
X180.848Y-122.682
X182.118Y-135.128
X182.626Y-92.71
X183.134Y-122.682
X183.934Y-118.872
X184.658Y-137.033
X185.42Y-122.682
X186.944Y-92.71
X186.944Y-119.38
X187.706Y-122.682
X188.214Y-53.594
X188.722Y-44.196
X188.722Y-119.38
X189.191Y-92.71
X189.484Y-56.896
X189.484Y-58.42
X189.484Y-59.944
X189.992Y-122.682
X190.246Y-38.354
X191.516Y-56.896
X191.516Y-58.42
X191.516Y-59.944
X191.989Y-52.289
X192.278Y-122.682
X193.548Y-56.896
X193.548Y-58.42
X193.548Y-59.944
X193.548Y-92.71
X193.8Y-65.4
X193.802Y-134.998
X194.564Y-43.434
X194.564Y-122.682
X194.602Y-118.872
X197.104Y-56.896
X197.104Y-58.42
X197.104Y-59.944
X197.596Y-130.556
X197.612Y-92.71
X198.882Y-38.354
X199.136Y-56.896
X199.136Y-58.42
X199.136Y-59.944
X200.66Y-44.196
X200.787Y-102.362
X200.787Y-115.443
X201.168Y-56.896
X201.168Y-58.42
X201.168Y-59.944
X201.416Y-65.414
X201.74Y-82.55
X202.073Y-122.031
X203.327Y-115.443
X203.708Y-53.594
X204.597Y-102.362
X205.867Y-120.523
X205.867Y-122.682
X206.6Y-127.2
X207.01Y-104.14
X208.2Y-115.57
X208.534Y-71.12
X210.058Y-115.57
X210.058Y-124.968
X210.067Y-122.682
X210.566Y-98.298
X210.587Y-96.012
X212.09Y-117.792
X215.646Y-123.0
X217.17Y-114.3
X222.25Y-128.397
X222.25Y-143.51
X222.256Y-138.557
X222.256Y-141.097
X224.917Y-146.177
X226.352Y-114.3
X226.756Y-139.827
X226.822Y-142.24
X228.092Y-52.324
T2
X80.086Y-97.028
X80.086Y-99.568
X80.086Y-102.108
X80.086Y-109.728
X80.086Y-112.268
X80.086Y-114.808
X90.754Y-97.028
X90.754Y-99.568
X90.754Y-102.108
X90.754Y-109.728
X90.754Y-112.268
X90.754Y-114.808
X130.048Y-96.95
X130.048Y-99.49
X130.048Y-102.03
X130.048Y-109.65
X130.048Y-112.19
X130.048Y-114.73
X140.668Y-96.95
X140.668Y-99.49
X140.668Y-102.03
X140.668Y-109.65
X140.668Y-112.19
X140.668Y-114.73
X180.162Y-97.028
X180.162Y-99.568
X180.162Y-102.108
X180.162Y-109.728
X180.162Y-112.268
X180.162Y-114.808
X190.782Y-97.028
X190.782Y-99.568
X190.782Y-102.108
X190.782Y-109.728
X190.782Y-112.268
X190.782Y-114.808
T3
X224.965Y-103.285
X224.965Y-105.825
X224.965Y-108.365
T0
M30
